<svg viewBox="0 0 32 32" fill="#FFF" xmlns="http://www.w3.org/2000/svg">
<path d="M13.4104 2.00527C13.0004 1.97891 12.577 2.0699 12.1958 2.29422C11.1793 2.8935 10.8392 4.20813 11.4354 5.22979L13.3667 8.54226L7.11042 19.2732H2.13333C0.955733 19.2732 0 20.2338 0 21.4173C0 22.6009 0.955733 23.5614 2.13333 23.5614H27.0688C27.2362 22.7434 22.8693 22.2374 22.4 21.4173C21.9872 20.6947 25.2354 19.7192 24.5688 19.2732H12.0563L20.2438 5.2277C20.839 4.20604 20.4978 2.89243 19.4813 2.29422C18.4637 1.69602 17.1577 2.03891 16.5625 3.06057L15.8396 4.30013L15.1167 3.06057C14.744 2.42203 14.0938 2.04921 13.4104 2.00527ZM15.8396 4.30013L16 9.08872C15.0272 10.7139 12.4437 6.89209 13.3333 8.55269L25.2521 28.9238C25.6489 29.6056 26.361 29.9833 27.0938 29.9833C27.4596 29.9833 27.8316 29.8895 28.1708 29.6901C29.1874 29.0919 29.5275 27.7783 28.9313 26.7566L27.0688 23.5614H29.8667C31.0443 23.5614 32 22.6009 32 21.4173C32 20.2338 31.0443 19.2732 29.8667 19.2732H24.5688L15.8396 4.30013ZM7.46667 23.0254C6.87253 23.0082 7.65975 19.0996 7.11042 19.2732L2.7375 26.7713C2.14123 27.7919 2.48347 29.1066 3.5 29.7048C3.8392 29.9052 4.20913 30 4.575 30C5.3078 30 6.02088 29.6192 6.41875 28.9384L12.0563 19.2732C11.4323 18.541 8.55787 23.0575 7.46667 23.0254Z" />
</svg>
