<svg width="32" height="32" viewBox="0 0 32 32" fill="none" xmlns="http://www.w3.org/2000/svg">
<path d="M32 16C32 15.7442 31.8445 15.4046 31.6867 15.2398L22.798 5.84497C22.383 5.41817 21.7106 5.36871 21.2268 5.80186C20.7942 6.18909 20.7834 6.9443 21.1834 7.3648L28.3188 14.8945H1.11112C0.497447 14.8945 0 15.3893 0 15.9997C0 16.6102 0.497447 17.1051 1.11112 17.1051H28.3188L21.1834 24.6348C20.7835 25.0552 20.8119 25.7919 21.2268 26.1977C21.6648 26.6261 22.3893 26.5879 22.798 26.1546L31.6867 16.7597C31.9479 16.5049 31.9956 16.2595 32 16Z" fill="#26282B"/>
</svg>
