<svg width="60" height="40" viewBox="0 0 60 40" fill="none">
<path d="M60 20C60 19.5128 59.7084 18.8659 59.4126 18.552L42.7462 0.657078C41.968 -0.155867 40.7074 -0.250081 39.8002 0.57497C38.9892 1.31255 38.969 2.75105 39.719 3.552L53.0977 17.8943H2.08334C0.932713 17.8943 0 18.8368 0 19.9995C0 21.1623 0.932713 22.1049 2.08334 22.1049H53.0977L39.719 36.4472C38.9691 37.248 39.0223 38.6512 39.8002 39.4241C40.6216 40.2401 41.9799 40.1675 42.7462 39.342L59.4126 21.4471C59.9023 20.9617 59.9918 20.4943 60 20Z" fill="currentColor"/>
</svg>
