<svg width="32" height="32" viewBox="0 0 32 32" fill="none" xmlns="http://www.w3.org/2000/svg">
<path fill-rule="evenodd" clip-rule="evenodd" d="M0.710053 31.2898C-0.236684 30.3432 -0.236684 28.8081 0.710053 27.8615L27.8615 0.710053C28.8081 -0.236684 30.3432 -0.236684 31.2898 0.710053C32.2367 1.65677 32.2367 3.19172 31.2898 4.13843L4.13843 31.2898C3.19172 32.2367 1.65677 32.2367 0.710053 31.2898Z" fill="#26282B"/>
<path fill-rule="evenodd" clip-rule="evenodd" d="M0.710053 0.710053C1.65677 -0.236684 3.19172 -0.236684 4.13843 0.710053L31.2898 27.8615C32.2367 28.8081 32.2367 30.3432 31.2898 31.2898C30.3432 32.2367 28.8081 32.2367 27.8615 31.2898L0.710053 4.13843C-0.236684 3.19172 -0.236684 1.65677 0.710053 0.710053Z" fill="#26282B"/>
</svg>
