<svg viewBox="0 0 32 32" fill="none" xmlns="http://www.w3.org/2000/svg">
<path d="M2.76595 29.9587C2.59173 29.9587 2.42632 29.8968 2.30023 29.7846C1.88196 29.4141 1.55657 28.9722 1.33218 28.4717C1.11051 27.9761 0.998656 27.4469 1.00001 26.8978V18.0776C1.00001 17.7261 1.23591 18.3766 1.61011 18.3766C1.98364 18.3766 2.35582 17.7261 2.35582 18.0776V26.8978C2.35717 27.4482 2.50902 27.9468 2.80798 28.3798L16.568 15.4465L14.4279 13.5908C14.2944 13.476 14.2171 13.3185 14.2096 13.1483C14.2022 12.978 14.2659 12.8154 14.3886 12.6904C14.5167 12.5597 14.6984 12.4845 14.8875 12.4845C15.0577 12.4845 15.2211 12.5444 15.3465 12.6534L18.0059 14.9593C18.1408 15.076 18.2208 15.2424 18.2242 15.4152C18.2283 15.5874 18.1557 15.757 18.0255 15.8788L3.24523 29.7725C3.1171 29.8924 2.94695 29.9587 2.76595 29.9587ZM1.67791 18.7152C1.30371 18.7152 1.00001 18.4289 1.00001 18.0776V5.10662C0.998656 4.55121 1.11526 4.01365 1.3471 3.50988C1.57691 3.00931 1.91044 2.56357 2.33819 2.18479C2.46428 2.07193 2.62969 2.01007 2.80391 2.01007C2.97542 2.01007 3.13812 2.07001 3.26353 2.17905L11.5583 9.36884C11.8329 9.60733 11.8505 10.0116 11.597 10.2705C11.4689 10.4006 11.2872 10.4758 11.0981 10.4758C10.9279 10.4758 10.7645 10.4159 10.6391 10.3069L2.85882 3.56217C2.52665 4.01428 2.35785 4.53399 2.35582 5.10662V18.0776C2.35582 18.4289 2.05144 18.7152 1.67791 18.7152ZM12.9426 12.0745C12.7718 12.0745 12.6091 12.0146 12.4837 11.9055C12.2085 11.6677 12.1908 11.2634 12.4444 11.0051C12.5725 10.8744 12.7542 10.7991 12.9433 10.7991C13.1135 10.7991 13.2768 10.8591 13.4022 10.9681C13.6775 11.2066 13.6944 11.6103 13.4416 11.8692C13.3134 11.9999 13.1318 12.0745 12.9426 12.0745Z" />
<path d="M1.00001 18.0776V26.8978C0.998656 27.4469 1.11051 27.9761 1.33218 28.4717C1.55657 28.9722 1.88196 29.4141 2.30023 29.7846C2.42632 29.8968 2.59173 29.9587 2.76595 29.9587C2.94695 29.9587 3.1171 29.8924 3.24523 29.7725L18.0255 15.8788C18.1557 15.757 18.2283 15.5874 18.2242 15.4152C18.2208 15.2424 18.1408 15.076 18.0059 14.9593L15.3465 12.6534C15.2211 12.5444 15.0577 12.4845 14.8875 12.4845C14.6984 12.4845 14.5167 12.5597 14.3886 12.6904C14.2659 12.8154 14.2022 12.978 14.2096 13.1483C14.2171 13.3185 14.2944 13.476 14.4279 13.5908L16.568 15.4465L2.80798 28.3798C2.50902 27.9468 2.35717 27.4482 2.35582 26.8978V18.0776M1.00001 18.0776C1.00001 17.7261 1.23591 18.3766 1.61011 18.3766C1.98364 18.3766 2.35582 17.7261 2.35582 18.0776M1.00001 18.0776C1.00001 18.4289 1.30371 18.7152 1.67791 18.7152C2.05144 18.7152 2.35582 18.4289 2.35582 18.0776M1.00001 18.0776V5.10662C0.998656 4.55121 1.11526 4.01365 1.3471 3.50988C1.57691 3.00931 1.91044 2.56357 2.33819 2.18479C2.46428 2.07193 2.62969 2.01007 2.80391 2.01007C2.97542 2.01007 3.13812 2.07001 3.26353 2.17905L11.5583 9.36884C11.8329 9.60733 11.8505 10.0116 11.597 10.2705C11.4689 10.4006 11.2872 10.4758 11.0981 10.4758C10.9279 10.4758 10.7645 10.4159 10.6391 10.3069L2.85882 3.56217C2.52665 4.01428 2.35785 4.53399 2.35582 5.10662V18.0776M12.9426 12.0745C12.7718 12.0745 12.6091 12.0146 12.4837 11.9055C12.2085 11.6677 12.1908 11.2634 12.4444 11.0051C12.5725 10.8744 12.7542 10.7991 12.9433 10.7991C13.1135 10.7991 13.2768 10.8591 13.4022 10.9681C13.6775 11.2066 13.6944 11.6103 13.4416 11.8692C13.3134 11.9999 13.1318 12.0745 12.9426 12.0745Z" stroke-width="2"/>
<path d="M24.1924 21.8278C24.0216 21.8278 23.8582 21.768 23.7328 21.6589L18.5204 17.1358L17.088 15.8975C16.9524 15.7808 16.8724 15.6143 16.8691 15.4415C16.865 15.2687 16.9376 15.0991 17.0678 14.9773L22.5866 9.78917C22.714 9.66929 22.8848 9.60297 23.0665 9.60297C23.1804 9.60297 23.2936 9.63039 23.3932 9.68204L25.5313 10.7916C25.858 10.9612 25.978 11.3502 25.797 11.6582C25.6777 11.8616 25.4507 11.9879 25.2032 11.9879C25.0893 11.9879 24.9761 11.9605 24.8764 11.9082L23.1844 11.0307L18.5259 15.409L19.4383 16.1978L24.2921 20.409L28.064 18.4431C29.0646 17.9144 29.6408 17.0249 29.6442 16.0027C29.6435 15.3803 29.4253 14.7949 29.0138 14.309C28.3003 13.4666 25.3706 12.1594 24.8764 11.9082C24.8771 11.7137 25.6356 11.7794 25.797 11.6582C25.9183 11.5664 25.3761 10.7916 25.5313 10.7916C27.9819 12.0638 29.4633 12.7971 30.0726 13.5126C30.3702 13.862 30.6014 14.2516 30.7594 14.6718C30.9193 15.0991 31.0008 15.5461 31 16.0027C31.002 16.7303 30.7905 17.4444 30.3879 18.0675C29.99 18.6841 29.4138 19.1993 28.7216 19.5583L24.5214 21.7481C24.4202 21.8004 24.307 21.8278 24.1924 21.8278Z"/>
<path d="M25.5313 10.7916L23.3932 9.68204C23.2936 9.63039 23.1804 9.60297 23.0665 9.60297C22.8848 9.60297 22.714 9.66929 22.5866 9.78917L17.0678 14.9773C16.9376 15.0991 16.865 15.2687 16.8691 15.4415C16.8724 15.6143 16.9524 15.7808 17.088 15.8975L18.5204 17.1358L23.7328 21.6589C23.8582 21.768 24.0216 21.8278 24.1924 21.8278C24.307 21.8278 24.4202 21.8004 24.5214 21.7481L28.7216 19.5583C29.4138 19.1993 29.99 18.6841 30.3879 18.0675C30.7905 17.4444 31.002 16.7303 31 16.0027C31.0008 15.5461 30.9193 15.0991 30.7594 14.6718C30.6014 14.2516 30.3702 13.862 30.0726 13.5126C29.4633 12.7971 27.9819 12.0638 25.5313 10.7916ZM25.5313 10.7916C25.858 10.9612 25.978 11.3502 25.797 11.6582M25.5313 10.7916C25.3761 10.7916 25.9183 11.5664 25.797 11.6582M25.797 11.6582C25.6777 11.8616 25.4507 11.9879 25.2032 11.9879C25.0893 11.9879 24.9761 11.9605 24.8764 11.9082M25.797 11.6582C25.6356 11.7794 24.8771 11.7137 24.8764 11.9082M24.8764 11.9082L23.1844 11.0307L18.5259 15.409L19.4383 16.1978L24.2921 20.409L28.064 18.4431C29.0646 17.9144 29.6408 17.0249 29.6442 16.0027C29.6435 15.3803 29.4253 14.7949 29.0138 14.309C28.3003 13.4666 25.3706 12.1594 24.8764 11.9082Z" stroke-width="2"/>
<path d="M17.5462 16.0657C17.376 16.0657 17.2127 16.0058 17.0873 15.8967L2.34491 3.11644C2.21001 2.99975 2.13002 2.83395 2.12663 2.66114C2.12256 2.48833 2.1951 2.31935 2.32457 2.19692C2.58557 1.95332 2.88181 1.7684 3.1367 1.61982L3.14213 1.61663C3.85325 1.21298 4.66063 1 5.4775 1H5.48089C6.25099 1 7.02312 1.19066 7.71594 1.55159C7.71594 1.55159 7.71593 1.55159 7.71661 1.55223L10.3448 2.91494C10.6723 3.0852 10.7916 3.47354 10.6113 3.78154C10.4919 3.98496 10.2642 4.11122 10.0167 4.11122C9.90353 4.11122 9.79032 4.0838 9.68999 4.03215L7.05905 2.66752C6.55943 2.40735 6.02796 2.27535 5.47953 2.27535C4.90874 2.27535 4.36506 2.41755 3.86206 2.69749L17.5279 14.5442L21.9478 10.3891L9.68999 4.03215C9.47509 3.92055 10.0167 4.11122 10.0167 4.11122C10.0161 4.00345 10.555 3.87655 10.6113 3.78154C10.736 3.59598 10.3448 2.91494 10.3448 2.91494L23.3924 9.68195C23.5782 9.77824 23.707 9.9536 23.7368 10.1513C23.766 10.3483 23.6948 10.5505 23.5443 10.6914L18.0255 15.8789C17.8974 15.9994 17.7271 16.0657 17.5462 16.0657Z" />
<path d="M10.3448 2.91494L7.71661 1.55223C7.71593 1.55159 7.71594 1.55159 7.71594 1.55159C7.02312 1.19066 6.25099 1 5.48089 1H5.4775C4.66063 1 3.85325 1.21298 3.14213 1.61663L3.1367 1.61982C2.88181 1.7684 2.58557 1.95332 2.32457 2.19692C2.1951 2.31935 2.12256 2.48833 2.12663 2.66114C2.13002 2.83395 2.21001 2.99975 2.34491 3.11644L17.0873 15.8967C17.2127 16.0058 17.376 16.0657 17.5462 16.0657C17.7271 16.0657 17.8974 15.9994 18.0255 15.8789L23.5443 10.6914C23.6948 10.5505 23.766 10.3483 23.7368 10.1513C23.707 9.9536 23.5782 9.77824 23.3924 9.68195L10.3448 2.91494ZM10.3448 2.91494C10.6723 3.0852 10.7916 3.47354 10.6113 3.78154M10.3448 2.91494C10.3448 2.91494 10.736 3.59598 10.6113 3.78154M10.6113 3.78154C10.4919 3.98496 10.2642 4.11122 10.0167 4.11122M10.6113 3.78154C10.555 3.87655 10.0161 4.00345 10.0167 4.11122M10.0167 4.11122C9.90353 4.11122 9.79032 4.0838 9.68999 4.03215M10.0167 4.11122C10.0167 4.11122 9.47509 3.92055 9.68999 4.03215M9.68999 4.03215L7.05905 2.66752C6.55943 2.40735 6.02796 2.27535 5.47953 2.27535C4.90874 2.27535 4.36506 2.41755 3.86206 2.69749L17.5279 14.5442L21.9478 10.3891L9.68999 4.03215Z" stroke-width="2"/>
<path d="M5.47814 31.0001H5.47542C4.6355 31.0001 3.82948 30.7891 3.1448 30.3899C2.83093 30.2197 2.54214 30.0117 2.28725 29.7726C2.15912 29.6521 2.08862 29.4921 2.08862 29.3211C2.08862 29.1509 2.15912 28.9908 2.28725 28.8704L4.98395 26.3356C5.11207 26.2157 5.28154 26.1494 5.46255 26.1494C5.64422 26.1494 5.81438 26.2157 5.9425 26.3362C6.07062 26.4568 6.14113 26.6168 6.14045 26.7871C6.14045 26.9573 6.06995 27.1174 5.94182 27.2378L3.78541 29.265C3.79965 29.2727 3.81389 29.281 3.8288 29.2886L3.85117 29.3014C4.32977 29.5819 4.87684 29.7241 5.47814 29.7248C6.05029 29.7248 6.59261 29.5934 7.04748 29.3447L7.06104 29.3371L23.0419 21.0588L18.5203 17.1358L17.5665 16.3113L9.58691 23.8117C9.58691 23.8123 9.58691 23.8123 9.58623 23.8123C9.45878 23.9328 9.28863 23.9992 9.10763 23.9992C8.92595 23.9992 8.7558 23.9328 8.62767 23.8123C8.61683 23.8021 8.60666 23.7919 8.59717 23.7811C8.58971 23.7734 8.58225 23.7651 8.5748 23.7568C8.36194 23.5031 8.38431 23.139 8.62835 22.91L17.0682 14.9774C17.1964 14.8562 17.3664 14.7899 17.5474 14.7899C17.7169 14.7899 17.8803 14.8499 18.0058 14.9589L19.4389 16.1979L24.6526 20.7216C24.8126 20.8599 24.8926 21.064 24.8662 21.2674C24.8396 21.4703 24.7102 21.65 24.5204 21.7489L7.71861 30.4524C7.05765 30.8108 6.28348 31.0001 5.47814 31.0001ZM7.23729 25.7566C7.05629 25.7566 6.88546 25.6903 6.75734 25.5697C6.62989 25.4492 6.55939 25.2892 6.55939 25.1189C6.55939 24.9487 6.62989 24.7885 6.75802 24.6681C6.88614 24.5476 7.05629 24.4812 7.23729 24.4812C7.41829 24.4812 7.58845 24.5482 7.71657 24.6687C7.8447 24.7885 7.9152 24.9492 7.9152 25.1195C7.9152 25.2897 7.8447 25.4498 7.71657 25.5703C7.58845 25.6909 7.41829 25.7566 7.23729 25.7566Z"  stroke-width="2"/>
</svg>
