<svg width="40" height="40" viewBox="0 0 40 40" fill="none" xmlns="http://www.w3.org/2000/svg">
<path d="M10.5424 21.304H14.927V39.3548C14.927 39.7112 15.2158 40 15.5722 40H23.0065C23.3629 40 23.6517 39.7112 23.6517 39.3548V21.389H28.6922C29.0199 21.389 29.2957 21.1431 29.3331 20.8175L30.0986 14.1721C30.1197 13.9893 30.0617 13.8062 29.9394 13.669C29.817 13.5317 29.6417 13.4532 29.4579 13.4532H23.6519V9.28748C23.6519 8.03174 24.3281 7.39497 25.6617 7.39497C25.8518 7.39497 29.4579 7.39497 29.4579 7.39497C29.8142 7.39497 30.103 7.10606 30.103 6.74981V0.649935C30.103 0.293548 29.8142 0.00477419 29.4579 0.00477419H24.2262C24.1893 0.00296774 24.1074 0 23.9866 0C23.0789 0 19.9237 0.178193 17.4313 2.4711C14.6697 5.012 15.0536 8.05432 15.1453 8.58181V13.453H10.5424C10.186 13.453 9.89722 13.7418 9.89722 14.0982V20.6587C9.89722 21.0151 10.186 21.304 10.5424 21.304Z" fill="url(#paint0_linear_391_667)"/>
<defs>
<linearGradient id="paint0_linear_391_667" x1="20.0001" y1="0" x2="20.0001" y2="40" gradientUnits="userSpaceOnUse">
<stop stop-color="#6546DA"/>
<stop offset="1" stop-color="#59B5EE"/>
</linearGradient>
</defs>
</svg>
