<svg width="40" height="40" viewBox="0 0 40 40" fill="none" xmlns="http://www.w3.org/2000/svg">
<g clip-path="url(#clip0_391_661)">
<path fill-rule="evenodd" clip-rule="evenodd" d="M34.4257 23.0749C35.7526 24.3703 37.153 25.5891 38.343 27.0152C38.8687 27.6489 39.3664 28.3029 39.7472 29.0383C40.2867 30.0838 39.798 31.2343 38.8606 31.2967L33.0333 31.2941C31.5303 31.4188 30.3313 30.8137 29.3232 29.7861C28.5164 28.9643 27.7692 28.0897 26.9935 27.2402C26.6754 26.893 26.3425 26.5662 25.9448 26.308C25.1493 25.7916 24.4588 25.9497 24.0042 26.7794C23.5412 27.6233 23.4362 28.5577 23.3907 29.4982C23.3283 30.8704 22.9135 31.2311 21.5352 31.2939C18.5895 31.4329 15.7938 30.9872 13.1968 29.5012C10.9071 28.1912 9.13157 26.3418 7.58617 24.2481C4.57723 20.1712 2.27298 15.6914 0.202014 11.086C-0.264145 10.0484 0.0767671 9.49147 1.2216 9.47176C3.12263 9.43483 5.02341 9.43746 6.92668 9.46913C7.69932 9.48043 8.21082 9.92359 8.50915 10.6535C9.53767 13.1825 10.7962 15.5886 12.3759 17.8188C12.7966 18.4126 13.2255 19.0064 13.8364 19.4243C14.5122 19.8871 15.0267 19.7337 15.3446 18.9809C15.5463 18.5036 15.6347 17.9894 15.6801 17.4782C15.8307 15.7194 15.8506 13.9635 15.5864 12.2109C15.4243 11.117 14.8081 10.4089 13.7167 10.2019C13.1597 10.0964 13.2426 9.88916 13.5123 9.57125C13.9807 9.02295 14.4212 8.68164 15.2994 8.68164H21.8852C22.922 8.88627 23.1522 9.35203 23.2941 10.3953L23.2998 17.7107C23.2885 18.1145 23.5015 19.313 24.229 19.5803C24.8112 19.7706 25.1949 19.3048 25.5442 18.9357C27.1211 17.2621 28.2464 15.2843 29.2518 13.2364C29.698 12.3359 30.0816 11.4007 30.4534 10.4662C30.7289 9.77285 31.1612 9.43167 31.9422 9.44679L38.2806 9.45244C38.4686 9.45244 38.6587 9.4552 38.8407 9.48635C39.9088 9.66837 40.2015 10.1278 39.8716 11.1708C39.3518 12.8071 38.3405 14.1708 37.3517 15.5408C36.2947 17.0034 35.1642 18.4159 34.1159 19.8872C33.1529 21.2307 33.2294 21.908 34.4257 23.0749Z" fill="url(#paint0_linear_391_661)"/>
</g>
<defs>
<linearGradient id="paint0_linear_391_661" x1="20" y1="8.68164" x2="20" y2="31.318" gradientUnits="userSpaceOnUse">
<stop stop-color="#6546DA"/>
<stop offset="1" stop-color="#59B5EE"/>
</linearGradient>
<clipPath id="clip0_391_661">
<rect width="40" height="40" fill="white"/>
</clipPath>
</defs>
</svg>
