<svg width="266" height="30" viewBox="0 0 266 30" fill="none" xmlns="http://www.w3.org/2000/svg">
<path d="M29.244 18.583H20.7976C20.7609 19.2574 20.5882 19.9174 20.2898 20.5233C19.9914 21.1293 19.5735 21.6687 19.0612 22.1092C18.545 22.5531 17.9455 22.8898 17.2978 23.0998C16.65 23.3098 15.9669 23.3888 15.2883 23.3322C11.2313 23.3322 8.9569 20.3645 8.9569 15.1238V14.8053C8.9569 9.523 11.3583 6.59685 15.1728 6.59685C15.8098 6.54605 16.4504 6.62745 17.0544 6.83594C17.6584 7.04444 18.2127 7.37552 18.6825 7.80839C19.6292 8.683 20.1557 9.90839 20.1418 11.1868H28.8769C28.1726 3.50916 22.8318 0.0176174 15.1335 0.0176174C13.1356 -0.080875 11.1388 0.234396 9.26844 0.943647C7.39813 1.6529 5.69467 2.74082 4.26495 4.13916C2.8454 5.52638 1.73326 7.19617 1.00058 9.04034C0.267889 10.8845 -0.069003 12.8619 0.0117231 14.8445V15.1676C0.0117231 24.0707 5.10544 30.0015 15.4591 30.0015C23.1182 30.0015 28.6668 26.0922 29.244 18.583ZM45.5157 29.5122V18.0661H55.246V29.5122H63.7247V0.463002H55.246V11.5561H45.5134V0.463002H36.9839V29.503L45.5157 29.5122ZM99.4084 17.6092V0.463002H90.8373V17.2445C90.8373 21.5922 89.7082 23.4592 86.2008 23.4592C82.5987 23.4592 81.562 21.4699 81.562 17.3645V0.463002H73.0855V17.7292C73.0786 25.8568 77.8352 30.0015 86.2031 30.0015C94.3609 30.0015 99.4108 26.0576 99.4108 17.6092H99.4084ZM128.442 29.5122V23.053H117.262V0.460694H108.732V29.503L128.442 29.5122ZM148.787 7.20839L152.02 18.3776H145.52L148.787 7.20839ZM134.376 29.5145H142.289L143.862 24.1122H153.675L155.248 29.5122H164.232L154.834 0.479156H143.862L134.376 29.5168V29.5145ZM179.499 29.5145V17.3668L188.029 29.5145H197.84L186.431 13.9515L197.277 0.463002H188.408L179.504 11.9622V0.463002H170.979V29.503L179.499 29.5145ZM232.57 14.9715V14.6461C232.57 5.623 225.918 0.0568482 216.887 0.0568482C214.861 -0.0651179 212.831 0.228839 210.923 0.920606C209.015 1.61237 207.269 2.6873 205.792 4.07916C204.326 5.46124 203.165 7.13321 202.381 8.98862C201.597 10.844 201.208 12.8423 201.239 14.8561V15.1792C201.243 23.9045 207.203 30.0015 216.769 30.0015C226.324 30.0038 232.57 23.9092 232.57 14.9715ZM210.089 15.133V14.8053C210.089 9.523 212.696 6.55993 216.871 6.55993C221.043 6.55993 223.706 9.60608 223.706 14.7684V15.0915C223.731 20.2907 221.117 23.4592 216.933 23.4592C212.823 23.4592 210.089 20.413 210.089 15.133ZM246.595 29.5145H256.224L265.926 0.476848H257.979L251.927 20.8584L245.923 0.476848H236.796L246.595 29.5145Z" fill="#26282B"/>
</svg>
