<svg width="212" height="50" viewBox="0 0 212 50" fill="none" xmlns="http://www.w3.org/2000/svg">
<path d="M62.4681 19.804C62.8371 14.09 57.0521 8.81 57.0521 8.81C49.7349 18.0135 43.5131 28.0368 38.5121 38.678C38.4816 38.7247 38.4653 38.7792 38.4653 38.835C38.4653 38.8908 38.4816 38.9453 38.5121 38.992C38.5567 39.0206 38.6086 39.0358 38.6616 39.0358C38.7146 39.0358 38.7665 39.0206 38.8111 38.992C41.7431 37.545 53.9211 31.315 59.0571 26.45C61.0218 24.768 62.2475 22.381 62.4681 19.804ZM48.7931 6.918C48.2914 5.37232 47.4034 3.98034 46.2131 2.874C45.0302 1.77493 43.5829 1.00082 42.0121 0.627C42.0121 0.627 40.4461 0.233 38.7811 0C38.7811 0 32.7071 7.778 35.6591 37.14C35.658 37.1909 35.6742 37.2407 35.7051 37.2812C35.736 37.3217 35.7797 37.3506 35.8291 37.363C35.8826 37.3787 35.9399 37.3764 35.9921 37.3566C36.0442 37.3367 36.0885 37.3003 36.1181 37.253C38.0631 34.45 46.9591 21.352 48.7641 13.392C48.7641 13.392 49.7411 9.528 48.7931 6.918ZM40.4561 43.17C40.4301 43.2225 40.4228 43.2822 40.4356 43.3394C40.4483 43.3965 40.4803 43.4476 40.5261 43.484C42.5211 44.88 48.4461 49.016 51.3071 49.826C51.3071 49.826 56.6131 51.616 61.2211 43.756L40.6761 43.049C40.6326 43.0511 40.5902 43.0631 40.5521 43.0841C40.514 43.105 40.4811 43.1344 40.4561 43.17ZM66.6861 25.712C66.6861 25.712 49.2431 35.027 40.2271 41.065C40.1768 41.0929 40.1381 41.1379 40.1179 41.1917C40.0978 41.2456 40.0975 41.3049 40.1171 41.359C40.1324 41.4035 40.1605 41.4424 40.1979 41.4711C40.2352 41.4997 40.2801 41.5167 40.3271 41.52H56.0951C57.3053 41.4264 58.4949 41.1538 59.6251 40.711C62.4915 39.615 64.8216 37.4508 66.1261 34.673C67.4424 31.8793 67.6427 28.6884 66.6861 25.752V25.712ZM27.5611 41.065C18.5851 34.997 1.09107 25.711 1.09107 25.711C0.139493 28.6481 0.3426 31.8374 1.65907 34.63C2.96316 37.4059 5.29005 39.5702 8.15307 40.67C9.28707 41.115 10.4801 41.387 11.6931 41.48C11.9931 41.54 24.2201 41.48 27.4511 41.48C27.4988 41.479 27.545 41.4628 27.5828 41.4336C27.6206 41.4044 27.648 41.3639 27.6611 41.318C27.671 41.2707 27.6668 41.2215 27.649 41.1765C27.6313 41.1315 27.6007 41.0928 27.5611 41.065ZM27.1021 43.038L6.55707 43.746C11.1651 51.615 16.4701 49.815 16.4701 49.815C19.3431 49.005 25.2971 44.868 27.2621 43.473C27.305 43.4344 27.3342 43.3828 27.345 43.3261C27.3558 43.2694 27.3478 43.2107 27.3221 43.159C27.2979 43.1225 27.2653 43.0924 27.227 43.0714C27.1887 43.0503 27.1458 43.0388 27.1021 43.038ZM25.7661 0.628C24.1961 1.00428 22.7499 1.77926 21.5671 2.878C20.3773 3.98373 19.4884 5.37401 18.9841 6.918C17.9861 9.528 18.9841 13.392 18.9841 13.392C20.7891 21.352 29.6851 34.45 31.6401 37.252C31.67 37.2992 31.7144 37.3355 31.7667 37.3555C31.8189 37.3755 31.8762 37.3782 31.9301 37.363C31.9787 37.3496 32.0215 37.3207 32.0521 37.2806C32.0826 37.2404 32.0991 37.1914 32.0991 37.141C35.0811 7.778 28.9971 0 28.9971 0C27.9108 0.157904 26.8326 0.367138 25.7661 0.627V0.628ZM10.7261 8.81C10.7261 8.81 4.94107 14.09 5.31007 19.804C5.4132 21.0863 5.76509 22.3362 6.34607 23.484C6.92408 24.6265 7.72082 25.6445 8.69107 26.48C13.8181 31.345 26.0051 37.606 28.9271 39.022C28.9737 39.0508 29.0273 39.066 29.0821 39.066C29.1368 39.066 29.1905 39.0508 29.2371 39.022C29.2688 38.976 29.2857 38.9214 29.2857 38.8655C29.2857 38.8096 29.2688 38.755 29.2371 38.709C24.2473 28.0581 18.0352 18.024 10.7261 8.809V8.81ZM93.7241 28.887H83.5031V20.796H78.9831V40.863H83.5011V32.711H93.7231V40.863H98.2411V20.786H93.7231L93.7241 28.887ZM119.186 32.276C119.186 35.543 117.391 37.282 114.12 37.282C110.849 37.282 109.014 35.492 109.014 32.144V20.796H104.526V32.276C104.526 37.93 108.006 41.166 114.09 41.166C120.174 41.166 123.744 37.869 123.744 32.063V20.786H119.186V32.276ZM171.517 34.592L166.45 20.775H162.76L157.694 34.592L152.767 20.796H147.95L155.729 40.863H159.469L164.546 27.714L169.612 40.864H173.392L181.151 20.796H176.454L171.517 34.592ZM211.5 20.786H207.032V40.843H211.5V20.786ZM142.893 36.676L144.888 40.853H149.625L139.841 20.786H135.852L126.028 40.853H130.646L132.641 36.676H142.893ZM137.777 25.863L141.208 33.055H134.366L137.777 25.863ZM182.119 30.769C182.119 34.562 183.315 37.293 185.769 39.002C188.222 40.712 190.307 40.842 193.189 40.842H201.377C201.445 40.841 201.509 40.8143 201.557 40.7672C201.606 40.7202 201.634 40.6564 201.637 40.589V37.424C201.635 37.3559 201.606 37.2914 201.557 37.244C201.509 37.1971 201.444 37.171 201.377 37.171H193.399C189.559 37.171 187.853 35.856 187.744 32.306C187.743 32.2719 187.749 32.2379 187.761 32.2062C187.774 32.1745 187.793 32.1458 187.817 32.122C187.842 32.0981 187.871 32.0797 187.903 32.0678C187.935 32.0559 187.969 32.0509 188.003 32.053H201.357C201.425 32.052 201.489 32.0253 201.537 31.9782C201.586 31.9312 201.614 31.8674 201.617 31.8V28.685C201.615 28.6169 201.586 28.5524 201.537 28.505C201.489 28.4581 201.424 28.4318 201.357 28.432H188.073C188.038 28.4335 188.004 28.4277 187.972 28.415C187.939 28.4022 187.91 28.3828 187.886 28.358C187.862 28.333 187.843 28.3034 187.83 28.271C187.818 28.2384 187.812 28.2038 187.813 28.169C188.103 25.074 189.908 23.587 193.419 23.587H201.397C201.464 23.587 201.529 23.5609 201.577 23.514C201.626 23.4666 201.655 23.4021 201.657 23.334V20.23C201.654 20.1626 201.626 20.0988 201.577 20.0518C201.529 20.0047 201.465 19.978 201.397 19.977H193.339C185.669 19.947 182.119 23.386 182.119 30.77V30.769Z" fill="#26282B"/>
</svg>
