<svg width="140" height="30" viewBox="0 0 140 30" fill="none" xmlns="http://www.w3.org/2000/svg">
<path d="M111.182 25.6697H140V29.398H111.182V25.6697ZM111.182 13.1753H140V16.9037H111.182V13.1753ZM111.182 0.684725H140V4.41309H111.182V0.684725ZM49.4708 30C41.1001 30 34.3154 23.2844 34.3154 15C34.3154 6.71558 41.1014 0 49.4708 0C57.8414 0 64.6262 6.71558 64.6262 15C64.6186 23.2807 57.8377 29.9912 49.4708 30ZM49.4708 3.72837C43.1726 3.72837 38.0673 8.78229 38.0673 15.015C38.0673 21.2478 43.1726 26.3017 49.4708 26.3017C55.769 26.3017 60.8743 21.2478 60.8743 15.015C60.876 13.5308 60.5822 12.0608 60.0099 10.6895C59.4376 9.31818 58.5981 8.07254 57.5394 7.02408C55.3979 4.90345 52.496 3.71273 49.4708 3.71332V3.72837ZM97.7815 4.2626V25.6057H76.2167V4.2626H97.7815ZM101.549 0.534236H72.4497V29.3341H101.549V0.534236ZM0 0.613243H3.76705V29.3868H0V0.613243ZM25.0854 29.2588L10.7426 15.064L25.2143 0.741159L27.8757 3.37472L16.069 15.064L27.7455 26.6253L25.0854 29.2588Z" fill="#26282B"/>
</svg>
