<svg width="252" height="50" viewBox="0 0 252 50" fill="none" xmlns="http://www.w3.org/2000/svg">
<path fill-rule="evenodd" clip-rule="evenodd" d="M24.6871 0.198029C24.3591 0.363029 24.2971 0.504029 24.2971 1.08803C24.2971 1.70203 24.3511 1.80803 24.7651 2.01803C25.7261 2.50603 25.8161 2.59203 25.8161 3.01803C25.8161 3.25203 25.7201 3.50503 25.6021 3.57903C25.2581 3.79603 24.6571 3.74003 24.3491 3.46303C24.0891 3.22803 24.0641 3.22803 24.0641 3.45703C24.0641 4.11403 25.5551 4.16503 26.0061 3.52403C26.5431 2.76003 26.2681 2.20303 25.0141 1.51703C24.5141 1.24303 24.3911 0.819029 24.7181 0.494029C24.9581 0.256029 25.5051 0.254029 25.7431 0.491029C25.8451 0.592029 25.9821 0.621029 26.0471 0.556029C26.1941 0.410029 25.6531 -0.00397122 25.3191 2.87837e-05C25.1851 0.00102878 24.9011 0.0900288 24.6871 0.198029ZM21.0521 0.421029C20.6061 0.468029 20.4771 0.541029 20.5431 0.711029C20.5911 0.836029 20.7161 1.70603 20.8211 2.64403C20.9771 4.03803 21.0561 4.34103 21.2531 4.30203C21.4941 4.25403 21.5051 4.07503 21.3271 2.98203C21.2101 2.25803 21.5171 2.33303 22.4281 3.25403C22.8501 3.68003 23.3361 4.02903 23.5081 4.02903C23.7551 4.02903 23.6461 3.85503 22.9781 3.18203L22.1381 2.33503L22.5561 2.00803C23.0771 1.59903 23.1441 0.720029 22.6721 0.468029C22.3721 0.308029 22.1951 0.304029 21.0521 0.421029ZM29.4521 0.781029C29.4051 0.990029 29.2041 1.84103 29.0051 2.67303C28.7491 3.74303 28.6971 4.18403 28.8281 4.18403C28.9341 4.18403 29.0981 3.73403 29.2091 3.13803C29.5521 1.30403 29.5191 1.30503 30.5831 3.09803C31.1101 3.98503 31.5411 4.76703 31.5411 4.83503C31.5411 4.90403 31.6111 4.96003 31.6971 4.96003C31.7821 4.96003 31.8531 4.83803 31.8531 4.68803C31.8531 4.53903 32.0231 3.71903 32.2321 2.86603C32.4401 2.01403 32.5521 1.25603 32.4811 1.18403C32.3331 1.03403 32.2611 1.24103 32.0021 2.55603C31.9021 3.06803 31.7701 3.57503 31.7121 3.68303C31.6441 3.80503 31.2691 3.30703 30.7171 2.36503C29.4691 0.233029 29.5521 0.337029 29.4521 0.780029V0.781029ZM22.2651 0.826029C22.7011 1.14303 22.4761 1.78403 21.8551 2.00003C21.2701 2.20303 21.1101 2.05203 21.1061 1.29003C21.1031 0.635029 21.6821 0.403029 22.2651 0.826029ZM17.4591 2.59503C17.3997 3.2677 17.3334 3.93973 17.2601 4.61103C17.1991 5.15003 17.2251 5.42503 17.3371 5.42503C17.4311 5.42503 17.5271 5.06503 17.5531 4.61103C17.6001 3.80303 17.6061 3.79503 18.2701 3.56603L18.9401 3.33603L19.4511 3.94203C19.8201 4.37903 20.0381 4.51903 20.2331 4.44403C20.4561 4.35903 20.2611 4.07703 19.1381 2.86703C18.3861 2.05703 17.7251 1.39303 17.6681 1.39303C17.6121 1.39303 17.5181 1.93403 17.4591 2.59503ZM18.2781 2.63503L18.6241 3.10203L18.2191 3.25603C17.6611 3.46703 17.6781 3.48203 17.6781 2.78903C17.6781 2.04703 17.8141 2.01203 18.2781 2.63503ZM34.1951 2.52203C33.2391 3.00403 32.8291 4.37703 33.3691 5.28803C33.6591 5.77603 34.6891 6.35503 35.2671 6.35503C36.2181 6.35503 37.3061 5.26003 37.3061 4.30303C37.3061 3.01203 35.3951 1.91803 34.1951 2.52203ZM36.2671 2.95103C36.8401 3.40103 36.9441 4.14503 36.5421 4.92903C35.9241 6.13703 34.8531 6.41903 34.0221 5.59203C33.3221 4.89403 33.5001 3.63203 34.4021 2.90903C34.8601 2.54003 35.7691 2.56103 36.2661 2.95103H36.2671ZM11.9141 3.93803C11.9141 4.03603 12.3131 6.64503 12.4701 7.57803C12.5211 7.87903 12.6171 8.04403 12.6961 7.96503C12.7761 7.88603 12.7681 7.54203 12.6811 7.15203C12.5101 6.39703 12.6181 6.17203 13.3241 5.80803C13.7131 5.60803 13.7891 5.62503 14.3401 6.03503C14.8781 6.43403 15.3411 6.51303 15.3411 6.20503C15.3411 6.14003 14.7631 5.71303 14.0561 5.25503C13.4832 4.88401 12.9122 4.51 12.3431 4.13303C12.1071 3.97303 11.9141 3.88603 11.9141 3.93803ZM37.7201 5.84803L36.6551 7.34103L37.0191 7.62103C37.2191 7.77303 37.6261 8.01503 37.9211 8.15703C38.3891 8.38203 38.5091 8.38703 38.8411 8.19903C39.4411 7.85903 39.5871 7.52503 39.3751 6.96603C39.2151 6.54503 39.2241 6.49603 39.4391 6.57803C39.8121 6.72103 40.4211 6.25103 40.4211 5.82103C40.4211 5.44803 39.3061 4.33103 38.9521 4.34803C38.8611 4.35303 38.3061 5.02803 37.7201 5.84803ZM13.2781 5.38803C13.3261 5.53103 12.5781 5.98903 12.4821 5.87803C12.4511 5.84203 12.3841 5.54603 12.3341 5.22103L12.2421 4.62903L12.7371 4.94203C13.0101 5.11303 13.2531 5.31403 13.2781 5.38803ZM39.5941 5.14203C40.0421 5.56103 40.0551 5.98003 39.6281 6.20803C39.2791 6.39403 38.3961 6.14803 38.3961 5.86503C38.3961 5.70203 39.0381 4.80503 39.1561 4.80503C39.1981 4.80503 39.3961 4.95603 39.5941 5.14203ZM9.26613 5.84703C9.26613 5.90903 9.70413 6.40603 10.2391 6.95103L11.2131 7.94303L9.21313 7.84403C7.96413 7.78203 7.23313 7.80003 7.26613 7.89303C7.38813 8.23403 9.77913 10.533 9.92113 10.445C10.0061 10.392 9.63113 9.89703 9.08713 9.34403L8.09713 8.33803L10.0841 8.40803C11.1761 8.44703 12.0701 8.43603 12.0701 8.38303C12.0701 8.24703 9.51713 5.73503 9.38013 5.73503C9.36529 5.7349 9.35057 5.73769 9.33681 5.74325C9.32305 5.7488 9.31052 5.75702 9.29993 5.76742C9.28935 5.77782 9.28091 5.7902 9.27511 5.80386C9.26931 5.81752 9.26626 5.83219 9.26613 5.84703ZM38.9591 7.34603C38.8351 7.83703 38.2191 8.03003 37.6821 7.74503C37.2051 7.49003 37.2091 7.39103 37.7331 6.65903L38.1621 6.05903L38.6111 6.50203C38.9621 6.84903 39.0381 7.03203 38.9591 7.34603ZM95.6361 6.59603C94.7021 7.05503 94.6311 7.36603 94.6311 11.008V14.295L95.1611 14.822C95.6311 15.291 95.7821 15.349 96.5241 15.347C97.8901 15.343 98.5641 14.792 98.7461 13.527L98.8411 12.868H98.2281C97.6731 12.868 97.6061 12.912 97.5121 13.338C97.4551 13.598 97.2391 13.919 97.0321 14.054C96.6881 14.278 96.6221 14.278 96.2671 14.045L95.8771 13.791V10.88C95.8771 7.75403 95.9151 7.59603 96.6681 7.59603C97.1651 7.59603 97.3981 7.84103 97.5311 8.50203C97.6181 8.93503 97.6911 8.99203 98.1551 8.99203C98.6671 8.99203 98.6811 8.97403 98.6811 8.35603C98.6811 7.54703 98.3111 6.92403 97.6411 6.60603C96.9851 6.29503 96.2561 6.29103 95.6361 6.59603ZM58.1791 10.939V15.368L58.7631 15.32L59.3471 15.272L59.3891 11.434L59.4311 7.59603H60.9781L61.0191 11.434L61.0611 15.272L61.6451 15.32L62.2291 15.368V6.51003H58.1791V10.939ZM86.8421 6.90903C86.8421 7.50103 87.0901 7.85303 87.6401 8.04503C88.6611 8.39903 89.6461 7.79503 89.6461 6.81303C89.6461 6.34203 88.7511 6.38503 88.6831 6.85903C88.6081 7.38503 87.9761 7.42003 87.7811 6.90903C87.5631 6.33903 86.8421 6.33903 86.8421 6.90903ZM123.45 10.929V15.349H124.696V7.59603H126.41V15.368L126.994 15.32L127.578 15.272L127.619 10.891L127.661 6.51103H123.45V10.93V10.929ZM150.757 6.80603C150.655 6.96803 150.187 7.27603 149.718 7.49003C148.445 8.07003 148.314 8.40303 148.245 11.233C148.179 13.955 148.315 14.603 149.045 15.046C149.608 15.388 150.499 15.439 151.105 15.164C151.79 14.854 152.014 14.208 152.085 12.342C152.167 10.182 151.987 9.51803 151.235 9.20503C150.619 8.94903 150.173 9.03303 149.659 9.50103C149.317 9.81303 149.309 9.81303 149.309 9.51803C149.309 8.98403 149.755 8.55803 150.594 8.29103C151.546 7.98803 151.957 7.58603 151.957 6.95803C151.957 6.55603 151.905 6.51003 151.449 6.51003C151.119 6.51003 150.877 6.61403 150.757 6.80603ZM183.173 7.00403C183.37 7.98503 184.233 8.40203 185.218 7.99303C185.604 7.83203 185.784 7.63403 185.886 7.25803C186.056 6.63403 186.001 6.51003 185.555 6.51003C185.447 6.51433 185.343 6.54964 185.255 6.61172C185.167 6.67381 185.098 6.76003 185.058 6.86003C184.972 7.05403 184.766 7.20803 184.593 7.20803C184.419 7.20803 184.213 7.05403 184.127 6.85903C184.019 6.61303 183.841 6.51003 183.524 6.51003C183.101 6.51003 183.08 6.54003 183.173 7.00403ZM40.5951 8.02003C39.7271 8.95803 39.3921 9.42403 39.5071 9.53203C39.6201 9.64003 40.0771 9.25803 40.9711 8.30303C42.1441 7.05303 42.3831 6.66503 41.9811 6.66503C41.9081 6.66503 41.2841 7.27503 40.5951 8.02003ZM41.8221 9.08003C41.0941 9.71503 40.4811 10.287 40.4601 10.35C40.4051 10.513 41.6171 11.878 41.7241 11.774C41.7741 11.727 41.6021 11.433 41.3441 11.121L40.8741 10.553L41.4971 9.99303C41.8391 9.68603 42.4311 9.18303 42.8121 8.87503C43.2041 8.55903 43.4701 8.22703 43.4261 8.11103C43.3821 7.99803 43.3021 7.91103 43.2461 7.91503C43.1921 7.92003 42.5511 8.44503 41.8221 9.08003ZM25.8921 8.22103C25.7411 8.31403 25.2501 8.38003 24.8021 8.36803C24.3448 8.3567 23.8875 8.34803 23.4301 8.34203C23.0881 8.33903 22.5441 8.52203 22.0151 8.81903C21.5431 9.08403 21.0521 9.30203 20.9251 9.30203C20.7971 9.30203 20.4051 9.54703 20.0531 9.84703C19.3101 10.48 18.9681 11.286 19.2331 11.778C19.4161 12.12 19.2011 13.075 18.3331 15.782C17.8831 17.184 17.9331 17.515 18.6261 17.679C18.9211 17.749 18.9911 17.854 18.9531 18.172C18.9261 18.394 18.9821 18.623 19.0761 18.682C19.1701 18.739 19.2081 18.911 19.1591 19.062C19.1379 19.1439 19.1394 19.23 19.1635 19.3111C19.1877 19.3922 19.2335 19.4651 19.2961 19.522C19.4501 19.649 19.4841 19.838 19.4061 20.125C19.3451 20.355 19.3211 20.667 19.3541 20.817C19.4491 21.25 20.3071 21.592 21.4921 21.672C22.1281 21.715 22.6921 21.839 22.8431 21.971C23.0891 22.184 24.5551 24.691 25.3181 26.204C25.5121 26.587 25.6981 26.82 25.7331 26.72C25.8261 26.448 23.7721 22.541 23.1581 21.823C22.9461 21.576 22.9681 21.537 23.4171 21.382C23.6871 21.288 23.9081 21.141 23.9081 21.055C23.9081 20.968 23.7861 20.946 23.6351 21.005C22.4081 21.491 20.4751 21.46 19.8361 20.945C19.5161 20.687 19.5061 20.629 19.7011 20.158C19.8881 19.708 19.8831 19.628 19.6511 19.459C19.2711 19.182 19.3301 19.071 19.8581 19.071C20.4881 19.071 20.4481 18.825 19.7801 18.584C19.4801 18.477 19.2361 18.35 19.2371 18.303C19.2421 18.125 19.4791 17.881 19.7411 17.785C20.0371 17.676 20.1071 17.285 19.8581 17.132C19.7721 17.08 19.7021 17.152 19.7021 17.292C19.7021 17.506 19.5951 17.53 19.0401 17.438C18.6761 17.378 18.3461 17.301 18.3081 17.265C18.2701 17.229 18.3131 16.941 18.4051 16.623L19.2371 13.762L19.9021 11.476L20.5421 12.016C20.8941 12.313 21.4271 12.789 21.7271 13.073C22.0271 13.358 22.5351 13.781 22.8571 14.013C23.1771 14.245 23.4411 14.54 23.4411 14.668C23.4411 14.797 23.6841 15.16 23.9821 15.475C24.2811 15.789 24.6721 16.239 24.8511 16.473C25.0301 16.708 25.2811 16.9 25.4101 16.9C25.5721 16.9 25.6121 16.994 25.5441 17.21C25.4291 17.57 25.7401 17.643 25.8771 17.287C25.9931 16.987 26.1871 16.991 26.3041 17.296C26.3551 17.428 26.2811 17.712 26.1401 17.926C25.9451 18.222 25.7951 18.294 25.5191 18.226C25.0791 18.116 25.0261 18.389 25.4591 18.526C25.8201 18.64 26.3251 18.404 26.4581 18.061C26.5381 17.851 26.6141 17.864 27.0171 18.16C27.2721 18.348 27.6931 18.502 27.9501 18.502C28.3501 18.502 28.4441 18.582 28.5961 19.058C28.6931 19.363 28.9851 19.948 29.2441 20.358L29.7141 21.103L29.3111 21.522C29.0891 21.752 28.4421 22.916 27.8731 24.107C27.3051 25.297 26.7061 26.459 26.5431 26.688C26.1471 27.241 26.1651 27.408 26.5801 27.042C26.7641 26.879 27.4301 25.675 28.0601 24.365C28.7401 22.952 29.3981 21.805 29.6801 21.545L30.1521 21.105L29.6221 20.359C29.2061 19.773 28.7371 18.799 28.7371 18.521C28.7371 18.371 30.1641 18.395 30.6051 18.552C31.5751 18.898 31.8131 18.819 32.8611 17.811C33.9571 16.756 34.3171 15.943 34.0981 15.016C34.0311 14.73 33.9931 14.376 34.0141 14.229C34.0781 13.777 33.4741 12.624 33.0021 12.295C32.7551 12.123 32.3701 11.939 32.1451 11.885C31.8581 11.815 31.7111 11.657 31.6491 11.353C31.5331 10.772 29.6471 9.16303 28.3481 8.53703C27.5731 8.16303 26.2631 7.99503 25.8921 8.22103ZM27.9201 8.66903C28.1301 8.79103 28.0081 8.82803 27.3871 8.83203C26.4941 8.83703 26.0891 8.73003 26.0891 8.48803C26.0891 8.29503 27.5191 8.43603 27.9201 8.66903ZM23.9861 8.68103C23.9331 8.76703 23.7331 8.83603 23.5411 8.83603C23.3481 8.83603 23.1191 8.90803 23.0311 8.99603C22.9421 9.08503 22.7381 9.10603 22.5761 9.04503C22.3181 8.94503 22.3381 8.90903 22.7451 8.73603C23.3041 8.49903 24.1231 8.46303 23.9861 8.68103ZM26.5501 9.22103C27.6561 9.88903 28.8161 11.105 29.2241 12.024C29.5411 12.738 29.9821 14.562 29.9721 15.117C29.9691 15.287 29.8321 14.917 29.6681 14.295C29.5041 13.673 29.1521 12.756 28.8861 12.258C28.3611 11.278 27.0211 9.85603 25.9401 9.13403C24.9911 8.50003 25.4701 8.56803 26.5501 9.22103ZM6.06313 9.00403C6.00613 9.09703 6.01913 9.22703 6.09313 9.29303C8.08613 11.076 8.84013 11.647 8.99613 11.491C9.10613 11.381 9.11613 11.266 9.02313 11.183C8.14713 10.39 6.30713 8.83503 6.24613 8.83503C6.20313 8.83503 6.12113 8.91103 6.06313 9.00403ZM25.1411 9.05603C25.1051 9.09103 24.7851 9.22003 24.4301 9.34203C23.9731 9.49903 23.7021 9.51703 23.5031 9.40703C23.2341 9.25703 23.2351 9.24403 23.5251 9.13103C23.8431 9.00703 25.2551 8.94103 25.1411 9.05603ZM64.6041 9.19603C63.8361 9.62003 63.7091 10.02 63.7091 12.014C63.7091 13.187 63.7841 14.05 63.9101 14.349C64.2961 15.257 65.5961 15.628 66.5941 15.114C67.0791 14.864 67.2651 14.597 67.4291 13.914C67.5281 13.503 67.5091 13.487 66.9111 13.487C66.4501 13.487 66.2481 13.567 66.1241 13.797C65.9041 14.207 65.2511 14.203 65.0291 13.79C64.9351 13.615 64.8801 13.284 64.9071 13.053C64.9551 12.64 64.9731 12.633 66.2411 12.59L67.5261 12.544V11.527C67.5261 10.324 67.2031 9.53803 66.5781 9.21703C66.0441 8.94203 65.0811 8.93203 64.6041 9.19603ZM68.7721 13.41V17.83H70.0181V14.865L70.3641 15.107C70.8901 15.473 71.7691 15.417 72.1721 14.989C72.4901 14.652 72.5111 14.481 72.5111 12.219C72.5111 10.014 72.4831 9.77303 72.1881 9.39903C71.8081 8.91903 70.9281 8.83903 70.3641 9.23203C70.0511 9.45003 70.0181 9.45003 70.0181 9.23203C70.0181 9.05403 69.8551 8.99003 69.3951 8.99003H68.7721V13.41ZM73.9821 9.19003C73.9401 9.29803 73.9251 10.711 73.9481 12.33L73.9911 15.27L75.3421 15.257C76.9481 15.241 77.4051 15.018 77.6431 14.138C77.8291 13.451 77.6461 12.623 77.2431 12.331C77.0001 12.153 77.0061 12.114 77.3161 11.805C77.5491 11.574 77.6511 11.28 77.6511 10.844C77.6511 9.91903 77.2951 9.34603 76.5991 9.15403C75.7561 8.92003 74.0771 8.94503 73.9821 9.19003ZM79.0531 12.16V15.348H80.0271C82.0771 15.346 82.6671 14.931 82.7631 13.422C82.8211 12.522 82.7901 12.405 82.3801 11.953C82.0241 11.56 81.7721 11.443 81.1241 11.368L80.3121 11.275L80.2671 10.171L80.2221 9.06803L79.6371 9.02003L79.0531 8.97203V12.16ZM83.5711 12.17V15.348H84.8171V8.99103H83.5711V12.17ZM86.2191 12.17V15.348H86.8421C87.4131 15.348 87.4651 15.314 87.4651 14.935C87.4651 14.708 87.7981 13.931 88.2051 13.209L88.9451 11.895L88.9891 13.622L89.0331 15.348H90.2691V8.99103H89.6461C89.0751 8.99103 89.0231 9.02603 89.0231 9.40503C89.0231 9.63203 88.6901 10.409 88.2831 11.131L87.5431 12.444L87.4991 10.718L87.4551 8.99103H86.2191V12.17ZM100.457 9.51803C100.127 9.84703 99.9271 10.196 99.9271 10.448C99.9271 10.8 99.9921 10.851 100.435 10.851C100.774 10.851 101.008 10.748 101.137 10.541C101.354 10.197 101.944 10.13 102.233 10.417C102.336 10.519 102.42 10.816 102.42 11.077C102.42 11.537 102.401 11.549 101.656 11.56C101.228 11.566 100.721 11.683 100.502 11.826C99.6901 12.356 99.5391 14.219 100.248 14.97C100.713 15.463 101.556 15.482 102.059 15.011L102.42 14.674V15.011C102.42 15.301 102.507 15.348 103.043 15.348H103.666L103.665 12.828C103.665 10.583 103.631 10.253 103.354 9.80103C102.997 9.21803 102.509 8.99103 101.615 8.99103C101.108 8.99103 100.884 9.09203 100.457 9.51803ZM105.068 12.178V15.367L105.652 15.319L106.236 15.271L106.282 13.991L106.327 12.712H107.548L107.593 13.992L107.638 15.271L108.223 15.319L108.807 15.367V8.97303L108.223 9.02103L107.638 9.06903L107.593 10.349L107.548 11.628H106.314V8.99003H105.068V12.178ZM110.209 12.169V15.349H111.455V13.953C111.455 12.58 111.461 12.557 111.831 12.557C112.166 12.557 112.258 12.707 112.661 13.914C113.114 15.27 113.115 15.271 113.687 15.319C114.395 15.379 114.399 15.323 113.781 13.639C113.363 12.498 113.323 12.256 113.463 11.709C113.552 11.365 113.667 10.857 113.72 10.579C113.775 10.293 113.912 10.076 114.038 10.076C114.187 10.076 114.259 9.89903 114.259 9.53303C114.259 9.05503 114.212 8.99003 113.862 8.99003C113.274 8.99003 112.763 9.59203 112.636 10.433C112.517 11.226 112.221 11.627 111.755 11.627C111.482 11.627 111.455 11.507 111.455 10.308V8.99203H110.209V12.172V12.169ZM114.789 9.20703C114.741 9.33103 114.725 9.59503 114.753 9.79303C114.795 10.086 114.913 10.163 115.385 10.201L115.965 10.249L116.008 12.759L116.05 15.271L116.635 15.319L117.219 15.367V10.25L117.881 10.202C118.524 10.156 118.543 10.139 118.543 9.61203V9.06903L116.709 9.02503C115.217 8.99003 114.86 9.02403 114.789 9.20803V9.20703ZM129.587 9.51703L129.058 10.045V12.151C129.058 14.236 129.062 14.263 129.491 14.741C130.315 15.659 132.009 15.483 132.56 14.423C132.946 13.68 132.874 13.487 132.211 13.487C131.788 13.487 131.569 13.577 131.425 13.807C131.286 14.029 131.095 14.112 130.803 14.078C130.419 14.034 130.378 13.965 130.334 13.293L130.287 12.557H132.796V11.464C132.796 9.72503 132.193 8.99003 130.764 8.99003C130.236 8.99003 130.02 9.08703 129.587 9.51703ZM133.575 9.61103V10.231H134.822V15.367L135.406 15.319L135.99 15.271L136.033 12.751L136.076 10.231H136.695C137.313 10.231 137.314 10.231 137.314 9.61103V8.99103H133.575V9.61103ZM138.699 9.42503L138.171 9.89503L138.12 11.908C138.079 13.521 138.118 14.017 138.317 14.4C138.879 15.482 140.565 15.669 141.398 14.74C141.637 14.475 141.832 14.085 141.832 13.873C141.832 13.528 141.768 13.487 141.219 13.487C140.738 13.487 140.585 13.556 140.505 13.807C140.425 14.055 140.295 14.115 139.91 14.077C139.44 14.032 139.415 13.995 139.37 13.293L139.322 12.557H141.832V11.32C141.832 10.18 141.797 10.043 141.39 9.59003C141.02 9.17703 140.812 9.08703 140.088 9.02803C139.301 8.96303 139.182 8.99603 138.699 9.42503ZM143.182 9.09403C143.125 9.15103 143.078 11.139 143.078 13.514V17.829H144.324V16.356C144.324 15.546 144.377 14.886 144.441 14.888C144.505 14.891 144.694 14.995 144.86 15.12C145.281 15.438 146.089 15.405 146.527 15.052C146.877 14.77 146.897 14.652 146.945 12.552C147.002 10.116 146.951 9.74503 146.501 9.29703C146.135 8.93203 145.294 8.89203 144.86 9.21803C144.471 9.51103 144.324 9.51203 144.324 9.22303C144.324 9.06303 144.162 8.99003 143.805 8.99003C143.519 8.99003 143.239 9.03703 143.182 9.09403ZM152.892 9.16003C152.892 9.25403 153.285 10.619 153.766 12.193C154.61 14.955 154.634 15.082 154.44 15.768C154.286 16.318 154.14 16.518 153.8 16.646C153.44 16.782 153.359 16.905 153.359 17.32C153.359 17.8 153.39 17.83 153.916 17.83C154.318 17.83 154.594 17.709 154.907 17.398C155.282 17.025 155.459 16.479 156.218 13.36C156.7 11.376 157.138 9.58103 157.191 9.37203C157.282 9.01303 157.249 8.99003 156.647 8.99003C156.295 8.99003 156.007 9.01803 156.007 9.05003C156.007 9.15003 155.396 12.134 155.289 12.557C155.198 12.917 154.85 11.876 154.238 9.41703C154.145 9.04103 154.059 8.99003 153.512 8.99003C153.167 8.99003 152.892 9.06603 152.892 9.16003ZM158.032 13.41V17.83H159.279V14.875L159.738 15.112C160.771 15.643 161.657 15.257 161.859 14.187C161.917 13.88 161.935 12.762 161.9 11.703C161.84 9.93303 161.805 9.74403 161.464 9.38303C161.036 8.92903 160.067 8.83803 159.746 9.22303C159.639 9.35103 159.491 9.45603 159.415 9.45603C159.34 9.45603 159.279 9.35103 159.279 9.22303C159.279 9.05503 159.106 8.99003 158.656 8.99003H158.032V13.41ZM163.329 12.164V15.348H164.412L164.454 12.828L164.497 10.308L165.48 10.262L166.462 10.216L166.414 9.64203L166.367 9.06803L164.848 9.02403L163.329 8.97903V12.164ZM168.042 9.15003C167.297 9.44803 167.069 10.147 167.068 12.138C167.068 14.188 167.234 14.72 167.997 15.113C168.57 15.408 169.446 15.415 170.002 15.129C170.423 14.912 170.694 14.515 170.885 13.836C170.975 13.516 170.931 13.487 170.355 13.487C169.886 13.487 169.684 13.567 169.56 13.797C169.375 14.141 168.79 14.21 168.501 13.921C168.245 13.667 168.245 10.671 168.501 10.417C168.79 10.129 169.375 10.197 169.56 10.541C169.683 10.771 169.886 10.851 170.34 10.851C170.999 10.851 170.991 10.878 170.614 9.87503C170.33 9.11903 169.033 8.75403 168.042 9.15003ZM172.052 12.17V15.367L172.637 15.319L173.221 15.271L173.266 13.904C173.309 12.608 173.328 12.54 173.643 12.586C173.91 12.625 174.065 12.902 174.429 13.991L174.882 15.348H175.492C175.828 15.348 176.103 15.317 176.103 15.278C176.103 15.24 175.854 14.526 175.551 13.691C175.13 12.533 175.035 12.1 175.153 11.861C175.237 11.69 175.353 11.244 175.41 10.871C175.483 10.39 175.599 10.171 175.808 10.116C176.024 10.06 176.103 9.89903 176.103 9.51503C176.103 9.03503 176.062 8.99003 175.635 8.99003C174.994 8.99003 174.61 9.42803 174.401 10.398C174.2 11.331 174.007 11.627 173.597 11.627C173.346 11.627 173.306 11.469 173.266 10.347L173.221 9.06803L172.637 9.02003L172.052 8.97203V12.169V12.17ZM177.107 9.19003C177.065 9.29803 177.049 10.711 177.073 12.33L177.115 15.27L177.699 15.319C178.226 15.362 178.284 15.33 178.284 14.995C178.284 14.79 178.632 14.005 179.057 13.249L179.83 11.876L179.875 13.573L179.919 15.271L180.503 15.319L181.088 15.367V8.97303L180.503 9.02103C179.986 9.06403 179.913 9.12103 179.867 9.52603C179.838 9.77603 179.488 10.544 179.088 11.231L178.361 12.481L178.317 10.736L178.273 8.99103H177.728C177.429 8.99103 177.149 9.08103 177.107 9.19103V9.19003ZM182.559 9.19003C182.517 9.29803 182.502 10.711 182.525 12.33L182.567 15.27L183.152 15.319C183.68 15.362 183.736 15.331 183.736 14.99C183.736 14.783 184.069 14.029 184.476 13.314L185.216 12.014L185.294 13.642L185.371 15.271L185.956 15.319L186.54 15.367V8.97303L185.956 9.02103C185.438 9.06403 185.366 9.12103 185.319 9.52603C185.29 9.77603 184.94 10.544 184.54 11.231L183.814 12.481L183.77 10.736L183.725 8.99103H183.181C182.881 8.99103 182.601 9.08103 182.559 9.19103V9.19003ZM23.8911 9.95203C24.8545 10.5164 25.6931 11.2707 26.3561 12.169C27.1861 13.269 28.0351 14.896 28.1751 15.659C28.2581 16.109 28.2221 16.071 27.9631 15.426C27.2621 13.683 24.3251 10.415 22.7631 9.63903C22.3641 9.44103 22.0391 9.25203 22.0391 9.21903C22.0391 9.10303 23.3361 9.61703 23.8911 9.95203ZM29.2041 9.48903L29.7501 9.72203L28.7811 9.68803C28.1641 9.66803 27.6841 9.56103 27.4571 9.39503C27.1091 9.14003 27.1191 9.13503 27.8801 9.19503C28.3091 9.22903 28.9041 9.36203 29.2041 9.48903ZM26.2941 9.75403C26.4141 9.87403 26.3461 9.92103 26.0521 9.92103C25.8261 9.92103 25.4701 9.98603 25.2611 10.065C24.9791 10.172 24.7861 10.143 24.5161 9.95503L24.1491 9.70003L24.5351 9.58603C25.0311 9.43803 26.0771 9.53803 26.2941 9.75403ZM22.2601 9.74603C22.3761 9.93303 20.8591 10.214 20.6071 10.052C20.4421 9.94603 20.4481 9.89203 20.6371 9.76803C20.9271 9.57803 22.1461 9.56203 22.2601 9.74603ZM29.5321 10.103C29.8221 10.203 30.2441 10.396 30.4671 10.53C30.8631 10.768 30.8491 10.773 29.8831 10.759C29.1621 10.748 28.8081 10.668 28.5811 10.463C28.4101 10.309 28.2701 10.124 28.2701 10.052C28.2701 9.86403 28.9141 9.89003 29.5321 10.103ZM23.2741 10.296C23.4911 10.556 23.4141 10.585 21.7811 10.862C20.5521 11.07 20.1691 11.003 20.1691 10.581C20.1691 10.35 20.2731 10.311 20.7591 10.356C21.0831 10.387 21.5911 10.343 21.8891 10.258C22.6691 10.035 23.0661 10.047 23.2741 10.296ZM4.58813 10.959C4.06013 11.787 3.99313 12.52 4.38313 13.177C4.67513 13.671 5.63313 14.263 6.13913 14.263C6.64413 14.263 7.33013 13.859 7.69613 13.348C8.08513 12.804 8.29613 11.937 8.03813 11.937C7.94213 11.937 7.86313 12.08 7.86313 12.255C7.86313 12.795 7.43313 13.435 6.93313 13.641C5.92313 14.057 4.43813 13.031 4.43613 11.919C4.43613 11.445 4.93313 10.757 5.37613 10.617C5.54713 10.563 5.64613 10.454 5.59713 10.375C5.39813 10.055 5.02713 10.269 4.58813 10.959ZM26.8831 10.421L27.4131 10.611L26.4781 10.716C25.8921 10.782 25.4681 10.759 25.3421 10.656C24.8571 10.261 25.9671 10.092 26.8831 10.421ZM44.8721 10.368C44.8251 10.443 44.1521 10.938 43.3751 11.467C42.2531 12.232 41.9991 12.472 42.1371 12.638C42.2791 12.808 42.4771 12.723 43.1971 12.183C43.6993 11.806 44.2115 11.4426 44.7331 11.093C45.1431 10.826 45.3531 10.588 45.3001 10.45C45.2051 10.203 44.9981 10.163 44.8721 10.368ZM66.0921 10.418C66.1951 10.519 66.2801 10.833 66.2801 11.115C66.2801 11.618 66.2681 11.627 65.5781 11.627C64.9301 11.627 64.8781 11.597 64.8781 11.229C64.8781 10.379 65.5821 9.90903 66.0931 10.417L66.0921 10.418ZM71.1861 12.169C71.1861 13.994 71.1791 14.031 70.8271 14.081C70.1421 14.177 70.0181 13.886 70.0181 12.181C70.0181 10.469 70.1331 10.186 70.7961 10.263L71.1861 10.309V12.169ZM76.3771 10.744C76.4431 11.31 76.1671 11.627 75.6071 11.627C75.1791 11.627 75.1591 11.595 75.1591 10.92V10.212L75.7431 10.26C76.2531 10.303 76.3331 10.363 76.3771 10.744ZM131.456 10.476C131.508 10.611 131.55 10.926 131.55 11.174C131.55 11.599 131.512 11.627 130.927 11.627C130.309 11.627 130.304 11.622 130.304 11.032C130.304 10.705 130.351 10.392 130.408 10.334C130.612 10.131 131.362 10.232 131.456 10.476ZM140.555 10.968L140.603 11.627H139.971C139.377 11.627 139.339 11.6 139.339 11.174C139.339 10.405 139.485 10.21 140.021 10.261C140.473 10.305 140.511 10.355 140.555 10.968ZM145.539 10.418C145.795 10.671 145.795 13.668 145.539 13.921C145.436 14.024 145.189 14.108 144.99 14.108C144.502 14.108 144.324 13.591 144.324 12.169C144.324 10.748 144.502 10.231 144.99 10.231C145.189 10.231 145.436 10.315 145.539 10.417V10.418ZM150.705 10.531C150.794 10.696 150.867 11.433 150.867 12.169C150.867 13.684 150.713 14.108 150.166 14.108C149.618 14.108 149.465 13.684 149.465 12.169C149.465 10.655 149.618 10.231 150.166 10.231C150.38 10.231 150.614 10.361 150.705 10.531ZM160.519 10.531C160.608 10.696 160.681 11.433 160.681 12.169C160.681 13.684 160.527 14.108 159.98 14.108C159.432 14.108 159.279 13.684 159.279 12.169C159.279 10.655 159.432 10.231 159.98 10.231C160.194 10.231 160.428 10.361 160.519 10.531ZM19.7041 11.313C19.4691 11.751 19.3451 11.628 19.4801 11.091C19.5481 10.822 19.6401 10.727 19.7361 10.823C19.8331 10.92 19.8211 11.094 19.7041 11.313ZM24.3181 11.178C24.7411 11.528 24.2651 11.663 22.4801 11.699C20.1181 11.747 19.7591 11.497 21.6661 11.134C23.1291 10.856 23.9441 10.87 24.3181 11.178ZM119.244 11.394V11.937H122.048V10.851H119.244V11.394ZM27.8241 11.32L28.1921 11.633L27.6241 11.538C27.3121 11.486 26.9181 11.518 26.7481 11.608C26.5061 11.736 26.3851 11.712 26.1861 11.493C25.8521 11.125 26.0011 11.006 26.7991 11.006C27.2341 11.006 27.5811 11.113 27.8241 11.32ZM31.0841 11.293C31.4381 11.579 31.4341 11.58 30.3641 11.565C29.4691 11.552 29.2781 11.503 29.2341 11.278C29.1901 11.048 29.3021 11.006 29.9541 11.006C30.4741 11.006 30.8441 11.1 31.0841 11.293ZM24.1731 11.92C24.6781 11.76 25.3101 11.939 25.3101 12.24C25.3101 12.543 24.2601 12.735 23.5891 12.555C23.2311 12.459 22.6831 12.419 22.3711 12.467C22.0211 12.521 21.6561 12.47 21.4161 12.335L21.0261 12.117L21.4161 12.033C22.2211 11.859 22.4441 11.849 23.0511 11.961C23.4001 12.026 23.8941 12.008 24.1731 11.92ZM28.0621 11.947C28.4541 12.095 28.7301 12.347 28.7341 12.557C28.7341 12.6 28.3621 12.645 27.9071 12.657C27.2401 12.677 27.0421 12.622 26.8901 12.38C26.7861 12.215 26.7431 12.012 26.7941 11.93C26.9161 11.734 27.5201 11.741 28.0621 11.947ZM31.4091 12.029C31.4811 12.073 31.6041 12.229 31.6831 12.377C31.8131 12.619 31.7281 12.642 30.7981 12.622C29.9431 12.602 29.7511 12.549 29.6641 12.306C29.5941 12.113 29.6441 11.976 29.8101 11.902C30.0611 11.789 31.1621 11.877 31.4091 12.029ZM45.3271 11.967C44.8531 12.234 44.7871 12.405 44.7841 13.366C44.7831 14.097 44.7271 14.281 44.4641 14.421C43.8141 14.768 43.1021 14.148 43.2911 13.399C43.3631 13.113 43.3311 13.051 43.1481 13.12C42.8521 13.234 42.8491 13.536 43.1391 14.093C43.4331 14.659 44.1171 14.95 44.6661 14.743C45.2261 14.53 45.4201 14.1 45.3101 13.306C45.2341 12.756 45.2751 12.582 45.5321 12.35C45.7801 12.127 45.9121 12.102 46.1611 12.234C46.5041 12.417 46.7281 12.928 46.5741 13.176C46.5211 13.262 46.5941 13.332 46.7371 13.332C47.1141 13.332 46.9031 12.575 46.4031 12.131C45.9641 11.74 45.7791 11.711 45.3271 11.967ZM32.9821 12.687C33.2181 12.903 33.4101 13.133 33.4101 13.197C33.4101 13.261 33.2171 13.214 32.9821 13.091C32.7471 12.969 32.4741 12.869 32.3761 12.868C32.2061 12.868 32.0081 12.53 32.0081 12.239C32.0081 12.023 32.5121 12.254 32.9821 12.686V12.687ZM25.9921 12.952C26.1021 13.235 24.9661 13.55 24.3081 13.419C23.8773 13.3422 23.4441 13.2795 23.0091 13.231C22.5581 13.18 22.1521 13.079 22.1071 13.007C21.9571 12.766 22.8041 12.677 23.5551 12.857C24.1471 12.997 24.4231 12.99 24.9211 12.817C25.5961 12.582 25.8621 12.616 25.9921 12.952ZM76.3461 12.951C76.7421 13.554 76.4361 14.108 75.7071 14.108C75.1641 14.108 75.1591 14.101 75.1591 13.436C75.1591 13.066 75.2061 12.717 75.2631 12.66C75.5061 12.419 76.1001 12.578 76.3461 12.951ZM81.4511 12.802C81.7411 13.555 81.4381 14.108 80.7361 14.108C80.3161 14.108 80.2991 14.078 80.2991 13.332V12.557H80.8281C81.1661 12.557 81.3911 12.645 81.4511 12.802ZM102.42 13.11C102.42 13.861 102.176 14.263 101.719 14.263C101.08 14.263 100.775 13.286 101.263 12.801C101.397 12.667 101.713 12.557 101.964 12.557C102.383 12.557 102.42 12.602 102.42 13.11ZM28.8931 13.177C29.3701 13.652 29.2721 13.767 28.4651 13.677C27.2991 13.547 27.0411 12.876 28.1531 12.869C28.3881 12.869 28.7221 13.007 28.8931 13.177ZM31.5031 12.965C31.7711 13.037 31.8531 13.171 31.8531 13.545C31.8521 14.03 31.8511 14.03 30.9991 14.03C30.1981 14.03 30.1411 14.005 30.0531 13.607C30.0031 13.375 30.0051 13.113 30.0591 13.026C30.1671 12.851 30.9531 12.818 31.5031 12.965ZM33.2931 13.673C33.7021 14.143 33.6331 14.315 33.0791 14.205C32.8484 14.1564 32.6144 14.124 32.3791 14.108C32.1591 14.108 32.0761 13.472 32.2691 13.278C32.4361 13.113 32.9931 13.328 33.2931 13.673ZM23.9781 13.673C24.5311 13.82 24.8401 13.817 25.4651 13.658C26.0871 13.499 26.3021 13.496 26.4831 13.646C26.8351 13.937 26.7661 14.025 26.0501 14.189C25.1721 14.391 23.8801 14.219 23.2501 13.818C22.6561 13.439 22.9111 13.389 23.9781 13.673ZM2.83513 13.994C2.78713 14.119 3.38013 14.51 4.46413 15.068C5.81013 15.76 6.18713 15.898 6.25613 15.718C6.30413 15.592 6.31713 15.466 6.28613 15.437C6.19813 15.357 3.04913 13.797 2.97613 13.797C2.94013 13.797 2.87613 13.886 2.83513 13.994ZM19.8581 13.944C20.0721 14.012 20.6331 14.186 21.1041 14.331C21.5751 14.476 22.0481 14.63 22.1561 14.674C22.2631 14.718 22.3501 14.684 22.3501 14.597C22.3501 14.359 20.7021 13.796 20.0471 13.81C19.5321 13.82 19.5121 13.835 19.8581 13.944ZM29.1381 14.071C29.2301 14.134 29.3501 14.307 29.4061 14.457C29.4921 14.689 29.4081 14.727 28.8101 14.727C28.4271 14.727 28.1141 14.664 28.1141 14.585C28.1141 14.507 28.0711 14.333 28.0191 14.198C27.9451 14.004 28.0341 13.953 28.4481 13.955C28.7351 13.956 29.0461 14.008 29.1381 14.071ZM20.0141 14.405C20.0141 14.483 20.0901 14.572 20.1841 14.603C20.2771 14.635 20.3641 14.85 20.3781 15.081C20.4061 15.561 20.4851 15.578 21.3061 15.293C21.9741 15.062 21.8991 14.913 20.9021 14.498C20.2521 14.228 20.0141 14.203 20.0141 14.405ZM27.0451 14.581C27.3731 14.865 27.3791 14.891 27.1011 14.816C26.9301 14.77 26.5831 14.839 26.3301 14.97C25.6331 15.33 23.7521 15.05 23.7521 14.585C23.7521 14.528 24.1901 14.507 24.7261 14.539C25.2611 14.572 25.8751 14.527 26.0891 14.44C26.6261 14.222 26.6321 14.223 27.0451 14.581ZM31.8251 14.619C31.9231 15.131 31.4301 15.659 30.8541 15.659C30.3701 15.659 30.3241 15.616 30.2651 15.115C30.1841 14.419 30.3791 14.238 31.1501 14.295C31.6031 14.328 31.7861 14.416 31.8251 14.619ZM33.0791 14.515C33.7651 14.651 33.7371 15.138 33.0261 15.434C32.2561 15.754 31.7871 15.734 31.9341 15.387C31.9971 15.237 32.0831 14.959 32.1241 14.767C32.2061 14.393 32.3191 14.363 33.0791 14.515ZM46.4991 14.85C46.2571 15.045 46.1291 15.358 46.0711 15.897C45.9741 16.804 45.8111 17.054 45.3131 17.054C44.8271 17.054 44.4251 16.441 44.5591 15.907C44.6761 15.444 44.3891 15.339 44.2451 15.793C44.0251 16.479 44.7741 17.364 45.5731 17.364C46.1611 17.364 46.5301 16.869 46.6181 15.964C46.7041 15.068 47.0461 14.75 47.6031 15.046C47.8601 15.183 47.9161 15.333 47.8671 15.749C47.8251 16.112 47.8691 16.279 48.0071 16.279C48.3671 16.279 48.2431 15.366 47.8271 14.953C47.3751 14.503 46.9691 14.471 46.4991 14.85ZM20.9731 14.96C20.9731 15.041 20.8971 15.133 20.8051 15.163C20.7131 15.193 20.6381 15.103 20.6381 14.96C20.6381 14.818 20.7131 14.727 20.8051 14.758C20.8971 14.788 20.9731 14.879 20.9731 14.96ZM27.3011 15.28C27.6261 15.506 27.8141 15.934 27.5051 15.744C27.4261 15.696 26.9951 15.734 26.5471 15.83C25.9411 15.96 25.5811 15.959 25.1391 15.827C24.2051 15.548 24.1941 15.294 25.1211 15.421C25.6971 15.5 26.0221 15.465 26.3481 15.289C26.9031 14.989 26.8861 14.99 27.3011 15.28ZM29.5581 15.333C29.6201 15.568 29.5351 15.643 29.1481 15.703C28.5541 15.793 28.4271 15.728 28.4271 15.339C28.4271 14.909 29.4451 14.903 29.5581 15.333ZM33.8141 15.893C33.6171 16.673 31.8311 17.053 31.7281 16.336C31.6881 16.051 31.7831 15.991 32.4241 15.896C32.8321 15.834 33.3051 15.688 33.4741 15.57C33.8611 15.3 33.9441 15.38 33.8141 15.894V15.893ZM2.17913 16.163C1.94613 16.363 1.61913 16.953 1.41113 17.546L1.04713 18.58L2.62513 19.124C3.49213 19.423 4.31113 19.71 4.44513 19.761C4.63013 19.833 4.74913 19.659 4.95113 19.022C5.43613 17.489 5.20113 16.528 4.22413 16.067C3.46013 15.706 2.66613 15.743 2.17813 16.162L2.17913 16.163ZM27.6581 16.129C27.8241 16.217 27.9591 16.376 27.9591 16.481C27.9591 16.794 25.5231 16.711 25.1991 16.388C24.9621 16.153 24.9821 16.14 25.4771 16.212C25.7711 16.255 26.2221 16.223 26.4791 16.142C27.1121 15.943 27.3051 15.941 27.6581 16.129ZM29.6731 16.279C29.6731 16.449 29.6201 16.589 29.5561 16.591C29.4053 16.6091 29.2562 16.6392 29.1101 16.681C28.7241 16.784 28.4461 16.305 28.7721 16.099C29.1661 15.85 29.6731 15.951 29.6731 16.279ZM31.3861 16.259C31.3865 16.3522 31.3647 16.4442 31.3227 16.5274C31.2807 16.6106 31.2196 16.6827 31.1445 16.7378C31.0693 16.7929 30.9821 16.8294 30.8901 16.8444C30.7981 16.8594 30.7039 16.8524 30.6151 16.824C30.4091 16.758 30.2951 16.59 30.2951 16.346C30.2951 16.018 30.3671 15.968 30.8411 15.968C31.2711 15.968 31.3861 16.029 31.3861 16.259ZM3.85813 16.489C4.71513 16.851 4.95513 17.244 4.86813 18.144C4.82713 18.578 4.71813 19.006 4.62813 19.096C4.51313 19.21 4.01513 19.11 2.96513 18.762C1.59113 18.307 1.47413 18.237 1.56913 17.931C1.87213 16.951 2.48513 16.279 3.07413 16.279C3.22913 16.279 3.58213 16.374 3.85813 16.489ZM11.4901 16.603C10.7461 16.877 10.6101 17.945 11.2131 18.76C11.7351 19.464 11.7151 19.796 11.1431 19.92C10.8911 19.976 10.3931 20.278 10.0381 20.592C9.50113 21.067 9.38013 21.281 9.32013 21.861C9.17413 23.287 10.0761 24.163 11.8351 24.303L12.8321 24.383L13.1051 25.536L13.3781 26.689L12.8611 27.092C12.1641 27.636 11.8831 28.327 12.0771 29.027C12.2741 29.737 12.6491 30.054 13.5611 30.281C14.2871 30.461 14.3161 30.491 14.5071 31.241C14.6981 31.987 14.6911 32.029 14.3031 32.432C13.6061 33.156 13.8971 34.13 14.8731 34.343C15.2191 34.419 15.3391 34.563 15.4621 35.043C15.6081 35.616 15.5941 35.656 15.2061 35.798L14.7961 35.948L15.3021 35.96C15.6911 35.969 15.8091 36.04 15.8091 36.265C15.8091 36.427 15.9091 36.597 16.0311 36.644C16.3341 36.76 16.6341 36.364 16.5181 36C16.4511 35.79 16.5381 35.627 16.8171 35.446C17.0961 35.264 17.2101 35.051 17.2101 34.716C17.2101 34.308 17.1251 34.208 16.6021 34.003C16.0561 33.79 15.9841 33.697 15.8921 33.089C15.7971 32.456 15.8261 32.381 16.3271 31.943C16.9491 31.399 17.0871 30.915 16.8071 30.255C16.6511 29.885 16.4491 29.739 15.8581 29.568L15.1081 29.351L14.8831 28.291C14.6981 27.413 14.6951 27.218 14.8671 27.161C15.3591 26.998 16.2721 25.993 16.3621 25.516C16.5161 24.7 16.0951 23.92 15.3081 23.565C14.9411 23.399 14.4521 23.262 14.2221 23.26C13.9601 23.258 13.7751 23.156 13.7271 22.985C13.5241 22.276 13.2971 20.897 13.3731 20.823C13.4181 20.777 14.0881 20.723 14.8601 20.703C16.2301 20.669 16.7431 20.502 16.7431 20.091C16.7431 19.811 15.4641 19.535 14.1711 19.535C13.3551 19.535 12.9971 19.477 12.9791 19.341C12.9555 18.9595 12.9429 18.5773 12.9411 18.195C12.9211 16.901 12.3581 16.283 11.4901 16.603ZM37.8561 16.863C36.6091 17.545 36.3711 18.037 36.3711 19.933C36.3711 20.809 36.3251 21.646 36.2681 21.793C36.1741 22.037 36.2631 22.054 37.1961 21.98C38.4741 21.878 39.3211 21.465 39.6881 20.765C39.9151 20.331 39.9481 20.033 39.8611 19.147C39.7241 17.747 39.7511 17.038 39.9511 16.841C40.2351 16.557 40.1201 16.452 39.6641 16.583C38.9211 16.795 38.5501 17.05 38.2331 17.568C38.0551 17.858 37.9301 17.958 37.9301 17.812C37.9301 17.675 38.1021 17.308 38.3141 16.998C38.5251 16.688 38.6841 16.435 38.6641 16.438C38.391 16.5727 38.1216 16.7138 37.8561 16.863ZM12.1591 17.283C12.3481 17.569 12.3861 17.853 12.3111 18.406C12.2351 18.961 12.3261 19.636 12.6731 21.085C12.9281 22.15 13.1051 23.053 13.0681 23.09C12.8911 23.266 12.6761 22.718 12.2271 20.941C11.9591 19.881 11.6041 18.824 11.4371 18.591C10.9431 17.9 11.1031 16.899 11.7081 16.899C11.8181 16.899 12.0211 17.071 12.1591 17.282V17.283ZM28.0551 17.17C28.3171 17.429 28.2991 17.444 27.6651 17.49C26.9461 17.542 26.3811 17.26 26.7451 17.031C27.0891 16.814 27.7681 16.885 28.0551 17.17ZM29.6441 17.17C29.5771 17.52 28.7381 17.647 28.7381 17.308C28.7381 17.093 28.9931 16.96 29.4891 16.917C29.6061 16.907 29.6731 17.017 29.6441 17.17ZM33.0871 17.173C32.7471 17.41 31.6451 17.518 31.4591 17.333C31.2261 17.101 31.5651 16.975 32.4661 16.959C33.3531 16.943 33.3961 16.958 33.0871 17.173ZM30.9351 17.209C31.0161 17.209 30.9671 17.383 30.8271 17.597C30.4831 18.118 30.2961 18.085 30.2961 17.502C30.2961 17.127 30.3501 17.042 30.5421 17.115C30.6781 17.167 30.8551 17.209 30.9351 17.209ZM46.8861 17.871C45.9441 18.135 45.1531 18.364 45.1301 18.378C45.1071 18.393 45.1281 18.511 45.1781 18.639C45.2561 18.842 45.4281 18.826 46.4671 18.516C47.0825 18.3313 47.7006 18.1556 48.3211 17.989C48.7971 17.867 48.9521 17.759 48.8881 17.592C48.7811 17.314 48.9521 17.291 46.8861 17.871ZM32.2701 17.763C32.3841 17.719 32.4771 17.743 32.4771 17.816C32.4771 18.021 31.9581 18.107 31.5751 17.966C31.3851 17.896 31.2301 17.769 31.2301 17.683C31.2301 17.578 31.3681 17.579 31.6471 17.684C31.8761 17.771 32.1571 17.806 32.2701 17.763ZM29.6731 17.907C29.6731 18.051 29.5261 18.139 29.2831 18.139C28.7981 18.139 28.7691 17.875 29.2441 17.784C29.4371 17.746 29.6121 17.707 29.6341 17.695C29.6551 17.684 29.6731 17.779 29.6731 17.907ZM38.7081 19.001C38.6241 20.435 38.4561 20.707 37.4261 21.071C36.9161 21.252 36.9061 21.237 36.7731 20.149C36.6581 19.207 36.8721 18.257 37.0681 18.837C37.3321 19.619 37.6321 20.165 37.7551 20.089C37.8301 20.043 37.9721 19.673 38.0711 19.266C38.2911 18.359 38.5571 17.674 38.6881 17.674C38.7421 17.674 38.7511 18.271 38.7081 19.001ZM28.3381 17.968C28.4771 18.191 27.9911 18.298 27.5681 18.138C27.3551 18.058 27.1801 17.955 27.1801 17.911C27.1801 17.769 28.2471 17.823 28.3381 17.968ZM35.9221 17.916C35.9121 18.006 35.5881 18.448 35.2021 18.898C34.8171 19.348 34.5021 19.853 34.5021 20.02C34.5021 20.458 34.8671 21.092 35.4171 21.613L35.8931 22.063L36.0541 21.643C36.2841 21.041 36.2541 20.265 35.9871 19.913C35.7661 19.623 35.7571 19.625 35.7531 19.993C35.7501 20.256 35.6981 20.323 35.5851 20.21C35.4721 20.098 35.5231 19.78 35.7531 19.17C35.9331 18.688 36.0501 18.172 36.0111 18.022C35.9721 17.874 35.9321 17.826 35.9221 17.916ZM31.4201 18.412C31.1271 18.51 30.7281 18.322 30.8401 18.14C30.9051 18.037 31.0541 18.045 31.2791 18.165C31.4991 18.282 31.5501 18.37 31.4201 18.412ZM45.5621 19.684C45.5621 19.766 46.1761 19.854 46.9251 19.878L48.2881 19.922L47.0511 20.762L45.8131 21.601L47.2811 22.128C48.0881 22.418 48.7741 22.68 48.8051 22.711C48.8351 22.742 48.2851 22.895 47.5821 23.051C46.4771 23.295 45.9781 23.568 46.2101 23.799C46.2661 23.854 47.3451 23.609 49.3791 23.075L50.0021 22.912L48.4051 22.298C47.5271 21.96 46.8081 21.636 46.8081 21.578C46.8081 21.52 47.4041 21.056 48.1331 20.547C48.8611 20.037 49.4561 19.601 49.4561 19.577C49.4561 19.554 48.5801 19.535 47.5091 19.535C46.3681 19.535 45.5621 19.597 45.5621 19.684ZM0.796128 20.114C0.752128 20.264 0.671128 20.706 0.616128 21.095L0.516128 21.802L2.05613 22.07C2.90213 22.218 3.73913 22.376 3.91413 22.422C4.19513 22.495 4.25413 22.399 4.41313 21.614C4.62913 20.544 4.63213 20.465 4.45513 20.465C4.37813 20.465 4.26913 20.779 4.21113 21.163C4.11613 21.792 4.06513 21.861 3.68713 21.859C3.42334 21.8533 3.16089 21.8198 2.90413 21.759C2.57013 21.67 2.54713 21.604 2.64013 20.986C2.70613 20.549 2.68413 20.31 2.57713 20.31C2.48713 20.31 2.41113 20.502 2.40913 20.737C2.40513 21.43 2.20613 21.608 1.55113 21.503C1.23213 21.451 0.942128 21.38 0.907128 21.345C0.872128 21.31 0.908128 20.993 0.987128 20.64C1.12713 20.02 0.959128 19.558 0.797128 20.114H0.796128ZM40.0351 20.709C39.6841 21.363 38.8651 21.961 38.1181 22.11C37.2511 22.283 37.3981 22.481 38.3951 22.481C39.9951 22.481 40.5071 22.028 40.3931 20.711L40.3431 20.134L40.0351 20.709ZM128.495 20.659C128.629 21.351 129.108 21.706 129.906 21.706C130.68 21.706 131.24 21.23 131.24 20.572C131.24 20.234 131.168 20.155 130.861 20.155C130.625 20.155 130.446 20.267 130.387 20.451C130.204 21.025 129.37 20.958 129.37 20.369C129.37 20.233 129.193 20.155 128.884 20.155C128.418 20.155 128.401 20.177 128.495 20.659ZM190.494 20.659C190.628 21.349 191.107 21.706 191.903 21.706C192.711 21.706 193.239 21.275 193.239 20.614C193.239 20.231 193.176 20.155 192.86 20.155C192.624 20.155 192.446 20.267 192.387 20.451C192.204 21.025 191.37 20.958 191.37 20.369C191.37 20.233 191.193 20.155 190.883 20.155C190.418 20.155 190.401 20.177 190.494 20.659ZM12.2041 21.891C12.4491 22.898 12.4381 22.946 11.9491 22.946C10.8151 22.946 10.3981 21.804 11.3261 21.242C11.6021 21.075 11.8731 20.989 11.9281 21.051C11.9831 21.112 12.1081 21.491 12.2041 21.891ZM63.0241 22.681C62.0861 23.012 61.8561 23.512 61.7871 25.377C61.7521 26.316 61.8001 27.264 61.8971 27.589C62.4111 29.295 64.7521 29.455 65.4331 27.832C65.7091 27.175 65.7231 24.499 65.4531 23.736C65.1231 22.794 64.0401 22.324 63.0231 22.682L63.0241 22.681ZM68.0431 22.652C67.7267 22.76 67.4445 22.9497 67.2251 23.202C66.9351 23.568 66.9041 23.822 66.9041 25.737C66.9041 28.177 67.0441 28.527 68.1581 28.86C69.3611 29.218 70.6401 28.43 70.6421 27.327C70.6421 27.023 70.5621 26.978 70.0191 26.978C69.5941 26.978 69.3961 27.046 69.3961 27.192C69.3961 27.543 68.9641 27.796 68.5411 27.69C68.1521 27.593 68.1501 27.583 68.1501 25.831C68.1501 24.439 68.2001 24.028 68.3881 23.873C68.6851 23.628 69.3961 23.901 69.3961 24.261C69.3961 24.434 69.5671 24.497 70.0391 24.497C70.6791 24.497 70.6811 24.495 70.5821 24C70.4511 23.349 69.9421 22.828 69.2521 22.637C68.6221 22.463 68.7051 22.462 68.0431 22.652ZM82.7151 22.586C81.8871 22.761 81.2351 23.429 81.2351 24.102C81.2351 24.474 82.1561 24.408 82.5871 24.006C82.8921 23.72 83.0041 23.696 83.3371 23.848C83.6421 23.987 83.7271 24.14 83.7271 24.552V25.079L82.8441 25.152C81.7771 25.24 81.3101 25.676 81.1511 26.731C80.8911 28.461 82.1471 29.588 83.3171 28.672C83.6571 28.406 83.7271 28.392 83.7271 28.595C83.7271 28.776 83.8871 28.839 84.3511 28.839H84.9741V26.419C84.9741 23.295 84.8101 22.911 83.3381 22.589C83.1323 22.5512 82.9213 22.5502 82.7151 22.586ZM88.4791 22.593C88.2651 22.6577 88.0664 22.7652 87.8951 22.909C87.6471 23.127 87.6221 23.126 87.6221 22.893C87.6221 22.697 87.4751 22.636 86.9991 22.636H86.3761V31.476H87.6221V30.003C87.6221 29.193 87.6741 28.532 87.7391 28.535C87.8031 28.537 87.9921 28.642 88.1581 28.767C88.6181 29.113 89.2981 29.047 89.7321 28.614C90.1041 28.244 90.1141 28.17 90.1141 25.908C90.1141 23.328 90.0041 22.893 89.2911 22.645C89.0331 22.555 88.8151 22.49 88.8061 22.5C88.7971 22.51 88.6501 22.551 88.4791 22.593ZM92.8321 22.653C92.5701 22.725 92.1851 22.966 91.9751 23.188C91.6191 23.565 91.5911 23.718 91.5431 25.578C91.5021 27.192 91.5411 27.66 91.7481 28.06C92.0191 28.58 92.7781 28.994 93.4661 28.994C94.3711 28.994 95.2561 28.211 95.2561 27.409C95.2561 27.019 95.2021 26.978 94.7061 26.978C94.2641 26.978 94.1281 27.053 94.0091 27.366C93.9091 27.626 93.7421 27.753 93.4991 27.753C92.8641 27.753 92.7631 27.483 92.7631 25.795C92.7631 24.539 92.8151 24.157 93.0151 23.958C93.3451 23.63 93.7351 23.712 93.9291 24.149C94.0491 24.421 94.2111 24.497 94.6691 24.497C95.1561 24.497 95.2551 24.443 95.2551 24.179C95.2551 23.743 94.8421 22.985 94.5141 22.818C94.0571 22.586 93.3321 22.515 92.8321 22.653ZM106.627 22.583C105.396 22.986 105.225 23.375 105.225 25.769C105.226 27.385 105.272 27.751 105.53 28.171C106.17 29.217 108.018 29.217 108.659 28.171C109.137 27.391 109.067 27.133 108.378 27.133C107.961 27.133 107.736 27.223 107.598 27.443C107.175 28.118 106.471 27.711 106.471 26.792V26.202H108.963V24.974C108.963 23.881 108.918 23.694 108.563 23.273C108.343 23.013 107.905 22.729 107.589 22.642C106.967 22.47 106.969 22.47 106.626 22.582L106.627 22.583ZM143.927 22.648C143.665 22.723 143.28 22.966 143.07 23.188C142.716 23.562 142.686 23.724 142.638 25.493C142.577 27.756 142.748 28.337 143.589 28.735C144.258 29.051 144.643 29.06 145.322 28.778C145.924 28.528 146.35 27.992 146.35 27.486C146.35 27.181 146.27 27.133 145.765 27.133C145.348 27.133 145.123 27.223 144.984 27.443C144.561 28.118 143.858 27.711 143.858 26.792V26.202H146.35V25.032C146.35 24.312 146.263 23.694 146.124 23.426C145.795 22.793 144.735 22.417 143.927 22.648ZM175.706 22.647C175.444 22.723 175.058 22.966 174.849 23.187C174.492 23.565 174.465 23.719 174.417 25.579C174.376 27.192 174.414 27.66 174.622 28.06C174.899 28.594 175.656 28.994 176.387 28.994C177.035 28.994 177.863 28.382 178.073 27.748C178.295 27.075 178.236 26.978 177.599 26.978C177.205 26.978 177.048 27.067 176.911 27.366C176.865 27.464 176.797 27.5496 176.711 27.6158C176.625 27.6819 176.525 27.7267 176.419 27.7464C176.312 27.766 176.203 27.76 176.099 27.7288C175.996 27.6976 175.901 27.6422 175.823 27.567C175.523 27.269 175.572 24.273 175.881 23.965C176.23 23.618 176.525 23.663 176.819 24.109C177.017 24.409 177.207 24.497 177.663 24.497H178.252L178.126 23.943C177.963 23.223 177.593 22.83 176.898 22.638C176.266 22.463 176.342 22.463 175.706 22.647ZM219.827 22.707C219.499 22.823 219.213 22.942 219.191 22.971C218.667 23.665 218.631 23.841 218.632 25.733C218.632 28.049 218.829 28.544 219.87 28.855C221.021 29.198 222.103 28.653 222.309 27.627C222.407 27.14 222.4 27.133 221.803 27.133C221.367 27.133 221.144 27.22 221.004 27.443C220.581 28.118 219.877 27.711 219.877 26.792V26.202H222.369V24.974C222.369 23.884 222.324 23.692 221.972 23.277C221.614 22.853 221.404 22.737 220.655 22.554C220.527 22.523 220.153 22.592 219.826 22.708L219.827 22.707ZM225.446 22.769C224.987 23.004 224.862 23.022 224.862 22.852C224.862 22.703 224.667 22.636 224.236 22.636H223.611L223.652 27.016L223.694 31.397L224.278 31.445L224.862 31.494V29.994C224.862 28.627 224.886 28.505 225.135 28.609C226.155 29.033 226.232 29.045 226.699 28.852C227.427 28.552 227.54 28.07 227.483 25.526C227.438 23.508 227.399 23.232 227.121 22.96C226.642 22.493 226.107 22.432 225.446 22.77V22.769ZM230.017 22.684C229.007 23.036 228.834 23.481 228.834 25.737C228.834 28.037 229 28.435 230.119 28.829C231.319 29.251 232.648 28.462 232.65 27.327C232.651 27.027 232.569 26.978 232.065 26.978C231.606 26.978 231.445 27.054 231.325 27.327C231.156 27.709 230.68 27.84 230.314 27.605C229.951 27.371 229.979 24.299 230.347 23.932C230.568 23.712 230.683 23.698 231.009 23.846C231.227 23.944 231.405 24.131 231.405 24.261C231.405 24.434 231.576 24.497 232.047 24.497C232.687 24.497 232.689 24.495 232.59 24C232.459 23.349 231.951 22.828 231.26 22.637C230.602 22.455 230.682 22.452 230.017 22.684ZM244.574 22.593C243.428 22.888 243.205 23.474 243.27 26.017C243.314 27.739 243.365 28.079 243.62 28.359C244.404 29.22 246.099 29.116 246.678 28.171C247.15 27.401 247.084 27.133 246.423 27.133C246.039 27.133 245.779 27.237 245.593 27.467C245.385 27.722 245.224 27.776 244.906 27.697C244.533 27.603 244.49 27.521 244.49 26.897V26.203H246.982L246.98 25.078C246.979 24.46 246.891 23.787 246.785 23.581C246.416 22.865 245.356 22.391 244.574 22.593ZM58.0241 25.737V28.839H59.2701V23.877H61.1401V22.637H58.0241V25.737ZM71.0131 22.907C71.0571 23.057 71.4591 24.365 71.9081 25.815C72.3561 27.265 72.7111 28.609 72.6971 28.801C72.6451 29.497 72.2391 30.208 71.8631 30.261C71.5481 30.305 71.5061 30.385 71.5531 30.855C71.5821 31.153 71.6311 31.423 71.6621 31.455C71.8111 31.607 72.8591 31.268 73.1271 30.982C73.3341 30.762 73.7311 29.429 74.3731 26.805C74.8911 24.685 75.3161 22.881 75.3161 22.794C75.3161 22.707 75.0481 22.636 74.7211 22.636H74.1261L73.7571 24.576C73.5541 25.643 73.3411 26.44 73.2841 26.348C73.2271 26.255 72.9781 25.382 72.7321 24.408L72.2851 22.636H71.6091C71.0391 22.636 70.9451 22.679 71.0131 22.908V22.907ZM76.5211 24.536C76.4271 26.69 76.1651 27.649 75.6511 27.726C75.3421 27.771 75.3161 27.866 75.3161 28.927V30.079H75.8511C76.3581 30.079 76.3901 30.048 76.4361 29.498L76.4841 28.916L77.9241 28.872L79.3661 28.827V29.453C79.3661 30.065 79.3781 30.079 79.9111 30.079H80.4561V28.916C80.4561 27.856 80.4281 27.753 80.1451 27.753C79.8451 27.753 79.8331 27.65 79.8331 25.195V22.636H76.6041L76.5211 24.536ZM95.5671 23.179C95.5671 23.709 95.5811 23.722 96.1901 23.722H96.8131V28.839H98.0591V23.722H98.6821C99.2901 23.722 99.3051 23.709 99.3051 23.179V22.636H95.5661L95.5671 23.179ZM100.24 25.722V28.839H101.574C103.07 28.839 103.404 28.719 103.743 28.067C104.095 27.39 104.041 26.602 103.61 26.103L103.241 25.676L103.571 25.411C103.828 25.203 103.901 24.972 103.901 24.359C103.901 23.708 103.827 23.5 103.469 23.144C103.072 22.749 102.924 22.709 101.639 22.66L100.24 22.605V25.722ZM110.21 25.737V28.839H111.443L111.489 27.559L111.534 26.28H112.78L112.825 27.56L112.871 28.839H114.104V22.637H112.858V25.117H111.456V22.637H110.21V25.737ZM115.506 25.737V28.839H116.752V26.203H117.998V28.839H119.244V22.637H117.998V25.117H116.751V22.637H115.505V25.737H115.506ZM120.647 25.737V28.839H122.061C123.416 28.839 123.494 28.819 123.93 28.386C124.335 27.983 124.385 27.826 124.385 26.98C124.385 26.456 124.313 25.893 124.225 25.729C123.993 25.297 123.25 24.962 122.524 24.962H121.893V22.636H120.647V25.737ZM125.164 25.737V28.839H126.41V22.637H125.163L125.164 25.737ZM127.813 25.737V28.839H128.436C128.977 28.839 129.059 28.793 129.062 28.489C129.064 28.298 129.413 27.548 129.838 26.823L130.61 25.505L130.613 27.172L130.617 28.839H131.863V22.637H131.24C130.67 22.637 130.617 22.671 130.617 23.047C130.617 23.273 130.284 24.057 129.877 24.791L129.137 26.125L129.093 24.381L129.049 22.636H127.813V25.737ZM136.225 25.737V28.839H137.471L137.48 27.172L137.489 25.505L137.974 26.714C138.623 28.332 138.894 28.311 139.597 26.59L140.105 25.35L140.112 27.094L140.119 28.839H141.209V22.618L140.646 22.667L140.083 22.715L139.456 24.391C139.111 25.313 138.778 26.011 138.716 25.941C138.654 25.872 138.332 25.101 138 24.227L137.398 22.637H136.225V25.738V25.737ZM148.187 24.613C148.109 26.827 147.846 27.753 147.293 27.753C146.999 27.753 146.973 27.847 146.973 28.916V30.079H148.219V28.839H151.023V30.079H152.269V28.916C152.269 27.779 152.26 27.753 151.879 27.753H151.49V22.636H148.255L148.186 24.613H148.187ZM152.893 25.737V28.839H153.516C154.043 28.839 154.139 28.789 154.139 28.516C154.139 28.339 154.472 27.598 154.879 26.87L155.619 25.546L155.663 27.192L155.707 28.839H156.943V22.637H156.32C155.749 22.637 155.697 22.671 155.697 23.049C155.697 23.277 155.364 24.054 154.957 24.776L154.217 26.089L154.173 24.363L154.129 22.636H152.893V25.737ZM158.345 25.737V28.839H161.772V30.079H163.018V28.916C163.018 27.779 163.01 27.753 162.629 27.753H162.239V22.636H160.993V27.753H159.591V22.636H158.345V25.737ZM163.797 25.737V28.839H164.42C164.972 28.839 165.043 28.797 165.043 28.471C165.043 28.269 165.376 27.519 165.783 26.804L166.523 25.504L166.568 27.172L166.612 28.839H167.846V22.637H167.223C166.648 22.637 166.6 22.669 166.597 23.063C166.595 23.297 166.246 24.083 165.821 24.807L165.049 26.125L165.046 24.381L165.042 22.636H163.796V25.737H163.797ZM169.249 25.737V28.839H170.483L170.528 27.559L170.574 26.28L171.158 26.232L171.742 26.184V28.84H172.988V22.638H171.742V25.118H170.496V22.638H169.248V25.738L169.249 25.737ZM179.375 25.737V28.839H180.621V27.509C180.621 26.234 180.635 26.183 180.959 26.231C181.231 26.271 181.379 26.525 181.711 27.521L182.126 28.761L182.773 28.809L183.421 28.857L182.874 27.293C182.491 26.197 182.37 25.65 182.469 25.463C182.547 25.315 182.66 24.895 182.721 24.528C182.787 24.129 182.952 23.786 183.129 23.676C183.304 23.568 183.425 23.316 183.425 23.064C183.425 22.682 183.369 22.636 182.904 22.636C182.224 22.636 181.908 23.003 181.715 24.016C181.52 25.038 181.469 25.117 181.001 25.117C180.63 25.117 180.621 25.089 180.621 23.877V22.637H179.375V25.737ZM184.36 25.737V28.839H184.983C185.524 28.839 185.607 28.793 185.61 28.489C185.611 28.298 185.96 27.548 186.385 26.823L187.157 25.505L187.16 27.172L187.164 28.839H188.41V22.637H187.787C187.205 22.637 187.164 22.665 187.164 23.081C187.164 23.326 186.831 24.11 186.424 24.825L185.684 26.125L185.64 24.381L185.596 22.636H184.36V25.737ZM189.812 25.737V28.839H190.435C190.977 28.839 191.059 28.793 191.062 28.489C191.064 28.298 191.413 27.548 191.837 26.823L192.609 25.505L192.613 27.172L192.616 28.839H193.862V22.637H193.239C192.657 22.637 192.616 22.665 192.616 23.081C192.616 23.326 192.284 24.11 191.876 24.825L191.136 26.125L191.092 24.381L191.048 22.636H189.812V25.737ZM197.757 22.716C197.757 22.769 198.142 24.059 198.614 25.582C199.085 27.106 199.466 28.514 199.462 28.712C199.443 29.448 199.093 30.142 198.691 30.235C198.369 30.31 198.302 30.418 198.302 30.862C198.302 31.383 198.318 31.397 198.902 31.378C199.992 31.344 200.127 31.07 201.177 26.765C201.695 24.644 202.119 22.847 202.119 22.772C202.119 22.697 201.846 22.636 201.513 22.636H200.908L200.548 24.497C200.35 25.52 200.149 26.357 200.102 26.357C200.054 26.357 199.804 25.537 199.546 24.536L199.077 22.714L198.417 22.666C198.054 22.64 197.757 22.662 197.757 22.716ZM202.897 25.737V28.839H204.131L204.176 27.559L204.222 26.28H205.468L205.513 27.56L205.558 28.839H206.792V22.637H205.546V25.117H204.144V22.637H202.896L202.897 25.737ZM208.194 25.737V28.839H208.817C209.381 28.839 209.44 28.801 209.44 28.444C209.44 28.227 209.773 27.476 210.18 26.777L210.92 25.505L210.964 27.172L211.008 28.839H212.244V22.637H211.621C211.069 22.637 210.998 22.678 210.998 23.003C210.998 23.206 210.665 23.956 210.258 24.671L209.518 25.971L209.474 24.303L209.429 22.636H208.193V25.737H208.194ZM213.646 25.737V28.839H215.039C216.27 28.839 216.481 28.797 216.851 28.481C217.171 28.206 217.286 27.941 217.344 27.346C217.408 26.682 217.363 26.506 217.033 26.123C216.657 25.688 216.655 25.67 216.943 25.436C217.373 25.085 217.473 24.186 217.156 23.52C216.827 22.83 216.307 22.636 214.791 22.636H213.646V25.737ZM233.741 25.737V28.839H234.364C234.916 28.839 234.988 28.797 234.988 28.471C234.988 28.269 235.321 27.519 235.728 26.804L236.467 25.504L236.512 27.172L236.556 28.839H237.792V22.637H237.168C236.593 22.637 236.545 22.669 236.542 23.063C236.54 23.297 236.191 24.083 235.766 24.807L234.994 26.125L234.991 24.381L234.988 22.636H233.74V25.737H233.741ZM238.57 23.17C238.57 23.687 238.591 23.705 239.233 23.752L239.895 23.799L239.937 26.319L239.98 28.839H241.218V23.722H241.841C242.449 23.722 242.464 23.709 242.464 23.179V22.636H238.569L238.57 23.17ZM247.761 23.179C247.761 23.709 247.776 23.722 248.384 23.722H249.008V28.839H250.254V23.722H250.877C251.485 23.722 251.5 23.709 251.5 23.179V22.636H247.761V23.179ZM34.8481 23.189C34.7481 23.369 34.8511 23.573 35.2351 23.955C35.6251 24.344 35.7371 24.569 35.6751 24.835C35.6281 25.033 35.1721 27.602 34.6611 30.544C33.8711 35.1 33.7641 35.924 33.9481 36.107C34.0801 36.239 34.3131 36.285 34.5471 36.227C34.9101 36.136 35.0021 35.842 36.2961 30.663C37.7491 24.84 37.8861 24.497 38.7461 24.497C39.1411 24.497 39.1831 24.454 39.0881 24.148C39.0291 23.956 38.9601 23.776 38.9341 23.747C38.8681 23.671 35.5641 22.959 35.2501 22.952C35.1688 22.9561 35.0898 22.98 35.0198 23.0214C34.9497 23.0629 34.8908 23.1207 34.8481 23.19V23.189ZM36.7851 23.421C37.1781 23.569 37.2841 23.877 36.9421 23.877C36.2471 23.877 34.9691 23.5 34.9691 23.295C34.9691 23.111 35.1091 23.087 35.6951 23.175C36.0941 23.235 36.5851 23.345 36.7851 23.421ZM1.99313 23.491C1.29313 23.6 0.626128 23.721 0.513128 23.759C0.401128 23.798 1.00513 24.179 1.85713 24.606C3.63513 25.497 3.67013 25.319 1.48213 26.493C0.797128 26.861 0.413128 27.147 0.548128 27.19C0.673128 27.23 1.26713 27.307 1.86613 27.361C2.46613 27.415 3.27213 27.5 3.65813 27.549C4.17313 27.615 4.31613 27.592 4.19613 27.464C4.10613 27.368 3.49313 27.244 2.83313 27.189C2.17313 27.133 1.63313 27.041 1.63313 26.985C1.63313 26.929 2.19313 26.585 2.87913 26.222C3.56413 25.858 4.12513 25.534 4.12513 25.502C4.12513 25.469 3.51213 25.152 2.76213 24.795C1.44713 24.171 1.41513 24.145 1.86613 24.027C2.12313 23.96 2.73613 23.859 3.22913 23.802C3.85313 23.731 4.12513 23.632 4.12513 23.478C4.12513 23.213 3.76013 23.216 1.99313 23.491ZM64.1691 24.066C64.4531 24.471 64.5131 26.964 64.2491 27.453C64.0321 27.858 63.3791 27.843 63.1561 27.427C62.8891 26.93 63.0221 24.061 63.3211 23.873C63.6861 23.643 63.9061 23.693 64.1691 24.066ZM78.5871 25.737V27.753H77.2291L77.4391 26.944C77.563 26.4425 77.6337 25.9294 77.6501 25.413C77.6501 24.159 77.7961 23.722 78.2151 23.722H78.5851V25.737H78.5871ZM88.6991 23.938C88.8171 24.08 88.8641 24.725 88.8351 25.821C88.7981 27.209 88.7451 27.516 88.5181 27.658C88.3191 27.783 88.1711 27.783 87.9721 27.658C87.5781 27.411 87.4861 24.344 87.8621 23.97C88.1691 23.664 88.4621 23.653 88.6991 23.938ZM102.488 23.965C102.622 24.099 102.732 24.293 102.732 24.396C102.732 24.774 102.24 25.272 101.867 25.272C101.514 25.272 101.486 25.216 101.486 24.497C101.486 23.779 101.514 23.722 101.865 23.722C102.073 23.722 102.353 23.832 102.488 23.965ZM107.53 23.908C107.633 24.01 107.717 24.359 107.717 24.683C107.717 25.267 107.712 25.273 107.094 25.273C106.472 25.273 106.471 25.271 106.471 24.66C106.471 23.871 107.068 23.447 107.53 23.908ZM144.917 23.908C145.02 24.01 145.104 24.359 145.104 24.683C145.104 25.267 145.098 25.273 144.481 25.273C143.859 25.273 143.858 25.271 143.858 24.66C143.858 23.871 144.454 23.447 144.917 23.908ZM150.245 25.738V27.753H148.873L149.083 27.059C149.199 26.677 149.342 25.769 149.401 25.043C149.503 23.788 149.527 23.722 149.877 23.722C150.245 23.722 150.245 23.722 150.245 25.737V25.738ZM215.894 23.965C216.399 24.468 216.015 25.272 215.271 25.272C214.92 25.272 214.892 25.214 214.892 24.497C214.892 23.779 214.92 23.722 215.271 23.722C215.479 23.722 215.759 23.832 215.894 23.965ZM220.936 23.908C221.039 24.01 221.123 24.359 221.123 24.683C221.123 25.267 221.118 25.273 220.5 25.273C219.878 25.273 219.877 25.271 219.877 24.66C219.877 23.871 220.474 23.447 220.936 23.908ZM226.019 23.965C226.21 24.155 226.264 24.56 226.264 25.795C226.264 27.429 226.156 27.753 225.613 27.753C225.052 27.753 224.827 27.09 224.885 25.609C224.954 23.876 225.351 23.301 226.019 23.965ZM245.435 23.882C245.655 23.999 245.736 24.208 245.736 24.658C245.736 25.271 245.735 25.272 245.113 25.272C244.495 25.272 244.49 25.267 244.49 24.683C244.49 23.835 244.821 23.554 245.435 23.882ZM46.1851 24.348C46.1851 24.436 46.5051 24.644 46.8951 24.811L47.6051 25.113L47.5571 25.84C47.5111 26.546 47.4901 26.572 46.8361 26.789C46.2301 26.989 45.8691 27.335 46.0641 27.529C46.1441 27.609 49.5971 26.232 49.8321 26.028C49.9121 25.958 49.8061 25.84 49.5941 25.76C49.3841 25.68 48.5601 25.295 47.7601 24.902C46.1511 24.11 46.1851 24.122 46.1851 24.348ZM13.4741 24.458C13.4741 24.522 13.7201 25.615 14.0201 26.887C14.4881 28.875 14.5831 29.565 14.3521 29.291C14.2801 29.205 13.1601 24.705 13.1601 24.501C13.1601 24.413 13.2301 24.341 13.3161 24.341C13.4021 24.341 13.4731 24.394 13.4741 24.458ZM14.9911 24.775C15.2651 25.122 15.2361 25.322 14.8381 25.825L14.4901 26.265L14.3051 25.653C14.2031 25.315 14.1141 24.878 14.1071 24.68C14.0971 24.379 14.1511 24.338 14.4451 24.425C14.6381 24.482 14.8841 24.639 14.9911 24.775ZM36.5161 24.562C36.6591 24.733 36.4441 25.969 35.5281 30.242C34.8841 33.245 34.3201 35.739 34.2741 35.785C34.2517 35.807 34.2215 35.8193 34.1901 35.8193C34.1587 35.8193 34.1286 35.807 34.1061 35.785C33.9491 35.628 35.9731 24.342 36.1571 24.342C36.2541 24.342 36.4151 24.441 36.5161 24.562ZM49.1121 25.737C49.2861 25.737 49.0341 25.89 48.4751 26.122L47.8991 26.362V25.268L48.4631 25.503C48.7731 25.632 49.0641 25.737 49.1121 25.737ZM83.4821 26.142C83.8131 26.269 83.8061 27.255 83.4701 27.625C83.1191 28.011 82.8481 27.981 82.5461 27.522C82.1281 26.888 82.3601 26.376 83.2081 26.057C83.302 26.0751 83.3946 26.1036 83.4821 26.142ZM122.952 26.234C123.055 26.336 123.139 26.636 123.139 26.9C123.139 27.496 122.895 27.753 122.329 27.753C121.904 27.753 121.893 27.731 121.893 26.9C121.893 26.07 121.904 26.048 122.329 26.048C122.569 26.048 122.85 26.131 122.952 26.234ZM102.545 26.389C102.648 26.491 102.732 26.756 102.732 26.978C102.732 27.499 102.467 27.753 101.922 27.753C101.503 27.753 101.486 27.723 101.486 26.978C101.486 26.232 101.503 26.203 101.922 26.203C102.162 26.203 102.443 26.286 102.545 26.389ZM215.952 26.389C216.054 26.491 216.138 26.756 216.138 26.978C216.138 27.499 215.873 27.753 215.328 27.753C214.909 27.753 214.892 27.723 214.892 26.978C214.892 26.232 214.909 26.203 215.328 26.203C215.568 26.203 215.849 26.286 215.952 26.389ZM13.8621 28.54C13.9911 29.3 13.9431 29.369 13.5011 29.06C13.1241 28.798 13.0581 28.383 13.3461 28.096C13.6521 27.791 13.7491 27.876 13.8621 28.54ZM3.25713 30.79C2.99213 32.552 3.53713 33.906 5.15913 35.508C6.39013 36.724 8.43413 39.384 8.13813 39.384C8.04313 39.384 7.49213 38.929 6.91413 38.373C6.28413 37.768 5.50413 37.199 4.97013 36.956C4.07713 36.549 1.89013 36.13 1.69013 36.328C1.48613 36.531 2.70013 38.1 3.44013 38.588C4.43013 39.241 5.49713 39.539 6.84013 39.54C8.17713 39.54 8.50713 39.702 10.1551 41.167C10.7304 41.6826 11.3179 42.1844 11.9171 42.672C12.6361 43.229 12.1641 43.247 11.3511 42.694C10.3711 42.028 9.23113 41.567 8.24213 41.437C7.35913 41.321 5.43013 41.444 5.24613 41.627C5.08313 41.789 6.22113 42.82 7.00613 43.222C8.03613 43.751 9.77013 43.872 11.0361 43.506C12.1521 43.183 12.8061 43.29 13.9771 43.989C14.6498 44.3741 15.3425 44.7233 16.0521 45.035C17.5141 45.667 17.1621 45.883 15.5561 45.338C14.2193 44.8802 12.7719 44.8571 11.4211 45.272C10.8751 45.439 10.2981 45.672 10.1371 45.789C9.85913 45.991 9.86713 46.016 10.2981 46.322C11.7291 47.336 13.9321 47.4 15.7361 46.48C17.1471 45.761 17.5891 45.697 18.7461 46.046C19.2701 46.204 20.3321 46.455 21.1061 46.603C21.8791 46.753 22.4781 46.907 22.4361 46.948C22.3961 46.988 21.5361 47.035 20.5261 47.052C19.0471 47.075 18.5221 47.148 17.8331 47.422C16.9381 47.777 15.4961 48.744 15.4961 48.988C15.4961 49.258 16.6701 49.534 17.7671 49.522C19.1541 49.507 20.2411 49.042 21.4631 47.94C22.4031 47.092 23.0381 46.873 24.0161 47.055L24.5921 47.163L23.7901 47.624C22.9321 48.117 21.4151 49.4 21.4151 49.633C21.4151 50.023 22.1851 49.697 22.8461 49.024C23.2481 48.617 23.9311 48.091 24.3661 47.856L25.1541 47.428L25.9631 47.864C26.4081 48.104 27.1051 48.632 27.5131 49.037C28.1781 49.697 28.8931 50.007 28.8931 49.633C28.8931 49.4 27.3521 48.095 26.5411 47.641C25.7251 47.185 25.7981 47.016 26.8211 46.993C27.5591 46.977 28.0311 47.25 28.5791 48.01C28.9151 48.476 29.1811 48.688 29.4291 48.688C29.6441 48.688 29.8961 48.847 30.0491 49.078C30.2441 49.375 30.3921 49.445 30.6741 49.375C30.9111 49.315 31.0911 49.362 31.1761 49.505C31.3811 49.853 31.9351 50.095 32.1151 49.915C32.2171 49.815 32.4121 49.816 32.6891 49.921C32.9531 50.021 33.2091 50.026 33.3771 49.936C33.5241 49.857 33.8371 49.752 34.0721 49.702C34.5831 49.595 34.6771 49.015 34.2041 48.892C34.1164 48.8639 34.0367 48.8154 33.9714 48.7503C33.9062 48.6853 33.8575 48.6057 33.8291 48.518C33.7811 48.338 33.5601 48.183 33.2691 48.125C33.0041 48.072 32.7871 47.938 32.7871 47.826C32.7871 47.565 32.2571 47.398 31.8411 47.529C31.6251 47.597 31.4531 47.542 31.3211 47.361C31.1791 47.169 30.9931 47.117 30.6701 47.179C30.3731 47.236 30.1221 47.182 29.9431 47.021C29.7131 46.816 29.5481 46.803 28.9321 46.944C28.5271 47.036 28.1021 47.059 27.9881 46.996C27.8661 46.928 28.3501 46.77 29.1541 46.614C29.9679 46.4538 30.7751 46.2623 31.5741 46.04C32.8241 45.672 33.2701 45.749 34.0841 46.472C34.4741 46.82 34.8041 46.985 35.0421 46.954C35.2421 46.928 35.5501 47.037 35.7271 47.197C35.9221 47.373 36.1771 47.453 36.3741 47.402C36.5531 47.355 36.9041 47.434 37.1541 47.576C37.5321 47.791 37.6641 47.802 37.9261 47.639C38.1011 47.531 38.4061 47.483 38.6031 47.533C38.8311 47.589 39.0381 47.533 39.1661 47.38C39.2771 47.247 39.4911 47.138 39.6411 47.138C40.0711 47.138 40.3471 46.725 40.1091 46.44C40.0021 46.312 39.8351 46.207 39.7381 46.207C39.6401 46.207 39.4701 46.063 39.3591 45.887C39.2011 45.633 39.0611 45.587 38.6991 45.666C38.3411 45.744 38.2391 45.712 38.2391 45.522C38.2391 45.241 37.6091 45.187 37.1541 45.429C36.9421 45.542 36.8461 45.522 36.7801 45.351C36.6731 45.073 36.1921 45.051 35.9301 45.311C35.7801 45.461 35.6721 45.46 35.4201 45.303C35.1691 45.147 34.9801 45.143 34.5291 45.289C34.2131 45.389 33.8831 45.529 33.7941 45.599C33.7061 45.667 33.5441 45.669 33.4361 45.602C33.3041 45.522 33.5161 45.365 34.0641 45.14C34.5181 44.953 35.4951 44.454 36.2341 44.03C36.9741 43.607 37.7561 43.26 37.9731 43.26C38.1891 43.26 38.7301 43.448 39.1731 43.678C39.8431 44.024 40.0311 44.063 40.2801 43.908C40.5221 43.757 40.6551 43.77 40.9711 43.977C41.3291 44.21 41.3871 44.211 41.6351 43.987C41.8211 43.819 41.9801 43.787 42.1371 43.887C42.5121 44.122 43.2241 44.067 43.2241 43.804C43.2241 43.649 43.3791 43.571 43.6861 43.571C43.9831 43.571 44.2061 43.464 44.3091 43.271C44.4207 43.0877 44.5903 42.9469 44.7911 42.871C45.2821 42.715 45.1321 42.111 44.5871 42.049C44.3521 42.022 44.1591 41.925 44.1591 41.835C44.1591 41.733 43.9511 41.703 43.6171 41.757C43.3181 41.805 43.0341 41.78 42.9841 41.7C42.8441 41.473 42.2641 41.53 41.9641 41.8C41.7571 41.987 41.6201 42.006 41.3841 41.881C41.1441 41.753 40.9941 41.782 40.6951 42.016C40.4591 42.2 40.1851 42.281 39.9751 42.226C39.7551 42.169 39.4151 42.283 39.0051 42.554C38.0881 43.157 37.9421 42.968 38.8181 42.312C39.2281 42.006 40.0701 41.287 40.6881 40.714C41.9091 39.584 42.0051 39.554 43.6531 39.778C44.2261 39.856 44.4711 39.836 44.4711 39.712C44.4711 39.593 44.6731 39.568 45.0911 39.634C45.5911 39.714 45.7311 39.682 45.8131 39.47C45.8871 39.28 46.0211 39.233 46.2961 39.301C46.8261 39.434 47.2751 39.262 47.2751 38.928C47.2751 38.74 47.4291 38.617 47.7421 38.555C48.0301 38.497 48.2091 38.365 48.2091 38.211C48.2091 38.073 48.3671 37.831 48.5591 37.674C48.8291 37.454 48.8741 37.328 48.7521 37.13C48.5651 36.825 47.3621 36.69 46.9231 36.924C46.7201 37.032 46.5651 37.024 46.4121 36.898C46.2371 36.753 46.0991 36.809 45.7341 37.172C45.4121 37.492 45.2061 37.589 45.0411 37.497C44.8041 37.365 44.3151 37.703 44.3151 38C44.3151 38.079 44.1101 38.144 43.8601 38.144C43.5211 38.144 43.2681 38.303 42.8711 38.764C41.8581 39.942 42.0031 39.38 43.0791 37.953C43.6731 37.165 44.1591 36.474 44.1591 36.417C44.1591 36.359 44.4751 36.128 44.8601 35.903C45.3681 35.607 45.5611 35.397 45.5611 35.138C45.5611 34.905 45.7011 34.718 45.9681 34.598C46.2881 34.452 46.3581 34.33 46.3001 34.024C46.2481 33.754 46.3121 33.59 46.5131 33.483C46.9181 33.267 47.1891 32.723 46.9891 32.526C46.8821 32.419 46.8841 32.252 46.9961 32.009C47.0861 31.812 47.1061 31.524 47.0381 31.369C46.9659 31.1763 46.9352 30.9705 46.9481 30.765C46.9511 30.6641 46.9321 30.5638 46.8926 30.4709C46.8531 30.3781 46.7939 30.2949 46.7191 30.227C46.4951 30.042 46.4251 30.054 46.1981 30.317C46.0531 30.486 45.7981 30.7 45.6311 30.794C45.4641 30.888 45.3061 31.108 45.2801 31.282C45.2623 31.3732 45.2205 31.458 45.159 31.5276C45.0974 31.5972 45.0184 31.6491 44.9301 31.678C44.6911 31.74 44.6261 31.894 44.6261 32.397C44.6261 32.834 44.5491 33.066 44.3831 33.129C44.2131 33.194 44.1531 33.384 44.1851 33.752C44.2141 34.092 44.1481 34.333 44.0001 34.424C43.8341 34.527 43.7781 34.812 43.8001 35.447C43.8351 36.417 43.6031 36.862 42.1561 38.609C41.7681 39.078 41.4291 39.491 41.4031 39.526C41.3761 39.562 41.3201 39.556 41.2771 39.513C41.2341 39.471 41.4531 39.111 41.7631 38.715C42.1711 38.194 42.3021 37.897 42.2361 37.646C42.1741 37.412 42.2551 37.183 42.4841 36.94C42.7621 36.646 42.7911 36.527 42.6441 36.293C42.5041 36.071 42.5131 35.943 42.6841 35.718C42.9401 35.381 42.9811 34.792 42.7571 34.655C42.6711 34.602 42.6011 34.326 42.6011 34.042C42.6011 33.738 42.5101 33.49 42.3801 33.44C42.2581 33.394 42.1351 33.194 42.1071 32.997C42.0351 32.491 41.4211 32.42 41.2671 32.901C41.2051 33.097 41.0491 33.334 40.9201 33.428C40.7691 33.538 40.7151 33.748 40.7681 34.022C40.8211 34.3 40.7751 34.475 40.6351 34.529C40.3911 34.621 40.3521 35.315 40.5711 35.659C40.6681 35.813 40.6441 35.968 40.4961 36.13C40.3061 36.34 40.3061 36.432 40.4991 36.802C40.6671 37.125 40.6801 37.3 40.5521 37.505C40.4201 37.715 40.4571 37.949 40.7181 38.535C41.2081 39.637 41.0711 39.995 39.7251 41.136C38.3331 42.316 37.1491 43.17 37.1491 42.993C37.1491 42.921 37.4651 42.599 37.8501 42.278C38.2641 41.934 38.5511 41.564 38.5511 41.376C38.5511 41.201 38.7291 40.918 38.9461 40.748C39.2121 40.539 39.3111 40.345 39.2501 40.152C39.1931 39.975 39.2801 39.743 39.4781 39.547C39.8121 39.215 39.9141 38.609 39.6361 38.609C39.5251 38.609 39.5251 38.516 39.6361 38.309C39.8491 37.913 39.8421 37.369 39.6231 37.369C39.5281 37.369 39.4831 37.239 39.5251 37.08C39.6201 36.718 39.3851 36.283 39.0931 36.283C38.9721 36.283 38.7681 36.475 38.6401 36.709C38.5121 36.944 38.4051 37.075 38.4021 37.001C38.3881 36.695 37.9281 37.279 37.9281 37.601C37.9281 37.83 37.8111 37.983 37.5951 38.039C37.3031 38.115 37.2721 38.206 37.3481 38.765C37.4131 39.25 37.3771 39.426 37.1981 39.495C37.0181 39.563 36.9841 39.728 37.0571 40.182C37.1111 40.522 37.0891 40.78 37.0061 40.78C36.7431 40.78 36.6621 41.37 36.8351 42.01C37.1221 43.07 36.8141 43.428 34.7701 44.411C32.6721 45.421 32.2831 45.551 32.4151 45.209C32.4453 45.1401 32.494 45.081 32.5558 45.0381C32.6176 44.9952 32.69 44.9702 32.7651 44.966C33.1641 44.965 34.0581 44.363 34.1441 44.038C34.1861 43.878 34.4321 43.672 34.6911 43.582C35.0571 43.455 35.1431 43.349 35.0791 43.104C35.0171 42.872 35.1091 42.731 35.4301 42.566C35.9301 42.308 36.1071 41.976 35.8701 41.739C35.7541 41.624 35.7751 41.505 35.9421 41.339C36.2411 41.042 36.2641 39.618 35.9731 39.378C35.8191 39.251 35.6861 39.29 35.4401 39.535C35.2601 39.714 35.0441 39.819 34.9611 39.768C34.8781 39.716 34.6871 39.888 34.5381 40.148C34.3891 40.409 34.1521 40.623 34.0111 40.624C33.7261 40.624 33.5661 40.932 33.5661 41.48C33.5661 41.708 33.4501 41.881 33.2551 41.943C33.0291 42.014 32.9431 42.177 32.9431 42.536C32.9431 42.863 32.8371 43.096 32.6311 43.225C32.3931 43.373 32.3191 43.59 32.3141 44.154C32.3061 45.288 31.9101 45.659 30.2941 46.044C28.6981 46.424 26.8291 46.624 27.1791 46.377C27.3081 46.286 27.6011 46.211 27.8311 46.209C28.4391 46.206 29.0491 45.939 29.0491 45.678C29.0491 45.536 29.2371 45.433 29.5551 45.403C29.8911 45.371 30.1101 45.244 30.2051 45.026C30.2851 44.846 30.5871 44.613 30.8771 44.509C31.2841 44.363 31.3931 44.244 31.3551 43.984C31.3251 43.779 31.4471 43.536 31.6671 43.358C31.8651 43.199 31.9921 42.978 31.9491 42.866C31.9061 42.754 31.9541 42.446 32.0541 42.18C32.2781 41.591 31.9951 41.31 31.4721 41.598C31.2961 41.694 31.0351 41.756 30.8931 41.734C30.7511 41.713 30.5231 41.854 30.3871 42.047C30.2511 42.241 29.9891 42.401 29.8071 42.404C29.4811 42.408 29.3131 42.596 29.1431 43.144C29.1133 43.2223 29.0608 43.2899 28.9924 43.3384C28.9241 43.3868 28.8429 43.4138 28.7591 43.416C28.4481 43.416 28.2691 43.699 28.2691 44.193C28.2691 44.373 28.1391 44.498 27.9191 44.529C27.6531 44.567 27.5071 44.765 27.3111 45.354C26.6021 47.481 23.7431 47.389 22.4651 45.199C22.147 44.6824 21.7778 44.1989 21.3631 43.756C20.3591 42.721 17.5181 41.452 17.5231 42.04C17.5261 42.457 18.2781 43.856 18.8211 44.454C19.5081 45.211 20.7391 45.842 21.9611 46.063C22.4751 46.156 22.9661 46.305 23.0511 46.394C23.2661 46.618 21.7041 46.437 20.0101 46.042C18.8591 45.774 18.6251 45.662 18.2531 45.198C18.0171 44.903 17.6851 44.215 17.5151 43.666C17.0991 42.326 16.0871 40.991 14.8751 40.186C14.3401 39.83 13.8311 39.539 13.7431 39.539C13.4901 39.539 13.7161 41.127 14.0891 41.969C14.5381 42.984 15.6621 44.084 16.7451 44.568C17.7241 45.005 18.3921 45.575 17.6751 45.361C17.4621 45.297 16.5161 44.876 15.5741 44.426C13.5421 43.456 13.1591 42.99 13.1591 41.49C13.1591 39.893 12.3601 38.106 11.1031 36.891C10.3161 36.131 10.2051 36.241 10.2021 37.789C10.1981 39.683 10.8891 40.956 12.7311 42.447C12.9671 42.637 13.1591 42.87 13.1591 42.963C13.1591 43.162 12.2791 42.541 10.7251 41.245C9.42213 40.158 9.16513 39.555 9.44713 38.242C9.71713 36.987 9.54713 35.109 9.06613 34.065C8.83813 33.57 8.50913 32.985 8.33613 32.765L8.01913 32.365L7.67113 33.122C7.40213 33.705 7.32213 34.165 7.32213 35.12C7.32213 36.522 7.60813 37.316 8.55213 38.549C8.85913 38.947 9.10913 39.369 9.10913 39.484C9.10913 39.767 8.25213 38.803 7.18113 37.314C6.42113 36.258 6.30513 35.999 6.30113 35.375C6.29313 33.745 5.57413 32.02 4.40713 30.827C4.00613 30.417 3.60713 30.08 3.52113 30.08C3.43513 30.08 3.31613 30.4 3.25713 30.79ZM15.1771 31.867C15.3661 32.679 15.4951 33.416 15.4661 33.505C15.4361 33.594 15.2291 32.929 15.0071 32.028C14.7851 31.128 14.6551 30.39 14.7191 30.39C14.7821 30.39 14.9891 31.055 15.1771 31.867ZM15.9321 30.793C15.9416 30.8891 15.929 30.9862 15.8952 31.0766C15.8614 31.1671 15.8073 31.2487 15.7371 31.315C15.5391 31.478 15.4961 31.475 15.4941 31.301C15.4797 31.1059 15.4462 30.9126 15.3941 30.724C15.3141 30.424 15.3491 30.369 15.5911 30.415C15.7531 30.446 15.9071 30.616 15.9321 30.793ZM46.4441 30.894C45.4411 33.282 44.2541 35.818 44.1421 35.818C43.8861 35.818 43.9901 34.755 44.2601 34.605C44.4511 34.498 44.4921 34.337 44.4201 33.98C44.3431 33.593 44.3871 33.464 44.6461 33.326C44.9111 33.186 44.9501 33.061 44.8681 32.624C44.7791 32.156 44.8141 32.077 45.1641 31.944C45.4441 31.838 45.5611 31.679 45.5611 31.402C45.5611 31.119 45.6441 31.011 45.8621 31.011C46.0281 31.011 46.2081 30.871 46.2621 30.701C46.3161 30.53 46.4271 30.391 46.5081 30.391C46.5891 30.391 46.5601 30.617 46.4441 30.894ZM5.04713 32.092C5.63113 33.017 6.02513 34.264 5.96413 34.996L5.91613 35.586L5.50413 34.81C5.07413 33.998 3.65713 30.76 3.65713 30.587C3.65713 30.376 4.62613 31.425 5.04713 32.092ZM41.5081 36.087C41.4011 37.559 41.2611 38.764 41.1981 38.764C41.1331 38.764 40.9911 38.547 40.8801 38.281C40.7201 37.897 40.7181 37.735 40.8701 37.493C41.0271 37.243 41.0151 37.116 40.8041 36.795C40.5741 36.445 40.5711 36.376 40.7791 36.17C40.9821 35.967 40.9841 35.87 40.7951 35.417C40.5951 34.944 40.6021 34.885 40.8621 34.746C41.0721 34.634 41.1291 34.468 41.0781 34.122C41.0281 33.786 41.0811 33.622 41.2601 33.554C41.3981 33.502 41.5191 33.309 41.5291 33.126C41.5461 32.815 41.5521 32.813 41.6251 33.102C41.6681 33.271 41.6151 34.614 41.5081 36.087ZM15.0281 33.268C15.0281 33.401 14.9581 33.467 14.8731 33.414C14.7871 33.361 14.7171 33.253 14.7171 33.172C14.7171 33.092 14.7871 33.027 14.8731 33.027C14.9581 33.027 15.0281 33.135 15.0281 33.268ZM8.97113 34.568C9.33913 35.528 9.45013 37.692 9.15813 38.208C9.01413 38.463 8.96513 38.39 8.81413 37.685C8.52713 36.355 8.17513 34.071 8.18013 33.569C8.18413 33.127 8.19513 33.119 8.41313 33.405C8.53913 33.57 8.79013 34.094 8.97113 34.568ZM139.287 33.75C139.23 33.807 139.183 35.796 139.183 38.17V42.486H139.806C140.39 42.486 140.43 42.456 140.43 42.038C140.43 41.792 140.915 40.588 141.508 39.363L142.586 37.136L142.598 39.811L142.61 42.486H143.857V33.646H143.234C142.631 33.646 142.61 33.664 142.61 34.166C142.61 34.493 142.218 35.492 141.559 36.842L140.507 38.996L140.465 36.322L140.422 33.647H139.907C139.623 33.647 139.344 33.693 139.287 33.75ZM148.686 38.066V42.486H149.932V34.716L150.75 34.763L151.568 34.81L151.609 38.648L151.651 42.485H152.892V33.647H148.686V38.066ZM157.721 38.066V42.486H158.967V34.732H160.525V42.486H161.771V33.646H157.721V38.066ZM15.9371 35.275C15.9331 35.525 15.9071 35.509 15.8071 35.197C15.6371 34.667 15.6371 34.26 15.8071 34.655C15.8811 34.825 15.9391 35.105 15.9371 35.275ZM16.4621 35.073C16.3171 35.218 16.2751 35.177 16.2751 34.887C16.2751 34.597 16.3171 34.557 16.4621 34.701C16.6071 34.846 16.6071 34.929 16.4621 35.073ZM16.0701 36.002C16.0201 36.125 15.9831 36.089 15.9761 35.908C15.9691 35.745 16.0061 35.653 16.0571 35.705C16.1091 35.756 16.1151 35.89 16.0701 36.002ZM22.7801 36.139C22.2801 36.429 22.1451 36.882 22.4291 37.314C22.6611 37.667 22.6631 37.721 22.4421 37.885C22.3081 37.985 22.1551 38.288 22.1021 38.56C21.9181 39.487 23.0341 40.155 23.9571 39.671C24.1441 39.573 24.3491 39.416 24.4121 39.322C24.6321 38.994 24.5291 38.296 24.2141 37.983C23.9291 37.699 23.9211 37.643 24.1361 37.429C24.5591 37.009 24.4191 36.475 23.8011 36.151C23.3891 35.935 23.1371 35.932 22.7801 36.139ZM25.5431 36.321C24.4631 37.247 25.4911 38.794 26.7431 38.127C27.0431 37.967 27.0581 37.987 26.9561 38.398C26.7661 39.17 26.4331 39.539 25.9291 39.539C25.6741 39.539 25.4661 39.609 25.4661 39.694C25.4661 39.921 26.0381 39.884 26.5431 39.624C27.1871 39.292 27.5411 38.436 27.4561 37.417C27.3781 36.477 27.1631 36.179 26.4631 36.039C26.0921 35.966 25.8851 36.029 25.5431 36.321ZM20.3411 36.421C20.0381 36.582 19.8841 36.746 19.9801 36.805C20.0721 36.862 20.1921 36.837 20.2461 36.751C20.5181 36.311 20.6361 36.734 20.6361 38.144C20.6361 39.419 20.6781 39.694 20.8701 39.694C21.0641 39.694 21.1041 39.393 21.1041 37.911C21.1041 36.931 21.0511 36.131 20.9871 36.134C20.9231 36.138 20.6321 36.267 20.3411 36.421ZM28.0001 36.321C28.0461 36.456 28.3461 36.499 28.9701 36.461C30.0401 36.397 30.0421 36.334 28.8831 38.252C28.4601 38.952 28.1141 39.562 28.1141 39.609C28.1141 39.656 28.2191 39.694 28.3481 39.694C28.4761 39.694 28.5811 39.631 28.5811 39.554C28.5811 39.476 28.9951 38.674 29.5011 37.77L30.4211 36.128H29.1761C28.2491 36.128 27.9491 36.177 28.0001 36.321ZM70.8461 36.355C70.0421 36.703 69.8621 37.251 69.8651 39.338C69.8671 41.304 69.9801 41.712 70.6591 42.214C71.7531 43.022 73.6011 42.224 73.6011 40.943C73.6011 40.675 73.5021 40.625 72.9781 40.625C72.5531 40.625 72.3551 40.693 72.3551 40.838C72.3551 41.242 71.9161 41.463 71.4931 41.271C71.1771 41.128 71.1091 40.986 71.1091 40.473V39.849H73.6011V38.679C73.6011 37.275 73.3331 36.659 72.5831 36.349C71.9281 36.076 71.4871 36.077 70.8461 36.355ZM89.3841 36.43C88.8341 36.763 88.5561 37.18 88.5561 37.668C88.5561 38.116 89.4861 38.124 89.7661 37.678C90.1981 36.989 91.0481 37.445 91.0481 38.366C91.0481 38.735 90.9961 38.764 90.3391 38.764C89.3641 38.764 88.7791 39.099 88.5511 39.787C88.2921 40.567 88.4341 41.813 88.8261 42.203C89.2781 42.653 90.1601 42.642 90.6551 42.179L91.0481 41.811V42.148C91.0481 42.438 91.1351 42.485 91.6711 42.485H92.2941V40.067C92.2941 38.127 92.2431 37.54 92.0341 37.101C91.5931 36.176 90.3291 35.855 89.3841 36.43ZM96.8671 36.282C96.4201 36.462 96.3091 36.659 96.0331 37.756C95.8241 38.588 95.7531 38.692 95.3711 38.736L94.9431 38.785V36.283H93.6961V42.486H94.9431V41.167C94.9431 39.897 94.9551 39.849 95.3001 39.849C95.6101 39.849 95.7131 40.021 96.0881 41.168L96.5201 42.486H97.1431C97.8571 42.486 97.8591 42.632 97.1201 40.601C96.7201 39.498 96.7031 39.367 96.8951 38.741C97.0091 38.37 97.1431 37.874 97.1931 37.64C97.2431 37.405 97.3891 37.213 97.5161 37.213C97.6761 37.213 97.7461 37.047 97.7461 36.671C97.7461 36.091 97.5531 36.006 96.8661 36.281L96.8671 36.282ZM99.6491 36.353C99.1851 36.561 98.6811 37.33 98.6811 37.829C98.6811 38.143 99.7861 38.005 100.071 37.655C100.278 37.4 100.441 37.346 100.758 37.425C101.118 37.515 101.174 37.609 101.174 38.127V38.725L100.308 38.797C99.0821 38.898 98.7871 39.23 98.7091 40.597C98.6561 41.537 98.6911 41.704 99.0201 42.085C99.4771 42.615 100.367 42.699 100.855 42.259C101.139 42.003 101.174 42 101.174 42.229C101.174 42.425 101.321 42.486 101.797 42.486H102.42V37.218L101.986 36.735C101.463 36.153 100.461 35.988 99.6491 36.353ZM109.946 36.43C109.673 36.596 109.375 36.87 109.284 37.04C109.192 37.21 109.118 38.218 109.118 39.304C109.118 41.834 109.236 42.095 110.556 42.49C111.491 42.77 112.601 42.091 112.796 41.121C112.895 40.628 112.892 40.625 112.264 40.625C111.774 40.625 111.61 40.693 111.535 40.927C111.413 41.31 110.887 41.483 110.591 41.239C110.464 41.134 110.365 40.787 110.365 40.451V39.849H112.857V38.749C112.857 37.406 112.561 36.709 111.848 36.372C111.157 36.046 110.548 36.065 109.946 36.43ZM129.108 36.31C128.748 36.485 128.52 36.952 128.369 37.819C128.251 38.496 128.022 38.764 127.559 38.764C127.2 38.764 127.188 38.726 127.188 37.524V36.283H125.942V42.486H127.188V39.829L127.605 39.878C127.975 39.922 128.066 40.063 128.435 41.168L128.849 42.408L129.499 42.456L130.15 42.503L129.606 40.988C129.159 39.744 129.089 39.388 129.211 39.002C129.293 38.743 129.402 38.262 129.453 37.932C129.518 37.512 129.638 37.31 129.855 37.253C130.095 37.191 130.154 37.064 130.118 36.689C130.065 36.153 129.704 36.017 129.108 36.309V36.31ZM132.067 36.355C131.581 36.565 131.083 37.271 131.083 37.748C131.083 38.115 132.04 38.063 132.371 37.678C132.899 37.064 133.575 37.386 133.575 38.252V38.764H132.784C131.763 38.764 131.18 39.282 131.023 40.329C130.86 41.406 131.182 42.209 131.862 42.429C132.468 42.623 133.061 42.48 133.381 42.061C133.555 41.832 133.575 41.841 133.575 42.146C133.575 42.439 133.661 42.486 134.198 42.486H134.822V39.996C134.822 37.239 134.704 36.781 133.892 36.363C133.331 36.074 132.721 36.072 132.067 36.355ZM164.341 36.275C163.894 36.457 163.497 36.941 163.335 37.502C163.196 37.985 163.199 37.989 163.77 37.989C164.176 37.989 164.402 37.898 164.539 37.679C164.972 36.989 165.821 37.445 165.821 38.366C165.821 38.735 165.77 38.764 165.113 38.764C164.138 38.764 163.552 39.099 163.324 39.787C163.065 40.567 163.208 41.813 163.599 42.203C164.052 42.653 164.933 42.642 165.428 42.179L165.821 41.811V42.148C165.821 42.439 165.908 42.485 166.458 42.485H167.094L167.042 39.888C166.985 37.034 166.91 36.775 166.033 36.36C165.498 36.108 164.833 36.074 164.341 36.274V36.275ZM179.374 36.469C178.595 36.995 178.397 37.704 178.476 39.694C178.543 41.42 178.687 41.87 179.296 42.267C179.809 42.602 180.965 42.601 181.48 42.265C182.189 41.803 182.371 41.095 182.31 39.045C182.256 37.237 182.251 37.215 181.769 36.735C181.092 36.061 180.135 35.955 179.374 36.469ZM189.533 36.353C189.069 36.561 188.565 37.33 188.565 37.829C188.565 38.143 189.67 38.005 189.955 37.655C190.162 37.4 190.324 37.346 190.642 37.425C191.005 37.516 191.057 37.607 191.057 38.147V38.764H190.266C189.6 38.764 189.404 38.835 189.02 39.217C188.61 39.626 188.565 39.771 188.565 40.682C188.565 41.51 188.629 41.767 188.92 42.104C189.361 42.614 190.259 42.691 190.739 42.259C191.023 42.003 191.057 42 191.057 42.229C191.057 42.425 191.205 42.486 191.68 42.486H192.304V37.218L191.87 36.735C191.347 36.153 190.344 35.988 189.533 36.353ZM23.7511 36.513C24.0551 36.879 23.8181 37.523 23.3791 37.523C22.8351 37.523 22.5741 37.142 22.7911 36.666C22.9871 36.237 23.4581 36.162 23.7511 36.513ZM26.8911 36.659C27.2561 37.456 26.6111 38.35 25.9331 37.989C25.5751 37.799 25.4931 36.784 25.8081 36.469C26.1301 36.149 26.7031 36.249 26.8911 36.659ZM58.0231 39.384V42.486H58.6461C59.1981 42.486 59.2691 42.443 59.2691 42.118C59.2691 41.916 59.6021 41.166 60.0091 40.451L60.7491 39.151L60.7941 40.819L60.8381 42.485H62.0731V36.283H61.4501C60.8871 36.283 60.8271 36.321 60.8271 36.675C60.8271 37.025 59.7841 39.075 59.4141 39.454C59.3251 39.544 59.2691 38.962 59.2691 37.942V36.282H58.0231V39.384ZM63.4761 39.384V42.486H64.7111L64.7551 40.819L64.8001 39.152L65.2661 40.359C65.8851 41.961 66.1401 41.94 66.8061 40.237L67.2921 38.997L67.3361 40.741L67.3801 42.486H68.4601V36.265L67.8961 36.312L67.3311 36.36L66.6661 38.066C66.0641 39.608 65.9861 39.735 65.8501 39.384C65.7671 39.171 65.4671 38.386 65.1831 37.64L64.6681 36.283H63.4761V39.384ZM75.0031 39.384V42.486H76.2491V39.849H77.4951V42.486H78.7421V36.282H77.4951V38.763H76.2491V36.282H75.0031V39.384ZM80.1431 39.384V42.486H80.7671C81.3421 42.486 81.3901 42.453 81.3931 42.059C81.3951 41.825 81.7441 41.039 82.1691 40.315L82.9411 38.996L82.9441 40.741L82.9481 42.486H84.1941V36.282H83.5711C83.0421 36.282 82.9481 36.332 82.9481 36.607C82.9481 36.786 82.6151 37.536 82.2081 38.274L81.4681 39.616L81.4241 37.949L81.3791 36.282H80.1441V39.383L80.1431 39.384ZM104.402 38.104C104.297 40.308 104.036 41.301 103.543 41.372C103.223 41.418 103.199 41.504 103.199 42.574V43.726H103.744C104.276 43.726 104.289 43.711 104.289 43.106V42.486H107.249V43.106C107.249 43.711 107.262 43.726 107.794 43.726H108.339V42.563C108.339 41.503 108.312 41.4 108.028 41.4C107.729 41.4 107.716 41.297 107.716 38.842V36.282H104.488L104.402 38.104ZM114.103 39.384V42.486H115.339L115.383 40.819L115.427 39.152L115.894 40.359C116.513 41.961 116.768 41.94 117.434 40.237L117.92 38.997L117.964 40.741L118.008 42.486H119.088V36.265L118.526 36.312C117.966 36.36 117.964 36.363 117.344 37.989C117.003 38.884 116.701 39.639 116.674 39.667C116.647 39.695 116.327 38.945 115.963 38L115.302 36.283H114.103V39.384ZM120.49 39.384V42.486H121.113C121.648 42.486 121.736 42.438 121.736 42.15C121.736 41.965 122.069 41.223 122.476 40.5L123.216 39.186L123.294 40.797L123.372 42.408L123.956 42.456L124.54 42.504V36.283H123.917C123.348 36.283 123.294 36.318 123.294 36.69C123.294 37.087 122.176 39.287 121.883 39.467C121.795 39.522 121.736 38.907 121.736 37.92V36.283H120.49V39.384ZM168.47 39.4V42.516L169.884 42.462C171.257 42.41 171.313 42.392 171.754 41.902C172.419 41.16 172.345 39.986 171.599 39.434C171.374 39.268 171.376 39.242 171.617 39.149C172.04 38.986 172.255 38.118 172.055 37.379C171.823 36.519 171.322 36.283 169.724 36.283H168.47V39.4ZM174.013 36.787C173.97 37.064 173.908 38.035 173.876 38.945C173.816 40.655 173.569 41.4 173.061 41.4C172.902 41.4 172.831 41.568 172.831 41.943C172.831 42.403 172.885 42.485 173.182 42.485C173.375 42.485 173.757 42.348 174.033 42.181C174.653 41.804 174.951 40.864 175.102 38.803C175.204 37.426 175.223 37.368 175.578 37.368H175.947V42.486H177.193V36.282H174.092L174.013 36.787ZM183.58 39.384V42.486H184.834C186.756 42.486 187.319 42.082 187.319 40.706C187.319 40.168 187.231 39.906 186.968 39.649L186.618 39.307L186.987 38.945C187.306 38.632 187.345 38.475 187.279 37.791C187.22 37.18 187.107 36.917 186.785 36.641C186.415 36.325 186.204 36.283 184.973 36.283H183.58V39.384ZM3.95413 36.887C4.47613 37.048 5.23713 37.394 5.64613 37.656C6.52613 38.218 7.39513 39.074 7.08613 39.074C6.82613 39.074 2.92313 37.181 2.48913 36.844C2.18413 36.608 2.18713 36.603 2.59213 36.598C2.81913 36.595 3.43213 36.725 3.95413 36.887ZM38.3061 39.322C37.2431 42.508 37.2101 42.576 37.0661 41.816C36.9831 41.377 37.0201 41.162 37.2131 40.95C37.4131 40.73 37.4351 40.578 37.3141 40.262C37.1841 39.922 37.2101 39.828 37.4661 39.692C37.7201 39.556 37.7571 39.424 37.6791 38.935C37.5961 38.422 37.6271 38.332 37.9121 38.258C38.1561 38.195 38.2401 38.05 38.2401 37.693C38.2401 37.375 38.3171 37.213 38.4681 37.213C38.5931 37.213 38.7741 37.068 38.8701 36.89C39.3021 36.087 39.1131 36.902 38.3061 39.322ZM11.7531 38.066C12.3621 38.953 12.8491 40.362 12.8401 41.212L12.8331 41.942L12.3491 41.012C11.8171 39.992 10.6671 37.252 10.6671 37.009C10.6671 36.777 11.2711 37.366 11.7531 38.066ZM47.6721 37.071C47.7321 37.167 47.9501 37.196 48.1871 37.137C49.1851 36.892 48.1331 37.41 46.0281 38.198C44.7861 38.664 43.5771 39.12 43.3411 39.211C43.1061 39.302 42.9131 39.321 42.9131 39.255C42.9131 38.981 43.5731 38.454 43.9131 38.454C44.1281 38.454 44.3811 38.299 44.5251 38.079C44.6981 37.817 44.8681 37.729 45.0921 37.789C45.3101 37.845 45.5341 37.74 45.7941 37.461C46.1261 37.105 46.2171 37.076 46.4891 37.245C46.7511 37.408 46.8461 37.395 47.0721 37.171C47.3841 36.861 47.5271 36.837 47.6721 37.071ZM72.1081 37.463C72.2811 37.529 72.3551 37.76 72.3551 38.238V38.919H71.7321C71.1141 38.919 71.1091 38.914 71.1091 38.329C71.1091 37.509 71.4521 37.212 72.1091 37.462L72.1081 37.463ZM106.47 39.384V41.4H105.769C105.384 41.4 105.069 41.383 105.07 41.361C105.071 41.34 105.176 40.98 105.303 40.561C105.431 40.143 105.535 39.471 105.535 39.069C105.535 37.805 105.681 37.369 106.1 37.369H106.47V39.384ZM111.424 37.554C111.527 37.657 111.611 38.006 111.611 38.33C111.611 38.914 111.605 38.919 110.988 38.919C110.37 38.919 110.365 38.914 110.365 38.329C110.365 37.702 110.581 37.369 110.988 37.369C111.125 37.369 111.321 37.452 111.424 37.554ZM170.817 37.698C171.096 38.218 170.774 38.764 170.186 38.764C169.732 38.764 169.716 38.739 169.716 38.066C169.716 37.396 169.734 37.368 170.178 37.368C170.489 37.368 170.697 37.476 170.817 37.698ZM180.926 37.668C181.015 37.833 181.088 38.631 181.088 39.441C181.088 40.572 181.031 40.969 180.843 41.156C180.157 41.839 179.686 41.139 179.686 39.437C179.686 37.861 179.85 37.368 180.377 37.368C180.601 37.368 180.833 37.495 180.926 37.668ZM185.885 37.554C185.988 37.657 186.072 37.887 186.072 38.066C186.072 38.513 185.781 38.764 185.262 38.764C184.849 38.764 184.826 38.727 184.826 38.066C184.826 37.406 184.849 37.368 185.262 37.368C185.502 37.368 185.783 37.452 185.885 37.554ZM23.9031 38.134C24.1641 38.62 24.0901 39.193 23.7341 39.441C22.9941 39.958 22.2021 39.017 22.7171 38.233C23.0351 37.751 23.6681 37.699 23.9031 38.134ZM35.5681 40.136C33.9211 42.816 32.6951 44.626 32.5931 44.526C32.3731 44.306 32.6531 43.43 32.9781 43.327C33.2251 43.249 33.2681 43.138 33.1961 42.775C33.1201 42.395 33.1661 42.297 33.4811 42.178C33.7731 42.068 33.8691 41.903 33.9071 41.446C33.9451 40.982 34.0201 40.857 34.2601 40.857C34.4561 40.857 34.5961 40.72 34.6551 40.47C34.7121 40.23 34.8751 40.064 35.0801 40.034C35.2631 40.007 35.4971 39.885 35.6001 39.763C35.9501 39.341 35.9341 39.54 35.5681 40.136ZM91.0481 40.247C91.0481 40.983 90.8041 41.4 90.3731 41.4C89.9131 41.4 89.6461 41.122 89.6461 40.645C89.6461 40.118 90.0731 39.695 90.6051 39.695C91.0091 39.695 91.0481 39.743 91.0481 40.247ZM101.143 40.508C101.098 41.278 101.071 41.325 100.645 41.374C100.137 41.431 99.9331 41.211 99.9301 40.597C99.9271 40.078 100.298 39.694 100.804 39.694C101.172 39.694 101.188 39.732 101.143 40.508ZM133.575 40.361C133.575 41.107 133.371 41.401 132.849 41.401C132.413 41.401 132.133 40.917 132.265 40.393C132.377 39.948 132.712 39.706 133.225 39.699C133.535 39.695 133.575 39.772 133.575 40.361ZM165.792 40.269C165.855 40.925 165.584 41.4 165.146 41.4C164.687 41.4 164.419 41.122 164.419 40.645C164.419 40.11 164.863 39.67 165.346 39.725C165.667 39.763 165.753 39.867 165.792 40.269ZM191.057 40.302C191.057 41.176 190.93 41.4 190.434 41.4C189.963 41.4 189.811 41.172 189.811 40.465C189.811 39.983 190.135 39.707 190.707 39.699C191.012 39.695 191.057 39.774 191.057 40.302ZM170.775 40.035C171.249 40.508 170.804 41.4 170.094 41.4C169.744 41.4 169.716 41.342 169.716 40.625C169.716 39.879 169.732 39.849 170.152 39.849C170.392 39.849 170.672 39.932 170.775 40.035ZM186.046 40.463C186.103 41.063 185.793 41.4 185.186 41.4C184.858 41.4 184.826 41.332 184.826 40.615V39.831L185.41 39.879C185.952 39.923 185.998 39.966 186.046 40.463ZM14.7921 40.468C15.6851 41.079 16.5041 42.05 16.9901 43.071C17.6771 44.518 17.3781 44.529 16.2301 43.101C14.9801 41.544 13.8791 40.005 14.0171 40.005C14.0711 40.005 14.4201 40.214 14.7921 40.468ZM145.259 41.788V42.486H146.661V41.09H145.259V41.788ZM154.294 41.788V42.486H155.696V41.09H154.294V41.788ZM8.33613 41.71C9.20213 41.874 10.5231 42.428 11.0561 42.852C11.3541 43.088 11.3431 43.095 10.8231 43.009C9.93113 42.861 6.89913 42.188 6.22713 41.989L5.60413 41.804L6.14913 41.7C6.98913 41.538 7.43813 41.54 8.33613 41.71ZM29.7751 43.82C28.5891 44.975 27.5821 45.883 27.5361 45.838C27.3481 45.651 27.6821 44.943 28.0331 44.784C28.2501 44.685 28.4511 44.428 28.5061 44.178C28.5691 43.893 28.7161 43.728 28.9331 43.696C29.1571 43.663 29.3061 43.486 29.3941 43.143C29.5041 42.723 29.5981 42.64 29.9701 42.64C30.2931 42.64 30.4381 42.549 30.5011 42.309C30.5621 42.077 30.6761 42.001 30.8821 42.055C31.0441 42.097 31.3071 42.037 31.4661 41.92C32.2151 41.376 31.7611 41.885 29.7751 43.82ZM43.4291 42.06C43.7451 41.917 43.8611 41.926 44.0111 42.105C44.1131 42.229 44.3761 42.329 44.5931 42.329C44.8111 42.329 44.9581 42.361 44.9191 42.4C44.8391 42.48 39.6401 43.108 39.1221 43.1C38.7911 43.095 38.7921 43.09 39.1671 42.778C39.4441 42.548 39.6791 42.486 40.0271 42.551C40.3901 42.619 40.5721 42.564 40.7771 42.326C40.9991 42.068 41.1071 42.042 41.3701 42.182C41.6201 42.315 41.7521 42.302 41.9521 42.129C42.3541 41.781 42.6621 41.737 42.8571 41.999C43.0021 42.196 43.1071 42.206 43.4291 42.06ZM19.6261 42.835C20.1211 43.0989 20.581 43.4238 20.9951 43.802C21.6181 44.406 22.4411 45.547 22.3311 45.656C22.2431 45.744 19.6481 43.782 18.6891 42.902C17.9581 42.231 17.9391 42.195 18.3791 42.314C18.6371 42.384 19.1981 42.619 19.6261 42.835ZM15.3511 45.538L16.1971 45.801L15.4181 45.912C14.2601 46.078 10.4211 46.077 10.5971 45.911C11.2451 45.297 13.9041 45.089 15.3511 45.538ZM35.2811 45.623C35.5311 45.778 35.6571 45.775 35.9241 45.608C36.1941 45.44 36.3271 45.438 36.6241 45.596C36.9181 45.753 37.0761 45.753 37.4181 45.598C37.7981 45.426 37.8701 45.44 38.0581 45.721C38.2191 45.963 38.3741 46.016 38.7211 45.947C39.0651 45.879 39.1741 45.915 39.1741 46.097C39.1741 46.227 39.3671 46.411 39.6031 46.504C39.9911 46.656 39.9651 46.667 39.3301 46.612C37.5291 46.458 34.2521 45.997 34.1241 45.88C34.0411 45.805 34.1401 45.687 34.3571 45.6C34.8641 45.399 34.9231 45.4 35.2811 45.623ZM29.8851 47.371C29.9541 47.551 30.1201 47.584 30.5801 47.511C31.0441 47.436 31.2051 47.47 31.2761 47.655C31.3461 47.835 31.5081 47.873 31.9311 47.805C32.4151 47.726 32.5061 47.76 32.5811 48.045C32.6441 48.287 32.7891 48.377 33.1171 48.377C33.4051 48.377 33.5671 48.457 33.5671 48.601C33.5671 48.724 33.7221 48.933 33.9131 49.066C34.4621 49.449 34.0531 49.356 31.9101 48.608C28.7911 47.518 28.5731 47.43 28.6671 47.278C28.8161 47.038 29.7851 47.113 29.8851 47.371ZM21.1041 47.513C20.3401 47.922 16.1191 48.998 16.1191 48.783C16.1191 48.593 17.4741 47.846 18.3001 47.583C18.8021 47.422 19.6401 47.307 20.3251 47.306C21.3921 47.304 21.4601 47.323 21.1041 47.513Z" fill="#26282B"/>
</svg>
