<svg width="220" height="30" viewBox="0 0 220 30" fill="none" xmlns="http://www.w3.org/2000/svg">
<path fill-rule="evenodd" clip-rule="evenodd" d="M40.0548 4.23248V8.46496L39.4267 7.92682C37.7957 6.52931 34.7338 6.16271 32.1841 7.05976C28.8978 8.21609 27.1086 11.3748 27.3032 15.677C27.4267 18.4052 28.1863 20.2421 29.8262 21.7777C32.298 24.0922 37.0398 24.271 39.3717 22.1375L40.1906 21.3884L40.2053 22.3095V23.2894H41.5606H42.8405L42.8791 11.6447L42.9176 0H41.4862H40.0548V4.23248ZM119.863 4.22072C119.863 6.54212 119.863 8.44145 119.863 8.44145C119.806 8.36608 119.535 8.16243 119.185 7.91386C117.228 6.40646 113.743 6.08116 111.063 7.42365C109.254 8.32975 107.802 10.2597 107.263 12.4737C106.932 13.8336 106.935 16.4896 107.269 17.7873C107.855 20.0695 109.26 21.9696 110.981 22.8097C111.948 23.2814 113.592 23.6609 114.668 23.6609C116.535 23.6609 118.586 22.8873 119.427 21.8658L119.863 21.3364V22.2723C119.863 22.9125 119.863 23.3647 119.863 23.3647H122.575V11.6824V0H121.219H119.863V4.22072ZM173.018 11.6824V23.3647H174.374H175.729V22.0081V20.6514H176.934C177.596 20.6514 178.377 20.6522 178.439 20.6514V21.9689V23.3647H181.903H185.377L185.366 21.8573L185.377 20.5007H186.729H188.08V14.9986L188.077 9.48487H186.646H185.366V8.13409V6.78331H181.903H178.439V8.13997V9.49663H177.084H175.729V4.74831V0H174.374H173.018V11.6824ZM211.718 4.74831V6.78331H210.363H209.008V8.21534V9.64737H210.363H211.718V15.074V20.5007H213.068H214.417L214.428 21.9327V23.2894H217.214H219.925V21.8573V20.5007H217.295H214.579V15.074V9.64737H217.29H220V8.21534V6.78331H217.29H214.579V4.74831V2.71332H213.149H211.718V4.74831ZM15.711 6.84707C12.9812 7.50972 10.9425 9.75665 10.2981 12.8129C9.94864 14.4709 10.0815 17.0217 10.6017 18.6407C11.332 20.9129 12.9737 22.5851 15.1279 23.2508C16.3905 23.6409 18.7316 23.7022 20.0274 23.3792C21.8719 22.9193 23.4897 21.6989 24.2396 20.2016C24.846 18.9908 24.846 18.8425 24.846 18.8425L22.4367 18.2396C21.6085 19.6383 20.9309 20.1992 20.1602 20.6286C19.3047 21.064 19.0063 21.1371 18.052 21.1445C16.6608 21.1553 15.8516 20.9301 15.0312 20.3038C13.9317 19.4642 13.2203 18.2186 12.95 16.506L12.8445 15.677H18.85C24.3078 15.677 24.9966 15.677 24.9966 15.677C24.9966 13.8681 24.7234 12.0013 24.3227 10.919C23.2754 8.09098 20.9669 6.60935 17.6637 6.64538C17.0174 6.65246 16.1388 6.74321 15.711 6.84707ZM68.4765 6.79627C67.6114 7.00037 66.783 7.23553 65.7154 8.01787L65.0513 8.63063V7.92712V6.92229H63.7714H62.3409V15.074V23.3647H62.642H64.0726H65.1266V17.712C65.2003 12.2603 65.285 12.1186 65.6263 11.4252C66.3471 9.96 67.7364 9.15942 69.5781 9.14752C71.1481 9.13742 72.9569 9.48397 73.3333 11.6053V17.3351V23.3647H74.7639H76.1944V17.7873C76.2652 12.6135 76.2885 12.2448 76.5841 11.6053C77.4451 9.74324 79.6715 8.75815 81.9364 9.23721C82.7736 9.41432 83.703 10.1701 84.0754 10.9767C84.3866 11.6512 84.4044 11.9392 84.4764 17.4859V23.3647H85.8316H87.1869V16.9583L87.1116 10.6272C86.2081 7.83849 83.6482 6.67055 80.6679 6.67055C78.7172 6.79627 76.872 7.23553 75.6044 8.90045L75.1822 9.48397L74.6937 8.80292C74.0688 7.93179 73.3333 7.23553 72.21 6.8647C70.924 6.48183 69.3905 6.58056 68.4765 6.79627ZM95.243 6.84179C93.4354 7.28241 91.9663 8.45532 91.216 10.0571C90.8188 10.9049 90.8008 11.3055 90.8008 11.3055L93.3607 11.9838C93.3607 11.9838 93.4138 11.8273 93.5041 11.5535C93.7492 10.8097 94.6176 9.87258 95.4235 9.48216C95.9686 9.21791 96.3924 9.13968 97.2758 9.13968C99.7439 9.13968 100.996 10.4867 100.861 12.9976L100.815 13.8587L97.6523 13.9162C94.1992 13.9789 93.218 14.166 91.9204 15.009C89.8793 16.3351 89.4295 19.6573 91.0103 21.7298C92.8674 24.1645 97.9176 24.345 100.437 22.0664L101.07 21.5339V22.4122V23.3647H102.396H103.674V17.0336C103.673 10.8555 103.669 10.7672 103.326 9.91554C102.685 8.32025 101.155 7.1481 99.2394 6.78451C98.1831 6.58388 96.1831 6.61252 95.243 6.84179ZM142.147 15.074V23.3647H143.279H144.709H145.01V17.7904V12.3724L146.29 12.3607H147.721V10.9287L147.732 9.64737H149.759H151.786V8.21534V6.78331H149.754H147.721V8.13997V9.49663H146.371H145.022L145.01 8.21534V6.772H143.541H142.147V15.074ZM156.605 8.13997V9.49663H155.25H153.895V14.9986V20.5007H155.244H156.594L156.605 21.9327V23.2894H161.424H166.242V21.8573L166.254 20.5007H167.603H168.953V14.9986V9.49663H167.598H166.242V8.13997V6.78331H161.424H156.605V8.13997ZM194.401 8.13997V9.49663H192.971H191.536V15.0359V20.6514H192.895H194.401V22.0081V23.3647H198.987C201.503 23.3647 204.038 23.3647 204.038 23.3647C204.038 23.3647 204.038 22.9246 204.038 21.8412V20.5007H205.395H206.753V15.0379V9.48502H205.318H203.888V8.13997V6.78331H199.22L194.413 6.77909L194.401 8.13997ZM2.2977e-06 6.93405C2.2977e-06 6.93405 0 10.7515 0 15.1717V23.3647H0.376457H1.73169H2.78577L2.78576 17.5612C2.83952 13.4738 2.8932 11.9085 3.11885 11.5146C3.86066 10.2197 5.04449 9.72274 7.52909 9.65973L8.95962 9.64737V8.29071V6.93405H7.75496C5.87269 6.93405 4.21629 7.46164 3.12864 8.49466L2.7186 8.96904L2.71454 8.02691L2.71047 6.93405H1.45568C0.765408 6.93405 2.2977e-06 6.93405 2.2977e-06 6.93405ZM15.7358 9.42126C15.2389 9.65988 14.7266 10.0242 14.3533 10.4204C13.7782 11.0307 13.1959 12.1477 13.0207 12.8506L12.9174 13.2651H17.5456H22.113L22.0772 12.6245C21.9097 11.2301 21.2344 10.4005 20.5113 9.8483C19.7115 9.2375 18.8227 9.04611 17.6934 9.04531C16.8409 9.04471 16.3256 9.13802 15.7358 9.42126ZM34.0514 9.20178C31.8446 9.6531 30.4719 11.3103 30.095 13.9778C29.7553 16.3832 30.4601 18.794 31.8655 20.0323C33.6925 21.6422 36.7682 21.5494 38.4833 19.8323C39.5985 18.7159 39.9227 17.7723 40.0179 15.3663C40.1004 13.2766 39.9025 12.2267 39.2228 11.1489C38.2863 9.66365 36.0005 8.80307 34.0514 9.20178ZM113.81 9.195C112.918 9.35101 111.674 10.0223 111.168 10.6202C109.165 12.9911 109.269 17.7026 111.372 19.8053C113.125 21.5582 116.212 21.6412 118.164 19.9878C118.431 19.7622 118.856 19.1564 119.109 18.6414C119.97 16.8912 120.035 13.5921 119.245 11.7534C118.445 9.89277 116.109 8.79297 113.81 9.195ZM156.605 15.074V20.5007H161.424H166.242V15.074V9.64737H161.424H156.605V15.074ZM178.439 11.004V12.3607H177.084H175.729V15.074V17.7873H177.084H178.439V19.144V20.5007H181.903H185.366V15.074V9.64737H181.903H178.439V11.004ZM194.401 15.074V20.5007H199.144H203.888V15.074V9.64737H199.144H194.401V15.074ZM95.9959 16.1245C94.6925 16.2757 94.0843 16.5174 93.5075 17.1129C93.1348 17.4978 92.8801 17.8627 92.8337 18.6164C92.7965 19.2194 92.9373 19.6024 93.2357 20.0484C93.7692 20.8451 94.7074 21.2544 96.0004 21.2544C97.9337 21.2544 99.6443 20.4603 100.366 19.2278C100.832 18.4324 100.89 16.0538 100.89 16.0538C100.89 16.0538 97.3419 15.9684 95.9959 16.1245ZM44.7228 28.642V30L52.7036 29.9973H60.6845V28.6406L60.6962 27.284H52.7095H44.7228V28.642ZM124.369 28.6406V29.9219H132.361H140.342V28.6406L140.354 27.284H132.361H124.369V28.6406Z" fill="#26282B"/>
</svg>
