<svg width="168" height="50" viewBox="0 0 168 50" fill="none" xmlns="http://www.w3.org/2000/svg">
<path d="M29.6098 30.1372C26.9321 32.8214 22.5926 32.8214 19.916 30.1372C17.2383 27.4531 17.2383 23.1004 19.916 20.4163C22.5926 17.7322 26.9321 17.7322 29.6098 20.4163C32.2865 23.1004 32.2865 27.4531 29.6098 30.1372Z" fill="#26282B"/>
<path d="M6.53035 32.3354C6.53035 17.4913 18.5309 5.45704 33.3336 5.45704C38.3264 5.45704 43 6.8287 47.0034 9.21378C42.0895 3.56758 34.8616 0 26.8022 0C11.9995 0 0 12.0342 0 26.8773C0 36.7146 5.27002 45.3154 13.1324 50C9.02152 45.2763 6.53035 39.0975 6.53035 32.3354Z" fill="#26282B"/>
<path d="M40.7607 24.0216C40.7607 33.7299 32.9131 41.6006 23.2319 41.6006C19.9662 41.6006 16.9091 40.7034 14.2915 39.1436C17.5045 42.8359 22.2318 45.1692 27.5029 45.1692C37.1841 45.1692 45.0317 37.2986 45.0317 27.5903C45.0317 21.1579 41.5847 15.5328 36.4433 12.4683C39.1315 15.5582 40.7607 19.5992 40.7607 24.0216Z" fill="#26282B"/>
<path d="M115.144 26.7358C115.298 26.795 115.401 26.869 115.502 26.869C117.691 26.851 119.881 26.8669 122.067 26.7876C123.906 26.7221 125.606 25.1592 125.979 23.0816C126.342 21.0537 125.382 19.0121 123.529 18.1498C122.812 17.8169 121.965 17.6647 121.168 17.6309C119.39 17.5559 117.605 17.6045 115.823 17.6108C115.611 17.6119 115.399 17.6605 115.144 17.6922V26.7358ZM118.884 29.2836C122.208 32.3831 125.533 35.4835 129.043 38.7563C127.954 38.7563 127.139 38.8038 126.336 38.7341C126.008 38.7045 125.653 38.4741 125.397 38.2395C122.988 36.0246 120.6 33.7875 118.202 31.5609C117.225 30.6542 116.24 29.7581 115.118 28.7288V38.6686H112.784C112.765 38.2945 112.731 37.9331 112.73 37.5717C112.727 30.6056 112.727 23.6396 112.728 16.6735C112.73 15.4044 112.736 15.4023 114.031 15.4012C116.26 15.4001 118.49 15.3811 120.718 15.4096C122.018 15.4255 123.305 15.5291 124.512 16.1293C127.272 17.5031 128.885 20.2442 128.184 23.7632C127.567 26.8721 124.632 29.0342 121.793 29.0258C120.868 29.0237 119.943 29.0258 119.018 29.0258C118.973 29.1124 118.929 29.198 118.884 29.2836Z" fill="#26282B"/>
<path d="M149.361 15.4026V38.6024C149.206 38.6563 149.072 38.7429 148.937 38.745C146.656 38.7683 147.087 38.9627 147.039 36.9961C147.032 36.6685 147.007 36.3399 146.98 35.8453C146.61 36.2099 146.351 36.4572 146.1 36.715C144.601 38.2579 142.776 39.0388 140.63 39.0832C139.327 39.1107 138.027 39.0948 136.788 38.615C134.053 37.5551 132.64 35.4733 132.272 32.6286C132.152 31.7092 132.114 30.774 132.111 29.8462C132.095 25.4152 132.103 20.9854 132.105 16.5545C132.106 15.4026 132.112 15.3973 133.284 15.4047C133.646 15.4079 134.009 15.4417 134.478 15.466V16.7521C134.478 21.369 134.472 25.9859 134.486 30.6017C134.489 31.2675 134.539 31.9417 134.655 32.5969C135.038 34.7643 136.337 36.1317 138.453 36.6379C140.152 37.0437 141.857 36.9707 143.455 36.1856C145.666 35.0993 146.637 33.157 146.949 30.8216C147.048 30.0871 147.035 29.3358 147.037 28.5918C147.044 24.7199 147.04 20.848 147.041 16.9761C147.041 16.7531 147.036 16.5291 147.042 16.3061C147.065 15.4428 147.079 15.4248 147.914 15.4047C148.351 15.3941 148.79 15.4026 149.361 15.4026Z" fill="#26282B"/>
<path d="M153.104 33.3088C153.233 33.2232 153.317 33.1376 153.417 33.1069C154.017 32.9252 154.622 32.7561 155.305 32.5595C155.448 32.959 155.569 33.3352 155.715 33.7029C156.496 35.659 157.927 36.7231 160.035 36.8446C161.478 36.9281 162.86 36.7368 164.038 35.8101C164.385 35.5374 164.725 35.2268 164.979 34.8696C166.089 33.3088 165.917 31.6 164.409 30.4164C163.544 29.7391 162.526 29.2361 161.533 28.7489C160.235 28.1117 158.866 27.6192 157.579 26.963C156.829 26.5794 156.124 26.0584 155.493 25.4941C152.716 23.0161 153.009 18.2639 156.289 16.1324C158.482 14.7069 162.476 14.5769 164.745 16.6111C165.931 17.6731 166.604 18.9803 166.793 20.6785C166.104 20.8645 165.445 21.0442 164.759 21.2302C164.528 20.6236 164.362 20.0931 164.13 19.5943C163.335 17.8951 161.9 17.3001 160.128 17.3297C158.39 17.3593 157.005 18.062 156.246 19.6651C155.6 21.0315 155.827 22.3535 156.826 23.5096C157.602 24.4078 158.639 24.9193 159.694 25.3842C160.782 25.864 161.909 26.2518 162.978 26.7675C163.909 27.2166 164.848 27.7006 165.669 28.322C168.754 30.6553 168.764 34.896 165.777 37.3614C162.741 39.8669 157.329 39.7581 154.564 36.4843C153.78 35.5554 153.27 34.5166 153.104 33.3088Z" fill="#26282B"/>
<path d="M60.7446 33.2767C60.9427 33.1826 61.0681 33.1002 61.2062 33.0601C61.7731 32.8952 62.3432 32.742 62.9818 32.5655C63.1104 32.9396 63.2221 33.2799 63.3443 33.617C64.063 35.6058 65.61 36.7333 67.7102 36.8506C69.2877 36.9383 70.7367 36.6329 71.9833 35.5984C73.7284 34.1485 73.8053 31.9991 72.1572 30.4594C71.9665 30.2829 71.7684 30.1054 71.546 29.9765C70.9369 29.6225 70.3289 29.2589 69.6903 28.9662C68.7798 28.5488 67.8377 28.2001 66.9177 27.8038C65.5815 27.23 64.3054 26.5558 63.2168 25.5656C61.4064 23.9192 60.9038 21.829 61.4696 19.557C62.026 17.3293 63.5846 15.9334 65.7986 15.3236C67.1886 14.9411 68.5996 14.9379 69.9822 15.3374C72.369 16.0253 73.8233 17.621 74.3944 20.0452C74.5051 20.5144 74.366 20.7542 73.917 20.8589C73.5198 20.9497 73.1267 21.0607 72.7284 21.1474C72.6272 21.1695 72.5144 21.1347 72.3806 21.1241C72.2131 20.6729 72.0613 20.2195 71.878 19.7789C71.2436 18.2455 70.0559 17.4752 68.4394 17.3452C66.648 17.2004 65.1189 17.7119 64.102 19.2854C63.2706 20.5693 63.4307 22.258 64.4297 23.4416C65.1969 24.3504 66.2233 24.8766 67.2771 25.3469C68.3952 25.8446 69.5438 26.2768 70.6671 26.764C71.7958 27.2532 72.8538 27.8609 73.7822 28.6883C76.1121 30.7627 76.307 34.2658 74.2089 36.5949C73.1014 37.8249 71.7315 38.609 70.1118 38.9113C68.1296 39.2811 66.1959 39.1691 64.3771 38.18C62.3517 37.0789 61.2894 35.6723 60.7446 33.2767Z" fill="#26282B"/>
<path d="M108.771 36.5417V38.6108C107.858 38.8085 96.9567 38.8169 95.9314 38.613C95.9156 38.3033 95.885 37.9768 95.885 37.6513C95.8829 30.6461 95.884 23.6419 95.884 16.6378C95.884 16.5258 95.8808 16.4138 95.884 16.3017C95.9072 15.4595 95.9335 15.4088 96.766 15.4056C99.4036 15.3929 102.041 15.4003 104.68 15.4003H108.513C108.712 16.1379 108.653 16.8153 108.562 17.6068H107.426C104.789 17.6068 102.15 17.6058 99.5122 17.6068C99.215 17.6068 98.9063 17.5667 98.6259 17.6364C98.4563 17.6787 98.2982 17.8795 98.2002 18.0464C98.1338 18.1585 98.176 18.3371 98.176 18.4861C98.176 20.7591 98.176 23.0322 98.1802 25.3042C98.1802 25.4458 98.216 25.5874 98.2529 25.8558H107.739V28.0328H98.3836C98.1296 28.8919 98.0853 35.2134 98.3182 36.5417H108.771Z" fill="#26282B"/>
<path d="M91.2876 26.2461C91.5511 28.4463 91.5511 28.4463 89.649 28.4463H82.9616H81.7392C81.677 29.6414 81.716 30.7489 81.7086 31.8543C81.7013 33.0093 81.7076 34.1643 81.7076 35.3193V38.6956H79.4683V15.5667C80.365 15.3564 90.6501 15.3299 91.8051 15.536V17.547C91.4225 17.5671 91.0642 17.603 90.7049 17.603C88.0672 17.6083 85.4296 17.603 82.7909 17.6083C81.7234 17.6093 81.7128 17.6167 81.7097 18.6312C81.7023 20.8673 81.7055 23.1023 81.7107 25.3384C81.7118 25.5909 81.7539 25.8446 81.7845 26.1806C82.8467 26.3095 83.8784 26.2292 84.9058 26.2429C85.9828 26.2577 87.0598 26.2461 88.1378 26.2461H91.2876Z" fill="#26282B"/>
</svg>
