<svg width="198" height="78" viewBox="0 0 198 78" fill="none" xmlns="http://www.w3.org/2000/svg">
<path d="M38.375 14.638C34.292 22.0524 32.006 30.4414 30.6084 38.75C29.4741 45.4698 28.807 52.2611 28.6118 59.0743C28.6118 60.29 28.5519 61.5157 28.6118 62.7313C28.6118 65.6448 31.0875 68.4378 34.0624 68.2971C35.512 68.2658 36.8924 67.6668 37.9101 66.6275C38.9279 65.5882 39.5029 64.1905 39.513 62.7313C39.4781 58.7834 39.648 54.8364 40.0221 50.9064C40.1818 49.0377 40.3782 47.169 40.6111 45.3004C41.4846 38.1826 43.2074 31.1966 45.7422 24.4938C46.3678 23.0404 47.06 21.6171 47.8186 20.224C49.2162 17.6822 48.4975 14.0352 45.8221 12.6086C44.9641 12.1504 44.0082 11.909 43.0369 11.9053C42.0865 11.8916 41.1502 12.1387 40.3289 12.6201C39.5075 13.1016 38.832 13.7992 38.375 14.638Z" fill="#26282B"/>
<path d="M23.1313 3.25511C17.7406 14.427 15.2249 26.9551 14.2766 39.3326C13.5461 48.8426 13.6195 58.3978 14.4962 67.8952C14.5976 69.6262 14.7942 71.3501 15.0852 73.0592C15.2747 74.5058 15.9851 75.832 17.0817 76.7865C18.2075 77.6919 19.641 78.1175 21.0748 77.972C23.7801 77.54 26.4954 74.8877 25.8865 71.8335C25.607 70.427 25.5171 68.9501 25.3774 67.5235C25.008 63.7761 24.7884 60.0287 24.6786 56.2612C24.5987 53.6759 24.5987 51.0939 24.6786 48.5152C24.8412 38.4841 26.2395 28.5121 28.8414 18.8274C29.977 15.0371 31.4056 11.3421 33.114 7.7761C33.6903 6.42555 33.7195 4.90187 33.1955 3.52993C32.6715 2.15799 31.6356 1.04635 30.3089 0.432006C29.6139 0.149811 28.872 0.00320386 28.1226 0C27.0698 0.0112994 26.0418 0.323214 25.1581 0.899461C24.2745 1.47571 23.5716 2.2926 23.1313 3.25511Z" fill="#26282B"/>
<path d="M26.1261 10.549C24.123 21.0951 23.5288 31.8632 24.3591 42.5676C24.8281 48.9455 25.9624 55.256 27.7433 61.395C28.0328 62.3495 28.3323 63.3139 28.7415 64.2483C29.1665 65.6139 30.053 66.7869 31.2472 67.5637C31.8663 67.931 32.5519 68.1705 33.2639 68.2683C33.976 68.366 34.7003 68.32 35.3945 68.133C36.0887 67.9459 36.7389 67.6215 37.3072 67.1788C37.8755 66.7361 38.3504 66.1838 38.7043 65.5543C39.0838 64.9156 39.3285 64.2051 39.4229 63.467C39.5174 62.7289 39.4597 61.9791 39.2534 61.2644C38.0557 58.1117 37.1566 54.8522 36.568 51.5292C36.2186 49.7711 35.9191 48.0129 35.6696 46.2347C34.583 37.1598 34.6165 27.9844 35.7694 18.9178C36.019 17.1094 36.3085 15.3211 36.6279 13.5328C36.9928 12.0811 36.8078 10.5447 36.1088 9.22282C35.3909 7.9823 34.2252 7.06825 32.8544 6.67097C32.4389 6.57357 32.0133 6.52636 31.5866 6.53032C29.1209 6.53032 26.5853 7.95694 26.1261 10.549Z" fill="#26282B"/>
<path d="M0.520335 24.6745C0.260784 28.3716 2.51689 31.5464 5.51171 31.7775C8.50654 32.0085 11.2019 29.1854 11.5014 25.4883C11.8008 21.7911 9.50481 18.6063 6.50999 18.3853H6.18056C3.25561 18.3752 0.779887 21.1079 0.520335 24.6745Z" fill="#26282B"/>
<path d="M66.0571 33.606V35.9971H61.2853V48.6659H58.4602V35.9971H53.7184V33.606H66.0571Z" fill="#26282B"/>
<path d="M74.5624 42.9695C74.6111 42.0184 74.3519 41.0772 73.8237 40.287C73.5698 39.9793 73.2517 39.7317 72.892 39.5617C72.5323 39.3917 72.1397 39.3036 71.7423 39.3036C71.3449 39.3036 70.9524 39.3917 70.5926 39.5617C70.2329 39.7317 69.9148 39.9793 69.6609 40.287C69.1252 41.0741 68.862 42.0168 68.9122 42.9695C68.8606 43.9348 69.1235 44.8908 69.6609 45.6921C69.9127 46.003 70.2302 46.2536 70.5902 46.4257C70.9502 46.5978 71.3437 46.6871 71.7423 46.6871C72.1409 46.6871 72.5344 46.5978 72.8944 46.4257C73.2544 46.2536 73.5719 46.003 73.8237 45.6921C74.353 44.8874 74.6119 43.9332 74.5624 42.9695ZM77.3277 42.9695C77.3366 43.8078 77.1981 44.6412 76.9184 45.4309C76.6771 46.1326 76.2928 46.7759 75.7903 47.3197C75.299 47.8435 74.7038 48.2577 74.0433 48.5353C73.3176 48.8313 72.5403 48.9782 71.7573 48.9673C70.9806 48.9794 70.2097 48.8324 69.4912 48.5353C68.8279 48.2576 68.2294 47.8435 67.7342 47.3197C67.2323 46.7719 66.8422 46.1301 66.5862 45.4309C66.3065 44.6412 66.1679 43.8078 66.1769 42.9695C66.1688 42.1377 66.3074 41.3111 66.5862 40.5281C66.842 39.8295 67.236 39.1904 67.7442 38.6494C68.2427 38.1273 68.8447 37.7166 69.5112 37.4438C70.2174 37.1514 70.9737 37.0012 71.7373 37.0018C72.5095 36.9932 73.2759 37.1366 73.9934 37.4237C74.6668 37.6888 75.2737 38.1005 75.7704 38.6293C76.2725 39.1713 76.6598 39.8105 76.9084 40.508C77.1986 41.2953 77.3407 42.1299 77.3277 42.9695Z" fill="#26282B"/>
<path d="M89.6464 48.3143C89.1273 48.4449 88.4485 48.5856 87.6498 48.7162C86.7455 48.863 85.8306 48.9335 84.9146 48.9272C84.1148 48.9502 83.3182 48.8171 82.5686 48.5354C81.9721 48.3126 81.4426 47.9389 81.0313 47.4503C80.6397 46.9619 80.3601 46.3924 80.2127 45.7826C80.0474 45.0918 79.967 44.3833 79.9731 43.6728V37.3032H82.6585V43.2508C82.5827 44.1569 82.7737 45.0654 83.2075 45.863C83.4342 46.1418 83.7263 46.3594 84.0574 46.4962C84.3885 46.633 84.7483 46.6847 85.1042 46.6466C85.4337 46.6466 85.7831 46.6466 86.1025 46.6466C86.3742 46.628 86.6443 46.5911 86.9111 46.5361V37.3032H89.6065L89.6464 48.3143Z" fill="#26282B"/>
<path d="M92.4215 43.0298C92.4193 42.2289 92.5544 41.4336 92.8208 40.6789C93.0735 39.9721 93.4638 39.3231 93.9689 38.77C94.4788 38.226 95.0982 37.7979 95.7857 37.5142C96.5492 37.202 97.3676 37.0482 98.1916 37.0621C99.2539 37.0552 100.308 37.253 101.296 37.6448L100.727 39.7948C100.385 39.655 100.031 39.5474 99.669 39.4733C99.2558 39.3831 98.834 39.3393 98.4112 39.3427C97.9609 39.317 97.5106 39.394 97.0941 39.568C96.6775 39.7419 96.3053 40.0084 96.0053 40.3473C95.4118 41.1241 95.1207 42.0923 95.1868 43.07C95.1345 44.0305 95.4092 44.9802 95.9654 45.7625C96.2967 46.122 96.7059 46.3998 97.1613 46.574C97.6167 46.7483 98.1059 46.8144 98.5909 46.7671C99.0466 46.769 99.5014 46.7252 99.9485 46.6365C100.339 46.5592 100.723 46.4517 101.097 46.315L101.476 48.4851C101.047 48.6676 100.598 48.7991 100.138 48.8769C99.5223 48.9899 98.8975 49.0471 98.2714 49.0477C97.3896 49.0659 96.5123 48.9159 95.6859 48.6057C94.9906 48.3359 94.3658 47.9098 93.859 47.3599C93.3685 46.8159 93.0008 46.1716 92.7809 45.4711C92.5295 44.6825 92.4081 43.8579 92.4215 43.0298Z" fill="#26282B"/>
<path d="M103.572 48.666V32.2397L106.268 31.7977V37.4338C106.594 37.3227 106.927 37.2354 107.266 37.1726C107.651 37.101 108.042 37.064 108.434 37.0621C109.226 37.04 110.016 37.1695 110.76 37.4439C111.335 37.666 111.843 38.0327 112.237 38.5088C112.617 38.9894 112.886 39.5487 113.026 40.1464C113.189 40.8443 113.266 41.5596 113.256 42.2763V48.666H110.57V42.638C110.579 42.1158 110.536 41.5941 110.44 41.0808C110.38 40.7211 110.244 40.3786 110.041 40.0761C109.86 39.8081 109.602 39.6014 109.302 39.4834C108.93 39.3537 108.538 39.2924 108.144 39.3025C107.779 39.305 107.415 39.342 107.056 39.413C106.776 39.459 106.5 39.5227 106.228 39.6039V48.6459L103.572 48.666Z" fill="#26282B"/>
<path d="M121.841 33.606H124.646V48.6759H121.841V33.606Z" fill="#26282B"/>
<path d="M128.2 37.6749C128.856 37.4946 129.523 37.3537 130.196 37.253C131.108 37.1183 132.03 37.0545 132.951 37.0621C133.763 37.0398 134.572 37.1692 135.337 37.4439C135.954 37.6495 136.506 38.0172 136.935 38.5088C137.32 38.9912 137.592 39.5542 137.733 40.1565C137.89 40.8519 137.967 41.5632 137.963 42.2763V48.666H135.238V42.638C135.242 42.1193 135.198 41.6014 135.108 41.0908C135.048 40.731 134.911 40.3884 134.708 40.0861C134.522 39.8153 134.257 39.6085 133.95 39.4934C133.574 39.3638 133.179 39.3026 132.782 39.3125C132.425 39.3137 132.068 39.3338 131.714 39.3728L130.895 39.4833V48.6559H128.2V37.6749Z" fill="#26282B"/>
<path d="M144.132 46.7772C144.663 46.8057 145.194 46.7201 145.69 46.526C145.846 46.4459 145.976 46.3213 146.063 46.1678C146.15 46.0142 146.19 45.8384 146.179 45.662C146.175 45.4742 146.125 45.2903 146.032 45.1271C145.94 44.9639 145.808 44.8266 145.65 44.7277C145.111 44.3929 144.534 44.1231 143.933 43.9239C143.473 43.7669 143.023 43.5824 142.585 43.3714C142.202 43.1948 141.846 42.9648 141.527 42.6882C141.229 42.428 140.99 42.1058 140.828 41.7438C140.645 41.3158 140.557 40.8531 140.568 40.3875C140.552 39.9104 140.65 39.4364 140.855 39.0059C141.06 38.5755 141.366 38.2015 141.746 37.916C142.679 37.275 143.792 36.9543 144.921 37.0018C145.591 36.9964 146.259 37.0569 146.917 37.1826C147.396 37.2648 147.866 37.3857 148.325 37.5443L147.836 39.6742C147.467 39.5212 147.087 39.4002 146.698 39.3125C146.173 39.1967 145.637 39.1427 145.101 39.1518C144.639 39.1324 144.181 39.2255 143.763 39.423C143.607 39.4972 143.475 39.6155 143.385 39.7636C143.294 39.9117 143.249 40.0832 143.254 40.2569C143.249 40.4298 143.283 40.6014 143.354 40.7592C143.429 40.9212 143.546 41.06 143.693 41.1611C143.897 41.3051 144.115 41.4296 144.342 41.5328C144.611 41.6534 144.931 41.7739 145.34 41.9046C145.897 42.1009 146.44 42.3324 146.967 42.5978C147.369 42.7917 147.739 43.0457 148.065 43.3513C148.351 43.6317 148.566 43.9759 148.694 44.3559C148.84 44.7719 148.907 45.2113 148.894 45.652C148.919 46.1356 148.819 46.6174 148.604 47.0505C148.389 47.4837 148.066 47.8533 147.666 48.1234C146.597 48.7402 145.372 49.03 144.142 48.9573C143.31 48.9799 142.478 48.8955 141.667 48.7061C141.223 48.5977 140.787 48.4635 140.359 48.3043L140.818 46.1141C141.287 46.2954 141.767 46.4464 142.255 46.5662C142.869 46.7174 143.5 46.7883 144.132 46.7772Z" fill="#26282B"/>
<path d="M151.24 34.2992L153.935 33.8672V37.3031H158.078V39.4933H153.905V44.1248C153.847 44.8091 154.004 45.4947 154.354 46.0839C154.542 46.2946 154.776 46.4574 155.038 46.5587C155.3 46.66 155.583 46.697 155.862 46.6666C156.302 46.6725 156.742 46.6219 157.17 46.5159C157.549 46.4154 157.848 46.315 158.068 46.2346L158.507 48.3143C158.111 48.4766 157.704 48.6109 157.289 48.7161C156.709 48.8658 156.111 48.9367 155.512 48.9271C154.803 48.9479 154.095 48.8355 153.426 48.5956C152.907 48.4117 152.451 48.0844 152.108 47.6512C151.765 47.2134 151.529 46.7007 151.42 46.1542C151.272 45.495 151.201 44.8206 151.21 44.1449L151.24 34.2992Z" fill="#26282B"/>
<path d="M163.399 48.6659H160.703V37.3032H163.399V48.6659ZM163.688 33.9878C163.696 34.2077 163.657 34.4268 163.572 34.6297C163.488 34.8327 163.361 35.0148 163.199 35.1633C162.873 35.4415 162.459 35.5942 162.031 35.5942C161.603 35.5942 161.19 35.4415 160.863 35.1633C160.705 35.0096 160.579 34.8254 160.493 34.6217C160.407 34.4181 160.363 34.199 160.363 33.9778C160.363 33.7565 160.407 33.5375 160.493 33.3338C160.579 33.1301 160.705 32.9459 160.863 32.7923C161.19 32.514 161.603 32.3613 162.031 32.3613C162.459 32.3613 162.873 32.514 163.199 32.7923C163.363 32.9434 163.491 33.1288 163.576 33.3354C163.66 33.5419 163.699 33.7646 163.688 33.9878Z" fill="#26282B"/>
<path d="M166.823 37.6749C167.479 37.493 168.146 37.3521 168.82 37.2529C169.735 37.1181 170.66 37.0543 171.585 37.0621C172.393 37.0405 173.199 37.17 173.961 37.4438C174.552 37.6604 175.079 38.0273 175.488 38.5088C175.877 38.9887 176.15 39.5526 176.287 40.1564C176.448 40.851 176.525 41.5629 176.516 42.2763V48.6659H173.871V42.6379C173.88 42.1191 173.837 41.6007 173.741 41.0908C173.681 40.731 173.545 40.3884 173.342 40.0861C173.159 39.8156 172.897 39.6085 172.593 39.4933C172.217 39.3638 171.822 39.3025 171.425 39.3125C171.068 39.3131 170.712 39.3332 170.357 39.3728L169.528 39.4833V48.6559H166.843L166.823 37.6749Z" fill="#26282B"/>
<path d="M179.192 43.0298C179.189 42.2288 179.324 41.4335 179.591 40.6788C179.844 39.972 180.234 39.3231 180.739 38.77C181.249 38.226 181.868 37.7979 182.556 37.5141C183.316 37.2027 184.131 37.049 184.952 37.062C186.017 37.0544 187.075 37.2522 188.066 37.6448L187.487 39.7947C187.165 39.6566 186.831 39.549 186.489 39.4732C186.076 39.3831 185.654 39.3393 185.231 39.3426C184.781 39.317 184.331 39.394 183.914 39.568C183.497 39.7419 183.125 40.0083 182.825 40.3473C182.223 41.1064 181.915 42.0594 181.957 43.0298C181.906 43.9885 182.177 44.9366 182.726 45.7223C183.058 46.0806 183.467 46.3575 183.922 46.5316C184.377 46.7058 184.866 46.7726 185.351 46.7269C185.807 46.7297 186.262 46.6859 186.709 46.5963C187.103 46.5202 187.49 46.4127 187.867 46.2748L188.246 48.4449C187.813 48.6271 187.361 48.7586 186.898 48.8367C186.286 48.9502 185.664 49.0073 185.042 49.0075C184.16 49.0257 183.282 48.8757 182.456 48.5655C181.761 48.2957 181.136 47.8696 180.629 47.3197C180.139 46.7757 179.771 46.1314 179.551 45.4309C179.304 44.6551 179.183 43.8444 179.192 43.0298Z" fill="#26282B"/>
<path d="M190.203 34.2992L192.898 33.8672V37.3031H197.031V39.4933H192.898V44.1248C192.85 44.7943 193.003 45.4627 193.337 46.0437C193.527 46.2539 193.763 46.4162 194.027 46.5174C194.29 46.6187 194.574 46.656 194.855 46.6264C195.292 46.6325 195.728 46.5818 196.152 46.4757C196.532 46.3753 196.831 46.2748 197.051 46.1944L197.5 48.2741C197.101 48.4378 196.691 48.5721 196.272 48.6759C195.692 48.8262 195.094 48.8971 194.495 48.8869C193.789 48.9079 193.084 48.7954 192.419 48.5554C191.898 48.3698 191.439 48.043 191.091 47.611C190.748 47.1732 190.512 46.6605 190.402 46.114C190.263 45.4536 190.196 44.7798 190.203 44.1047V34.2992Z" fill="#26282B"/>
</svg>
