<svg width="198" height="44" viewBox="0 0 198 44" fill="none" xmlns="http://www.w3.org/2000/svg">
<path d="M18.875 1.04682C18.1 1.34682 17.8 1.82182 17.725 2.92182L17.625 3.89682L21.75 6.29682C24.025 7.62182 27.725 9.77182 29.975 11.0718C32.5 12.5218 34.3 13.7218 34.675 14.2218C35.9 15.8218 35.975 16.3718 36 24.5968V32.2718L36.75 32.6718C37.725 33.1718 38.4 33.1468 39 32.5468C39.475 32.0718 39.5 31.7218 39.5 23.0968C39.475 11.6718 39.75 12.3718 34.25 9.24682C32.675 8.34682 28.85 6.14682 25.75 4.37182C22.65 2.59682 19.95 1.07182 19.75 0.996819C19.55 0.921818 19.15 0.946819 18.875 1.04682Z" fill="#26282B"/>
<path d="M12.55 4.72182C11.8 5.37182 11.575 6.82182 12.175 7.32182C12.425 7.54682 15.825 9.54682 19.75 11.7968C28.675 16.9218 28.8 16.9968 29.55 18.4718C30.1 19.6468 30.125 19.8468 30.175 27.5468C30.25 35.2218 30.25 35.4218 30.775 35.8468C31.575 36.5218 32.9 36.4218 33.375 35.6968C33.725 35.1968 33.75 33.9218 33.7 26.1218L33.625 17.1218L32.875 15.9218C32.175 14.7968 31.6 14.4218 23.125 9.52182C18.175 6.64682 13.875 4.32182 13.6 4.29682C13.3 4.29682 12.825 4.49682 12.55 4.72182Z" fill="#26282B"/>
<path d="M6.60005 8.17181C6.12505 8.67181 6.00005 9.02181 6.05005 9.72181C6.12505 10.5718 6.25005 10.6718 8.62505 12.0468C15.975 16.2218 22.2 19.8968 22.7 20.3718C23.025 20.6718 23.525 21.3468 23.775 21.8468C24.225 22.6968 24.25 23.3968 24.25 30.7468V38.7468L24.925 39.1968C25.875 39.7968 26.975 39.7468 27.55 39.0718C27.975 38.5218 28 37.8718 28 29.9468C28 24.7718 27.9 21.0468 27.725 20.4718C27.35 19.0718 26.2 17.9468 23.8 16.5718C22.6 15.8968 19.95 14.3718 17.875 13.1718C10.6 8.94681 8.05005 7.54681 7.65005 7.54681C7.42505 7.54681 6.95005 7.82181 6.60005 8.17181Z" fill="#26282B"/>
<path d="M0.25 20.7218V31.6718L2.95 33.1968C4.425 34.0218 8.9 36.5968 12.875 38.8718C16.875 41.1718 20.35 43.0468 20.65 43.0468C20.925 43.0468 21.4 42.7968 21.7 42.4718C22.175 41.9468 22.25 41.6218 22.25 39.4968V37.1218L19.475 35.5218C16.3 33.6968 15.5 32.7968 15.3 30.8218C15.2 29.7718 15.275 29.5218 15.9 28.8218C17.05 27.5718 17.8 27.5968 20.1 28.9218C21.2 29.5468 22.125 30.0468 22.175 30.0468C22.375 30.0468 22.225 24.5718 22 23.7718C21.525 22.0968 20.375 21.2218 13.375 17.2218C9.675 15.0968 5.25 12.5468 3.55 11.5718C1.875 10.5968 0.425 9.79681 0.375 9.79681C0.3 9.79681 0.25 14.7218 0.25 20.7218Z" fill="#26282B"/>
<path d="M59.75 21.6968V33.0718L61.075 32.9968L62.375 32.9218L62.45 27.7218L62.5 22.5468H64.45H66.375L67.85 25.1218C71.05 30.6218 72.075 32.2968 72.4 32.5718C72.6 32.7468 73.325 32.9218 74 32.9968C75.45 33.1218 75.55 32.9218 74.7 31.5468C72.3 27.5968 68.75 21.4968 68.75 21.2718C68.75 21.1218 70.15 18.6718 71.875 15.7968C73.6 12.9468 75 10.5468 75 10.4468C75 10.0968 73.075 10.3218 72.375 10.7718C71.875 11.0718 70.75 12.6968 69 15.6218L66.375 20.0218L64.45 20.0468H62.5V15.6718C62.5 11.6218 62.45 11.2468 62 10.7968C61.7 10.4968 61.175 10.2968 60.625 10.2968H59.75V21.6968Z" fill="#26282B"/>
<path d="M167.65 10.6218C167.35 10.8468 167.225 11.1968 167.3 11.7968C167.35 12.4718 167.525 12.7218 168.05 12.8968C169.375 13.3468 170.325 11.6468 169.3 10.7218C168.75 10.2218 168.25 10.1968 167.65 10.6218Z" fill="#26282B"/>
<path d="M174.25 10.7968C173.975 11.0718 173.75 11.4718 173.75 11.6718C173.75 12.1968 174.65 13.0468 175.2 13.0468C175.8 13.0468 176.5 12.2718 176.5 11.6218C176.5 11.0468 175.75 10.2968 175.175 10.2968C174.95 10.2968 174.525 10.5218 174.25 10.7968Z" fill="#26282B"/>
<path d="M83.825 16.9968C80.15 18.2968 78.025 21.2718 78 25.0968C78 28.3468 79.8 31.2968 82.7 32.7218C83.95 33.3468 84.4 33.4218 86.5 33.4218C88.6 33.4218 89.05 33.3468 90.3 32.7218C91.975 31.8968 93.325 30.4718 94.225 28.5718C94.775 27.3968 94.875 26.8218 94.875 25.0468C94.875 23.1968 94.775 22.7218 94.15 21.4468C92.7 18.4968 90.15 16.7968 86.9 16.6218C85.625 16.5468 84.775 16.6718 83.825 16.9968ZM89.15 19.7468C91.25 20.8218 92.35 22.6718 92.35 25.0468C92.35 28.6718 89.325 31.3968 85.75 30.9718C84.275 30.7968 83.325 30.3218 82.25 29.2468C79 26.0218 80.45 20.7468 85 19.2718C85.95 18.9468 88.075 19.1968 89.15 19.7468Z" fill="#26282B"/>
<path d="M130.325 16.8968C128.125 17.5968 125.925 19.5718 124.925 21.7468C124.15 23.4468 124.15 26.6968 124.95 28.3968C125.8 30.2718 127.05 31.6218 128.8 32.5718C130.275 33.3718 130.525 33.4218 132.75 33.4218C134.85 33.4218 135.3 33.3468 136.55 32.7218C137.95 32.0468 140.25 29.8218 140.25 29.1968C140.25 28.8468 139.225 28.2968 138.575 28.2968C138.375 28.2968 137.725 28.6968 137.2 29.1968C135.3 30.8968 133.2 31.4218 130.975 30.7718C130.025 30.4718 128.25 29.1968 128.5 28.9718C128.625 28.8718 131.575 27.2468 137.45 24.0718C139.25 23.0718 140.75 22.1218 140.75 21.9468C140.75 21.2968 139.1 19.1718 137.9 18.2718C135.775 16.6468 132.825 16.1218 130.325 16.8968ZM134.65 19.4218C135.8 19.7718 137.25 20.7718 137.25 21.2218C137.25 21.4718 127.25 26.8968 127.1 26.7218C126.725 26.3468 126.725 24.4718 127.1 23.3968C127.8 21.3468 129 20.0968 130.95 19.3968C132.175 18.9718 133.15 18.9718 134.65 19.4218Z" fill="#26282B"/>
<path d="M169.25 16.9718C167 17.7468 165.125 19.5468 164.1 21.9218C163.425 23.4218 163.475 26.8218 164.175 28.3468C164.925 29.9968 166.8 31.9218 168.475 32.7218C169.65 33.2968 170.225 33.3968 172 33.4218C173.925 33.4218 174.3 33.3468 175.8 32.5968C177.4 31.8218 179.5 29.8718 179.5 29.1718C179.5 28.8218 178.45 28.2968 177.75 28.2968C177.5 28.2968 176.7 28.7968 176 29.3968C173.8 31.2718 171.225 31.5218 168.9 30.0468C168.275 29.6468 167.75 29.1968 167.75 29.0718C167.75 28.8968 174.65 25.0218 178.95 22.7968C179.525 22.4968 180 22.1218 180 21.9468C180 21.3718 178.575 19.3968 177.5 18.4718C175.375 16.6718 171.925 16.0218 169.25 16.9718ZM174.625 19.6468C175.325 19.9718 176.075 20.4468 176.325 20.7218C176.75 21.1968 176.65 21.2718 171.575 23.9968C168.75 25.5468 166.35 26.7218 166.275 26.6468C166.2 26.5718 166.125 25.8218 166.15 24.9718C166.2 20.5718 170.675 17.7718 174.625 19.6468Z" fill="#26282B"/>
<path d="M99.25 24.6468C99.25 31.2468 99.3 32.3218 99.65 32.6468C99.975 32.9968 101.3 33.0468 110.15 33.0468H120.25V25.4468C120.25 16.9968 120.25 17.0468 118.6 17.0468H117.75V23.9218V30.7968H114.375H111V24.3468C111 18.3968 110.975 17.8468 110.55 17.4718C110.3 17.2218 109.725 17.0468 109.3 17.0468H108.5V23.9218V30.7968H105.125H101.75V24.4718C101.75 17.3468 101.675 17.0468 100.1 17.0468H99.25V24.6468Z" fill="#26282B"/>
<path d="M148.1 17.3968C147.675 17.7218 147.6 18.1968 147.475 22.2218C147.275 27.9218 146.775 29.4718 144.7 30.5718C143.825 31.0218 143.75 31.1468 143.75 32.0718V33.1218L144.8 32.9468C148.15 32.3968 149.675 29.4468 149.95 22.9218L150.125 19.1718L153.425 19.0968L156.725 19.0218L156.8 25.6968C156.875 31.9468 156.9 32.3468 157.35 32.6968C157.625 32.8968 158.225 33.0468 158.675 33.0468H159.5V25.0468V17.0468H154.05C149.725 17.0468 148.5 17.1218 148.1 17.3968Z" fill="#26282B"/>
<path d="M184.5 25.0468V33.0468H185.75H187V29.4218V25.7968H188.45H189.925L192.25 29.1468C193.525 30.9968 194.85 32.6218 195.175 32.7718C195.85 33.0718 197.75 33.1468 197.75 32.8468C197.75 32.7468 196.45 30.8968 194.85 28.7218C193.25 26.5468 192.025 24.6218 192.075 24.4718C192.15 24.2968 193.35 22.5968 194.725 20.6718L197.25 17.1718L196.125 17.0968C195.5 17.0468 194.8 17.1218 194.575 17.2718C194.35 17.3968 193.175 18.8968 192 20.5968L189.85 23.6718H188.5H187.125L187.05 20.7968C186.975 17.5468 186.75 17.0468 185.325 17.0468H184.5V25.0468Z" fill="#26282B"/>
<path d="M17.55 29.9468C16.5 30.6718 17.075 32.7968 18.3 32.7968C18.925 32.7968 19.3 32.1468 19.2 31.1468C19.1 29.9218 18.35 29.3718 17.55 29.9468Z" fill="#26282B"/>
</svg>
